STARTFONT 2.1
COMMENT
COMMENT Converted from OpenType font "RuthlessSketch_Italic.ttf" by "otf2bdf 3.0".
COMMENT
FONT -FreeType-Ruthless Sketch-Medium-I-Normal--50-360-100-100-P-269-ISO10646-1
SIZE 36 100 100
FONTBOUNDINGBOX 66 56 -23 -10
STARTPROPERTIES 19
FOUNDRY "FreeType"
FAMILY_NAME "Ruthless Sketch"
WEIGHT_NAME "Medium"
SLANT "I"
SETWIDTH_NAME "Normal"
ADD_STYLE_NAME ""
PIXEL_SIZE 50
POINT_SIZE 360
RESOLUTION_X 100
RESOLUTION_Y 100
SPACING "P"
AVERAGE_WIDTH 269
CHARSET_REGISTRY "ISO10646"
CHARSET_ENCODING "1"
FONT_ASCENT 46
FONT_DESCENT 10
COPYRIGHT "© 2024 GGBotNet. All Rights Reserved."
_OTF_FONTFILE "RuthlessSketch_Italic.ttf"
_OTF_PSNAME "RuthlessSketch-Italic"
ENDPROPERTIES
CHARS 1105
STARTCHAR 0020
ENCODING 32
SWIDTH 300 0
DWIDTH 15 0
BBX 0 0 0 0
BITMAP
ENDCHAR
STARTCHAR 0021
ENCODING 33
SWIDTH 280 0
DWIDTH 14 0
BBX 18 38 4 -1
BITMAP
03FFC0
0FFFC0
0FFF80
0FFF80
0FFF00
0FFF00
0FFE00
1FFE00
1FFC00
1FFC00
1FFC00
1FF800
1FF800
1FF800
1FF000
1FF000
1FF000
1FE000
1FE000
1FE000
3FE000
3FC000
3FC000
3FC000
3F0000
000000
000000
000000
060000
3F0000
7F8000
FF8000
FF8000
FF8000
FF0000
FF0000
7E0000
300000
ENDCHAR
STARTCHAR 0022
ENCODING 34
SWIDTH 380 0
DWIDTH 19 0
BBX 19 18 7 18
BITMAP
3F07E0
7F0FE0
7F0FE0
7F1FE0
7F1FE0
FF1FC0
FE1FC0
FE1FC0
FE1F80
FE1F80
FC1F00
FC1F00
F81F00
F81E00
F01E00
F01C00
E01C00
E01800
ENDCHAR
STARTCHAR 0023
ENCODING 35
SWIDTH 500 0
DWIDTH 25 0
BBX 30 35 2 0
BITMAP
00011020
0003F07C
0003F078
0007E0F8
0007E1F0
000FC1F0
000FC3E0
000FC3E0
001F87C0
07FFFFF0
0FFFFFF0
0FFFFFF0
0FFFFFF0
0FFFFFF0
1FFFFFE0
07FC3E00
00F87E00
01F87C00
01F0FC00
0BFFFFC0
3FFFFFC0
3FFFFFC0
3FFFFFC0
7FFFFF80
7FFFFF80
7FFFE000
1F0FC000
1E0FC000
3E1F8000
3C1F8000
7C3F0000
783F0000
F83F0000
F03E0000
20020000
ENDCHAR
STARTCHAR 0024
ENCODING 36
SWIDTH 500 0
DWIDTH 25 0
BBX 30 46 1 -6
BITMAP
00003E00
00007E00
0000FE00
0000FE00
0000FE00
0000FC00
0001FE00
0001FFC0
0007FFE0
001FFFF0
007FFFF8
00FFFFFC
01FFFFFC
01FFFFF8
01FFFFF8
03FFF8F0
03FFF060
03FFF000
03FFF000
03FFF000
03FFE000
01FFFC00
01FFFE00
007FFF00
000FFF00
001FFF00
001FFF80
001FFF80
0C1FFF80
0FFFFF00
1FFFFF00
1FFFFE00
1FFFFE00
3FFFFC00
3FFFFC00
7FFFF800
7FFFF000
7FFFF000
FFFFE000
FFFF8000
01FE0000
00FE0000
00FE0000
00FC0000
01FC0000
01FC0000
ENDCHAR
STARTCHAR 0025
ENCODING 37
SWIDTH 560 0
DWIDTH 28 0
BBX 29 35 3 0
BITMAP
00000040
000000F8
00FC01F8
01FC01F0
03FE03F0
07FE07E0
0F1F07C0
0F1F0FC0
1E1E1F80
1E1E3F00
1E1E3E00
1E3E7E00
1FFCFC00
1FF9F800
0FF3F000
07E3E000
0007E000
000FC200
001F9F80
003F3F80
003E7FC0
007EFFE0
00FDF1E0
01F9E1E0
03F1E1E0
07E1C1E0
07C3C3C0
0FC3E3C0
1F81FF80
3F01FF80
7E01FF00
7C007C00
F8000000
F0000000
20000000
ENDCHAR
STARTCHAR 0026
ENCODING 38
SWIDTH 500 0
DWIDTH 25 0
BBX 25 33 3 1
BITMAP
003FC000
00FFE000
01FFF000
03FFF000
03FFF000
07E3F000
07E3E000
07E3E000
07E7C000
07FFC000
03FF8000
03FF0000
03FF0F80
07FF1F80
0FFF9F80
1FFFDF00
1FFFFF00
3F9FFE00
3F0FFE00
7F0FFC00
7F07FC00
7E03FC00
FE03FC00
FE01FC00
FF03FE00
FFFFFE00
FFFFFE00
FFFFFE00
FFFFFE00
7FFF9E00
3FFF8E00
1FFE0C00
03F00400
ENDCHAR
STARTCHAR 0027
ENCODING 39
SWIDTH 200 0
DWIDTH 10 0
BBX 10 18 7 19
BITMAP
3FC0
7FC0
7FC0
7FC0
7FC0
FF80
FF80
FF80
FF00
FF00
FE00
FE00
FC00
FC00
F800
F800
7000
7000
ENDCHAR
STARTCHAR 0028
ENCODING 40
SWIDTH 340 0
DWIDTH 17 0
BBX 22 47 3 -6
BITMAP
0000E0
0001F0
0003FC
0007F8
000FF0
001FE0
003FC0
007F00
00FE00
01FC00
03F800
03F800
07F000
07E000
0FC000
0FC000
1F8000
1F8000
3F8000
3F8000
3F0000
3F0000
3F0000
7F0000
7F0000
7F0000
7E0000
7E0000
FE0000
FE0000
FE0000
FC0000
7C0000
7E0000
7E0000
7F0000
7F0000
3F0000
3F8000
1F8000
1FC000
1FE000
0FF000
07F000
07F800
03C000
018000
ENDCHAR
STARTCHAR 0029
ENCODING 41
SWIDTH 340 0
DWIDTH 17 0
BBX 21 47 0 -7
BITMAP
000E00
001F00
007F80
007F80
003FC0
001FC0
000FE0
0007E0
0007E0
0007F0
0003F0
0003F0
0001F0
0001F8
0001F8
0001F8
0001F8
0001F8
0001F8
0003F8
0003F0
0003F0
0003F0
0003F0
0003F0
0007F0
0007E0
0007E0
0007E0
0007E0
000FC0
000FC0
001F80
003F80
003F00
00FF00
00FE00
01FC00
01F800
07F000
0FE000
3FC000
3FC000
FF8000
FF0000
3E0000
0C0000
ENDCHAR
STARTCHAR 002A
ENCODING 42
SWIDTH 320 0
DWIDTH 16 0
BBX 16 15 6 22
BITMAP
00C0
00E0
08E2
1CCF
3FDF
1FFC
07F8
03E0
07F0
1FF8
3FFC
FBBE
6308
0300
0700
ENDCHAR
STARTCHAR 002B
ENCODING 43
SWIDTH 460 0
DWIDTH 23 0
BBX 23 23 4 6
BITMAP
001FC0
003F80
003F80
003F80
003F80
003F80
007F00
007F00
7FFFFE
7FFFFE
7FFFFE
7FFFFE
FFFFFE
FFFFFC
FFFF7C
01FC00
01FC00
01FC00
01FC00
03FC00
03F800
03F800
038000
ENDCHAR
STARTCHAR 002C
ENCODING 44
SWIDTH 200 0
DWIDTH 10 0
BBX 13 17 -2 -8
BITMAP
00E0
03F0
07F8
0FF8
0FF8
0FF8
0FF0
0FF0
07E0
07C0
0F80
7F00
FF00
FE00
7C00
3800
1800
ENDCHAR
STARTCHAR 002D
ENCODING 45
SWIDTH 380 0
DWIDTH 19 0
BBX 19 8 4 14
BITMAP
018200
7FFFE0
7FFFE0
7FFFC0
FFFFC0
FFFFC0
FFFFC0
FFFFC0
ENDCHAR
STARTCHAR 002E
ENCODING 46
SWIDTH 200 0
DWIDTH 10 0
BBX 10 9 1 0
BITMAP
0F00
1FC0
3FC0
7FC0
7FC0
7FC0
FF80
7F00
3E00
ENDCHAR
STARTCHAR 002F
ENCODING 47
SWIDTH 440 0
DWIDTH 22 0
BBX 28 40 1 -3
BITMAP
00000100
000003F0
000007F0
00000FE0
00001FE0
00001FC0
00003FC0
00007F80
00007F00
0000FF00
0000FE00
0001FE00
0003FC00
0003FC00
0007F800
000FF000
000FF000
001FE000
003FE000
003FC000
007FC000
007F8000
00FF8000
01FF0000
01FF0000
03FE0000
07FE0000
07FC0000
0FFC0000
0FF80000
1FF80000
1FF00000
3FF00000
3FE00000
7FE00000
7FC00000
FFC00000
FF800000
FF000000
83000000
ENDCHAR
STARTCHAR 0030
ENCODING 48
SWIDTH 400 0
DWIDTH 20 0
BBX 20 35 4 0
BITMAP
003C00
00FE00
01FE00
03FF00
07FF80
07FF80
0FFFC0
0FFFE0
0FFFE0
1FFFE0
1FFFE0
3FEFE0
3FC7E0
3F87F0
7F87F0
7F07E0
7F07E0
FF07E0
FF0FE0
FF0FE0
FF1FC0
FF1FC0
FFFFC0
FFFF80
FFFF80
FFFF80
7FFF00
7FFF00
7FFE00
7FFE00
3FFC00
3FFC00
1FF800
0FF000
07E000
ENDCHAR
STARTCHAR 0031
ENCODING 49
SWIDTH 420 0
DWIDTH 21 0
BBX 18 33 6 1
BITMAP
000F80
003FC0
007FC0
01FFC0
07FFC0
1FFFC0
7FFFC0
FFFFC0
7F7F80
3F7F80
1EFF80
0CFF80
08FF80
01FF80
01FF00
03FF00
03FF00
03FF00
07FF00
07FF00
07FF00
0FFE00
0FFE00
0FFE00
1FFE00
1FFE00
1FFE00
3FFE00
3FFE00
3FFE00
7FFE00
1FFE00
003C00
ENDCHAR
STARTCHAR 0032
ENCODING 50
SWIDTH 500 0
DWIDTH 25 0
BBX 25 34 3 0
BITMAP
00060000
003FC000
007FF000
00FFFC00
01FFFE00
07FFFE00
0FFFFC00
0FFFFC00
0FFFFC00
07E5FC00
0781FC00
0301F800
0003F800
0003F800
0007F000
0007E000
000FE000
001FC000
001FC000
003F8000
007F0380
007FFF80
00FFFF00
01FFFF00
03FFFE00
03FFFE00
07FFFE00
0FFFFC00
1FFFFC00
3FFFF800
FFFFF800
FFFFF000
7FFF8000
0FF80000
ENDCHAR
STARTCHAR 0033
ENCODING 51
SWIDTH 460 0
DWIDTH 23 0
BBX 23 34 2 0
BITMAP
000FE0
00FFF0
01FFF0
01FFF0
01FFF0
01FFE0
0007E0
000FC0
001F80
003F80
007F00
00FFC0
00FFF0
01FFFC
03FFFC
07FFFE
07FFFE
01FFFE
0000FE
00007E
00007E
00007E
00007E
00007E
0000FE
0001FC
E007FC
FCFFF8
FFFFF0
FFFFF0
7FFFE0
1FFF80
07FF00
01F800
ENDCHAR
STARTCHAR 0034
ENCODING 52
SWIDTH 440 0
DWIDTH 22 0
BBX 21 35 4 -1
BITMAP
001F00
007F00
00FE00
00FE00
01FC00
01FC00
03F800
03F800
07F000
07F000
07E000
0FE000
0FC0F8
1FFFF8
1FFFF8
3FFFF8
3FFFF8
7FFFF8
7FFFF8
FFFFC0
F83E00
807E00
00FE00
00FE00
01FC00
01FC00
03FC00
03FC00
07FC00
07FC00
0FFC00
0FFC00
1FFC00
1FF800
100000
ENDCHAR
STARTCHAR 0035
ENCODING 53
SWIDTH 480 0
DWIDTH 24 0
BBX 25 34 3 0
BITMAP
0000FF80
007FFF80
007FFF80
007FFF80
007FFE00
00FF0000
00FE0000
00FE0000
01FE0000
01FF8000
03FFE000
03FFF000
03FFF000
07FFF800
0FFFFC00
0C0FFC00
0007FC00
0007FE00
0003FE00
0003FE00
0003FE00
0003FE00
0003FE00
0003FE00
8003FE00
C007FC00
E00FF800
F83FF800
FFFFF000
FFFFE000
FFFFC000
7FFF8000
1FFF0000
03FC0000
ENDCHAR
STARTCHAR 0036
ENCODING 54
SWIDTH 480 0
DWIDTH 24 0
BBX 25 36 3 -1
BITMAP
00000400
0000FE00
0001FF00
0007FF80
000FFF80
003FFF80
007FFF00
00FF0000
01FC0000
03F80000
07F00000
0FF00000
0FF00000
1FF80000
1FFFE000
3FFFF000
3FFFF800
3FFFFC00
7FFFFC00
7FFFFE00
7FC3FE00
7FC1FE00
7F80FE00
7F00FE00
7F00FE00
7F01FE00
7E01FE00
7F03FE00
FF03FC00
FF07F800
7FFFF800
7FFFF000
3FFFE000
1FFFC000
0FFF0000
03FC0000
ENDCHAR
STARTCHAR 0037
ENCODING 55
SWIDTH 420 0
DWIDTH 21 0
BBX 26 33 1 1
BITMAP
0000FFC0
01FFFFC0
01FFFFC0
01FFFFC0
03FFFF80
03FFFF80
03FFFF80
03FFFF00
07FFFF00
0700FF00
0600FF00
0001FE00
0003FE00
0007FC00
000FFC00
000FF800
001FF800
003FF000
007FF000
007FE000
00FFE000
01FFC000
03FFC000
03FF8000
07FF8000
0FFF0000
1FFF0000
1FFF0000
3FFE0000
3FFE0000
7FFE0000
FFC00000
F0000000
ENDCHAR
STARTCHAR 0038
ENCODING 56
SWIDTH 500 0
DWIDTH 25 0
BBX 24 35 3 0
BITMAP
0007F0
001FFC
007FFC
00FFFC
00FFFE
01FFFC
01FC7C
01FC7C
01F8FC
01FDF8
00FFF0
00FFE0
01FFF0
03FFF0
07FFF8
0FFFFC
0FFFFC
1FFFFE
1FE3FE
3FC1FE
7F80FF
7F80FF
FF80FF
FF80FF
FF80FE
FFC1FE
FFE7FE
FFFFFE
FFFFFC
7FFFF8
7FFFF0
3FFFE0
1FFFC0
07FF80
00FC00
ENDCHAR
STARTCHAR 0039
ENCODING 57
SWIDTH 460 0
DWIDTH 23 0
BBX 24 34 4 0
BITMAP
000780
01FFF0
03FFFC
07FFFE
0FFFFE
0FFFFF
1FC3FF
1FC0FF
1FC0FE
3F80FE
3F80FE
3F81FE
7F81FE
7FC7FE
7FFFFE
3FFFFC
3FFFFC
1FFFFC
07FFFC
000FF8
0003F8
0003F8
0003F0
0007F0
E00FF0
F01FF0
FEFFE0
FFFFE0
FFFFC0
FFFFC0
FFFF80
7FFF00
3FFE00
030000
ENDCHAR
STARTCHAR 003A
ENCODING 58
SWIDTH 200 0
DWIDTH 10 0
BBX 12 25 2 0
BITMAP
0080
07E0
0FF0
1FF0
1FF0
1FF0
1FF0
1FE0
0FC0
0400
0000
0000
0000
0000
0000
0000
0E00
3F00
7F80
FF80
FF80
FF80
FF00
FF00
7C00
ENDCHAR
STARTCHAR 003B
ENCODING 59
SWIDTH 200 0
DWIDTH 10 0
BBX 16 33 -2 -8
BITMAP
0008
003F
007F
00FF
01FF
01FF
01FF
01FE
00FC
0030
0000
0000
0000
0000
0000
0000
00E0
03F0
07F8
0FF8
0FF8
0FF8
0FF0
0FF0
07E0
07C0
0F80
7F00
FF00
FE00
7C00
3800
1800
ENDCHAR
STARTCHAR 003C
ENCODING 60
SWIDTH 460 0
DWIDTH 23 0
BBX 25 28 4 4
BITMAP
00000080
00000380
00000F80
00003F80
0000FF80
0003FF80
000FFF80
003FFF00
01FFFF00
07FFFF00
3FFFFE00
7FFFF800
7FFF0000
7FF00000
7FC00000
FFF80000
7FFF0000
3FFFE000
1FFFF800
0FFFF800
07FFF800
01FFF800
00FFF000
007FF000
001FF000
000FF000
0007F000
0000F000
ENDCHAR
STARTCHAR 003D
ENCODING 61
SWIDTH 480 0
DWIDTH 24 0
BBX 26 19 3 8
BITMAP
00003C00
1FFFFFC0
1FFFFF80
1FFFFF80
1FFFFF80
1FFFFF80
3FFFFF80
1FF00000
00000000
00000000
00000000
001FFE00
7FFFFE00
7FFFFE00
7FFFFE00
FFFFFE00
FFFFFC00
FFFFFC00
09000000
ENDCHAR
STARTCHAR 003E
ENCODING 62
SWIDTH 460 0
DWIDTH 23 0
BBX 25 27 2 3
BITMAP
07800000
07F00000
07F80000
07FE0000
07FF0000
07FF8000
07FFE000
0FFFF000
0FFFF800
0FFFFC00
03FFFE00
007FFF80
000FFF80
0001FF80
0003FF80
003FFF00
07FFFF00
3FFFFF00
3FFFF800
7FFFC000
7FFF0000
7FFC0000
7FF00000
FF800000
FE000000
F8000000
E0000000
ENDCHAR
STARTCHAR 003F
ENCODING 63
SWIDTH 460 0
DWIDTH 23 0
BBX 23 36 6 -1
BITMAP
00FC00
07FFF8
0FFFFC
1FFFFC
3FFFFE
3FFFFE
7FFFFE
7FFFFC
7F07FC
3C03FC
1003FC
0007FC
0007F8
0007F8
001FF0
007FF0
03FFE0
07FFC0
0FFF00
0FFC00
1FF800
1FE000
1FE000
1FC000
1FC000
000000
000000
000000
070000
3F8000
7F8000
7FC000
FFC000
7F8000
7F0000
3E0000
ENDCHAR
STARTCHAR 0040
ENCODING 64
SWIDTH 660 0
DWIDTH 33 0
BBX 34 43 3 -7
BITMAP
00003FE000
0003FFF800
000FFFFE00
003FFFFF00
007FFFFF00
00FFFFFF80
01FFFFFF80
03FFFFFF80
03FFFFFF80
07FFFFFF80
0FFF00FF80
0FFC007F80
1FF801FFC0
1FF01FFFC0
1FE07FFFC0
3FC0FFFFC0
3FC1FFFFC0
3FC3F87F80
7FC7F07F80
7F87E03F80
7F87E07F80
7F8FC07F00
7F8FC07F00
7F8FC0FF00
FF0FE3FE00
FF0FFFFE00
FF0FFFFC00
FF07FFF800
FF07FFE000
FF03FF8000
FF80FE0000
FF80000000
FF80000000
FFC0038000
FFE1FFC000
FFFFFFC000
FFFFFFE000
FFFFFFE000
7FFFFF8000
7FFFFF0000
3FFFFE0000
1FFFF80000
03FFE00000
ENDCHAR
STARTCHAR 0041
ENCODING 65
SWIDTH 620 0
DWIDTH 31 0
BBX 30 35 1 -1
BITMAP
00000180
00000FC0
00000FC0
00001FC0
00003FC0
00003FC0
00007FC0
00007FC0
0000FFC0
0000FFC0
0001FFC0
0003FFC0
0003FFC0
0007FFC0
0007FFE0
000FFFE0
001FFFE0
001FFFE0
003F7FE0
007E3FE0
007C3FE0
00F83FE0
01F03FE0
01FFFFE0
03FFFFF0
07FFFFF0
07FFFFF0
0FFC7FF0
1FF07FF0
1FE07FF8
3FC07FF8
7FC07FF8
7FC07FF8
FFC07FFC
FE002000
ENDCHAR
STARTCHAR 0042
ENCODING 66
SWIDTH 520 0
DWIDTH 26 0
BBX 23 34 5 0
BITMAP
03FF80
1FFFE0
1FFFF0
3FFFF8
3FFFF8
3FFFF8
3FFFFC
3FEFFC
3FC3FC
3FC1F8
3FC1F8
3FC1F0
3FC3F0
3FE7E0
3FFFC0
3FFF80
3FFFC0
7FFFF0
7FFFF8
7FFFFC
7FE3FC
7FC1FC
7FC3FE
7FC3FC
7FC7FC
7FCFFC
FFDFF8
FFFFF8
FFFFF0
FFFFC0
FFFFC0
FFFF00
FFF000
1C0000
ENDCHAR
STARTCHAR 0043
ENCODING 67
SWIDTH 480 0
DWIDTH 24 0
BBX 26 33 4 0
BITMAP
0001F800
000FFF00
007FFF80
00FFFFC0
01FFFFC0
07FFFFC0
07FFFFC0
0FFFFF80
1FFFFF80
1FFFF500
3FFE0000
3FF80000
7FF00000
7FE00000
7FE00000
7FE00000
7FE00000
FFE00000
FFE00400
FFF9FC00
FFFFFC00
FFFFFC00
FFFFFC00
FFFFFC00
FFFFF800
FFFFF800
FFFFF800
7FFFF800
7FFFF000
7FFFC000
3FFFC000
3FFF0000
07FC0000
ENDCHAR
STARTCHAR 0044
ENCODING 68
SWIDTH 460 0
DWIDTH 23 0
BBX 22 34 5 0
BITMAP
07F800
1FFE00
3FFFC0
3FFFC0
3FFFE0
3FFFF0
3FFFF0
7FFFF8
7FFFF8
7FE7F8
7FC1FC
7FC0FC
7F81FC
7F81FC
7F81FC
FF83F8
FF83F8
FF87F0
FF8FE0
FF9FE0
FFFFC0
FFFF80
FFFF80
FFFF00
FFFE00
FFFC00
FFFC00
FFF800
FFF000
FFC000
FF8000
FE0000
F00000
400000
ENDCHAR
STARTCHAR 0045
ENCODING 69
SWIDTH 480 0
DWIDTH 24 0
BBX 20 35 6 0
BITMAP
01FF00
0FFFF0
3FFFF0
3FFFE0
3FFFE0
3FFFC0
3FFFC0
3FFFC0
3FFF80
3FFF80
3FFF00
3FC000
3FC000
3FC000
3FC700
3FFF00
3FFE00
3FFE00
3FFE00
3FFA00
3FC000
7FC000
7FFFE0
7FFFE0
7FFFE0
7FFFE0
7FFFE0
7FFFE0
7FFFE0
7FFFE0
FFFFE0
FFFFC0
FFFC00
FFC000
780000
ENDCHAR
STARTCHAR 0046
ENCODING 70
SWIDTH 500 0
DWIDTH 25 0
BBX 29 35 2 0
BITMAP
0000FFF0
007FFFF8
03FFFFF8
07FFFFF8
07FFFFF8
07FFFFF0
07FFFFF0
07FFFC70
0FFF0000
0FFC0000
0FF80000
0FF80000
0FF80000
0FFBC000
1FFFC000
1FFFC000
1FFF8000
1FFF8000
3FFF8000
3FFF8000
3FE10000
3FE00000
3FC00000
7FC00000
7FC00000
7FC00000
7F800000
7F800000
FF800000
FF800000
FF800000
FF800000
FF800000
FFC00000
FC000000
ENDCHAR
STARTCHAR 0047
ENCODING 71
SWIDTH 500 0
DWIDTH 25 0
BBX 27 33 3 0
BITMAP
0003FE00
0007FF80
001FFFC0
001FFFC0
007FFFE0
007FFFE0
00FFFFC0
01FF9F80
03FC0000
03F80000
07F00000
07E00000
0FE00000
0FC00000
1FC01FC0
1F83FF80
1F83FF80
3F83FF80
3F83FF00
7F83FF00
7F83FF00
7F83FF00
FF87FF00
FFFFFE00
FFFFFE00
FFFFFE00
FFFFFE00
FFFFF800
FFFFF000
FFFFC000
7FFF0000
3FFC0000
1FE00000
ENDCHAR
STARTCHAR 0048
ENCODING 72
SWIDTH 560 0
DWIDTH 28 0
BBX 33 33 1 1
BITMAP
0001F00000
003FF83F80
007FF07F80
007FE0FF80
007FF0FF80
007FE0FF00
007FE1FF00
007FE1FF00
00FFC3FE00
00FFC3FE00
00FFC3FE00
01FFC3FE00
01FFC7FC00
01FFFFFC00
03FFFFFC00
03FFFFF800
03FFFFF800
07FFFFF800
07FFFFF000
07FFFFF800
07FFFFF800
0FFFFFF800
0FFEFFF000
0FFC3FF000
1FFC3FF000
1FFC3FE000
1FFC7FE000
1FF87FE000
3FF87FC000
3FF8FFC000
7FF87FC000
7FF0FF8000
FFF1F80000
ENDCHAR
STARTCHAR 0049
ENCODING 73
SWIDTH 320 0
DWIDTH 16 0
BBX 22 34 1 0
BITMAP
000FE0
001FFC
003FF8
003FF8
003FF0
003FF0
007FF0
007FE0
00FFE0
00FFE0
00FFC0
00FFC0
01FFC0
01FFC0
01FF80
03FF80
03FF80
03FF80
07FF00
07FF00
07FF00
07FF00
0FFE00
0FFE00
0FFE00
0FFE00
1FFE00
1FFE00
1FFC00
3FF800
3FF800
3FF800
7FE000
FC0000
ENDCHAR
STARTCHAR 004A
ENCODING 74
SWIDTH 460 0
DWIDTH 23 0
BBX 26 34 2 0
BITMAP
0000F1C0
0000FFC0
0001FFC0
0001FFC0
0003FFC0
0003FFC0
0007FFC0
0007FF80
0007FF80
000FFF80
000FFF80
000FFF80
000FFF80
000FFF80
001FFF00
001FFF00
001FFF00
001FFF00
001FFF00
000FFE00
000FFE00
000FFE00
000FFC00
3F8FFC00
7F8FF800
7F9FF800
FFDFF000
FFFFF000
7FFFE000
7FFFC000
7FFF8000
3FFF0000
0FFC0000
03F80000
ENDCHAR
STARTCHAR 004B
ENCODING 75
SWIDTH 540 0
DWIDTH 27 0
BBX 32 35 1 0
BITMAP
00000010
01FFF038
01FFF078
01FFF0FC
01FFF1FF
01FFE3FE
01FFE7FE
03FFE7FC
03FFEFF8
03FFFFF0
03FFDFE0
07FFFFC0
07FFFF80
07FFFF00
07FFFE00
0FFFFE00
0FFFFC00
0FFFF800
1FFFF000
1FFFF000
1FFFF800
1FFFFC00
3FFFFC00
3FFFFE00
3FFFFF00
3FFFFF00
3FFEFF80
7FFCFF80
7FFC7FC0
7FFC7FC0
7FFC3FC0
7FFC3FC0
7FFC3FC0
FFF81C00
00E01800
ENDCHAR
STARTCHAR 004C
ENCODING 76
SWIDTH 500 0
DWIDTH 25 0
BBX 25 35 1 -1
BITMAP
0001FF00
000FFF00
001FFF00
003FFE00
003FFE00
003FFE00
003FFC00
007FFC00
007FF800
007FF800
00FFF800
00FFF000
00FFF000
00FFF000
01FFE000
01FFE000
03FFC000
03FFC000
07FFC000
07FF8000
07FF8000
0FFF8000
0FFF0000
0FFF0000
1FFFFF80
1FFFFF80
1FFFFF80
1FFFFF00
3FFFFF00
3FFFFF00
3FFFFF00
3FFFFF00
7FFFF000
7FE00000
C0000000
ENDCHAR
STARTCHAR 004D
ENCODING 77
SWIDTH 640 0
DWIDTH 32 0
BBX 33 34 1 0
BITMAP
001C000180
001E000380
001E000780
001E000F80
003F001F80
003F001F80
003F803F80
007F807F80
007FC0FF80
00FFC0FF80
00FFC1FF80
00FFE3FF80
01FFE7FF80
01FFFFFF80
01FFFFFF80
03FFFFFF00
03FFFFFF00
03FFFFFF00
07FFFFFF00
07FF7FFF00
07FE7BFF00
0FFE37FF00
0FFC07FF00
1FF807FF00
1FF807FF00
1FF00FFF00
3FF00FFF00
3FE00FFE00
3FE01FFE00
7FC01FFE00
7FC01FFE00
FF801FFE00
FF801FF800
FF00000000
ENDCHAR
STARTCHAR 004E
ENCODING 78
SWIDTH 560 0
DWIDTH 28 0
BBX 33 33 1 0
BITMAP
001FE03F00
003FF0FF80
007FF1FF80
007FE1FF80
007FE1FF00
00FFE1FF00
00FFE3FF00
01FFE3FE00
01FFE3FE00
01FFE3FE00
03FFE7FC00
03FFE7FC00
03FFE7FC00
07FFE7F800
07FFEFF800
07FFEFF800
0FFFEFF000
0FFFFFF000
0FFFFFF000
0FFFFFF000
1FFBFFE000
1FFBFFE000
1FF9FFE000
1FF1FFE000
3FF1FFC000
3FF1FFC000
3FF1FFC000
7FE1FF8000
7FE1FF8000
7FE1FF8000
FFE1FF8000
FFC1FF0000
F000000000
ENDCHAR
STARTCHAR 004F
ENCODING 79
SWIDTH 520 0
DWIDTH 26 0
BBX 26 35 4 0
BITMAP
000E0000
001F8000
003FE000
007FF000
00FFF800
01FFFC00
01FFFE00
03FFFF00
07FFFF00
07FFFF00
0FFFFF80
1FFFFF80
1FFFFF80
3FF1FF80
3FE0FFC0
7FE0FFC0
7FC0FFC0
FFC0FFC0
FFC0FFC0
FFC1FF80
FFC1FF80
FFE3FF80
FFFFFF80
FFFFFF00
FFFFFF00
FFFFFE00
FFFFFE00
FFFFFC00
7FFFFC00
7FFFF800
7FFFF800
3FFFF000
1FFFE000
0FFF8000
03FE0000
ENDCHAR
STARTCHAR 0050
ENCODING 80
SWIDTH 480 0
DWIDTH 24 0
BBX 28 34 1 0
BITMAP
000FF800
007FFF00
00FFFFC0
00FFFFC0
00FFFFE0
00FFFFE0
01FFFFE0
01FF3FE0
01FE07E0
01FE07F0
03FE07E0
03FE07E0
03FE0FE0
07FE1FE0
07FF1FE0
07FFFFE0
07FFFFC0
0FFFFF80
0FFFFF00
0FFFFE00
1FFFF000
1FFE0000
1FFE0000
3FFC0000
3FFC0000
3FFC0000
7FFC0000
7FFC0000
7FFC0000
7FF80000
7FF80000
FFF80000
FFF80000
FFF80000
ENDCHAR
STARTCHAR 0051
ENCODING 81
SWIDTH 620 0
DWIDTH 31 0
BBX 26 37 4 -2
BITMAP
0001C000
003FF000
007FF800
00FFFC00
01FFFE00
03FFFE00
07FFFF00
07FFFF80
0FFFFF80
0FFFFFC0
1FF0FFC0
1FE07FC0
1FE07FC0
3FE03FC0
3FC03FC0
7FC03FC0
7FC03FC0
7FC07F80
FFC07F80
FFC07F80
FFF1FF00
FFFFFF00
FFFFFF00
FFFFFE00
FFFFFE00
FFFFFC00
FFFFFC00
FFFFFC00
FFFFFE00
7FFFFE00
3FFFFF00
3FFFFF00
0FFFFF80
03FFFFC0
0003FFC0
0003FFC0
00018000
ENDCHAR
STARTCHAR 0052
ENCODING 82
SWIDTH 580 0
DWIDTH 29 0
BBX 26 35 4 -1
BITMAP
001FE000
03FFF800
0FFFFE00
1FFFFF00
1FFFFF80
1FFE7F80
1FFC0F80
1FFC0FC0
1FFC0FC0
3FFC0FC0
3FFC0F80
3FFC1F80
3FFC3F80
3FFEFF00
3FFFFF00
3FFFFE00
3FFFFC00
7FFFE000
7FFFE000
7FFFF000
7FFFF000
7FFFF800
7FFFF800
FFF3F800
FFF3FC00
FFF3FC00
FFF1FE00
FFF1FE00
FFF1FE00
FFF1FF00
FFF0FF00
FFF0FF80
FFE0FF80
FFE0FC00
7F000000
ENDCHAR
STARTCHAR 0053
ENCODING 83
SWIDTH 500 0
DWIDTH 25 0
BBX 29 35 2 -1
BITMAP
00003000
0003FFF8
001FFFF8
003FFFF0
007FFFF0
007FFFE0
00FFFFC0
00FFFFC0
01FFFF80
03FFFF80
03FFFF00
07FFFE00
07FFFE00
07FC1C00
07F80400
07FE0000
07FF8000
03FFE000
03FFF800
01FFFE00
007FFE00
000FFE00
0003FE00
0001FE00
0001FF00
3807FE00
7EFFFE00
FFFFFE00
FFFFFC00
FFFFFC00
FFFFF800
7FFFF000
7FFFC000
1FFF8000
0FFE0000
ENDCHAR
STARTCHAR 0054
ENCODING 84
SWIDTH 560 0
DWIDTH 28 0
BBX 28 34 6 0
BITMAP
000DC380
3FFFFFE0
3FFFFFF0
3FFFFFF0
3FFFFFF0
7FFFFFF0
7FFFFFF0
7FFFFFF0
FFFFFFE0
FFFFFFC0
FFBFF000
F83FE000
003FC000
003F8000
007F8000
007F8000
007F0000
007F0000
00FF0000
00FF0000
00FE0000
00FE0000
01FE0000
01FE0000
01FC0000
01FC0000
03FC0000
03FC0000
03FC0000
03F80000
03F80000
07F80000
07F80000
07F00000
ENDCHAR
STARTCHAR 0055
ENCODING 85
SWIDTH 540 0
DWIDTH 27 0
BBX 29 33 4 1
BITMAP
01F803F0
01FC07F8
03FC07F8
03F807F8
07F807F8
07F807F0
0FF007F0
0FF00FF0
0FF00FF0
1FE00FF0
1FE01FE0
3FE01FE0
3FE01FE0
3FC03FE0
7FC03FE0
7FC07FE0
7FC07FC0
7FE07FC0
FFF0FFC0
FFFFFF80
FFFFFF80
FFFFFF00
FFFFFF00
FFFFFE00
FFFFFC00
FFFFFC00
FFFFF800
7FFFF000
7FFFE000
7FFFC000
3FFF8000
1FFF0000
03FC0000
ENDCHAR
STARTCHAR 0056
ENCODING 86
SWIDTH 580 0
DWIDTH 29 0
BBX 28 32 8 1
BITMAP
C0000FF0
FC007FF0
FFE07FE0
7FF07FE0
7FF07FE0
7FF0FFC0
7FF0FFC0
7FF0FF80
7FF1FF80
7FF1FF80
7FF1FF00
3FF1FF00
3FF3FE00
3FF3FE00
3FF7FC00
1FF7FC00
1FFFF800
1FFFF800
0FFFF000
0FFFF000
07FFF000
07FFE000
07FFE000
03FFC000
03FFC000
01FFC000
01FF8000
00FF8000
00FF0000
007F0000
007F0000
003C0000
ENDCHAR
STARTCHAR 0057
ENCODING 87
SWIDTH 720 0
DWIDTH 36 0
BBX 35 35 7 0
BITMAP
0000000800
3A00000C20
7FC0001FE0
7FC0703FE0
FFC0F03FC0
FFC0F07FC0
FFC0F07F80
FFE0F0FF80
FFE1F1FF00
FFE1F1FF00
FFE1FBFE00
FFE3FBFE00
7FF3FBFE00
7FF7FFFE00
7FF7FFFC00
7FFFFFFC00
7FFFFFF800
3FFFFFF800
3FFFFFF800
3FFFFFF000
3FFFFFF000
1FFEFFE000
1FFEFFE000
1FFCFFC000
1FFCFFC000
0FF8FFC000
0FF87FC000
0FF07F8000
07E07F8000
07E07F0000
07E07F0000
03C07E0000
03C07C0000
0380000000
0100000000
ENDCHAR
STARTCHAR 0058
ENCODING 88
SWIDTH 560 0
DWIDTH 28 0
BBX 32 33 3 1
BITMAP
000000FF
03FC00FF
07FC01FF
0FFC03FE
0FFC07FE
0FFE07FC
0FFE0FF8
0FFE1FF0
0FFE1FF0
0FFF3FE0
07FF3FE0
07FF7FC0
03FFFF80
01FFFF80
01FFFF00
00FFFE00
00FFFE00
007FFC00
007FF800
007FF800
00FFF800
01FFFC00
03FFFC00
07FFFC00
07FFFC00
0FFBFC00
1FF3FC00
1FF1FE00
3FF1FE00
7FE0FE00
7FE0FE00
FFC06000
FF800000
ENDCHAR
STARTCHAR 0059
ENCODING 89
SWIDTH 600 0
DWIDTH 30 0
BBX 30 34 7 0
BITMAP
000003FC
038007F8
3F8007F0
FFC00FF0
FFC01FE0
FFC01FE0
7FC03FC0
7FE07F80
7FE0FF80
3FE0FF00
3FE1FE00
3FF3FC00
1FF7FC00
1FF7F800
1FFFF000
1FFFF000
0FFFE000
0FFFC000
0FFFC000
07FF8000
07FF0000
07FF0000
03FE0000
03FC0000
03FC0000
03FC0000
03FC0000
03FC0000
03FC0000
07FC0000
07FC0000
07FC0000
07F80000
07E00000
ENDCHAR
STARTCHAR 005A
ENCODING 90
SWIDTH 600 0
DWIDTH 30 0
BBX 26 34 6 0
BITMAP
003FFFC0
03FFFFC0
0FFFFF80
1FFFFF00
3FFFFE00
7FFFFC00
7FFFF800
FFFFF800
FFAFF000
000FE000
001FE000
003FC000
003F8000
007F8000
007F0000
00FF0000
00FE0000
01FE0000
03FC0000
03FC0000
07F80000
07F80000
0FF80000
0FE00000
1FE06180
1FFFFF80
3FFFFF80
7FFFFF80
7FFFFF00
7FFFFE00
FFFFFC00
07FFF800
01FFE000
000E0000
ENDCHAR
STARTCHAR 005B
ENCODING 91
SWIDTH 340 0
DWIDTH 17 0
BBX 25 47 0 -6
BITMAP
003FFF80
007FFF80
007FFF80
007FFF80
007FFF00
00FFFF00
00FFC000
00FE0000
00FE0000
00FE0000
00FE0000
01FC0000
01FC0000
01FC0000
03FC0000
03FC0000
03F80000
03F80000
03F80000
07F80000
07F80000
07F80000
07F00000
0FF00000
0FF00000
0FE00000
0FE00000
0FE00000
1FE00000
1FE00000
1FE00000
1FC00000
1FC00000
3FC00000
3FC00000
3F800000
3F800000
7F800000
7F800000
7F800000
7FFF8000
FFFF8000
FFFF0000
FFFF0000
FFFF0000
FFFF0000
FFFE0000
ENDCHAR
STARTCHAR 005C
ENCODING 92
SWIDTH 440 0
DWIDTH 22 0
BBX 14 40 8 -2
BITMAP
7F80
FF80
FFC0
FFC0
FFC0
FFC0
7FC0
7FC0
7FC0
7FC0
7FC0
7FC0
7FE0
7FE0
3FE0
3FE0
3FE0
3FE0
3FE0
1FE0
1FE0
1FE0
1FF0
0FF0
0FF0
0FF0
0FF0
0FF0
0FF0
07F0
07F8
07F8
07F8
03F8
03F8
03F8
03FC
01FC
01CC
0080
ENDCHAR
STARTCHAR 005D
ENCODING 93
SWIDTH 340 0
DWIDTH 17 0
BBX 25 48 0 -7
BITMAP
00000C00
007FFF80
007FFF80
007FFF80
007FFF80
00FFFF00
00FFFF00
007EFF00
0000FF00
0000FF00
0000FE00
0000FE00
0001FE00
0001FE00
0001FC00
0001FC00
0003FC00
0003FC00
0003F800
0003F800
0003F800
0003F800
0007F800
0007F000
0007F000
000FF000
000FF000
000FF000
000FE000
000FE000
000FE000
001FE000
001FC000
001FC000
001FC000
003FC000
003F8000
003F8000
003F8000
003F8000
007F8000
07FF8000
FFFF0000
FFFF0000
FFFF0000
FFFF0000
FFFF0000
FFFE0000
ENDCHAR
STARTCHAR 005E
ENCODING 94
SWIDTH 480 0
DWIDTH 24 0
BBX 24 20 4 16
BITMAP
0003E0
0007E0
000FF0
001FF0
001FF0
003FF0
007FF0
00FFF8
01FDF8
03FDF8
03F9F8
07F9FC
0FF1FC
1FF1FC
1FE1FE
3FE1FE
3FC1FE
7FC1FE
7F81FF
E001FC
ENDCHAR
STARTCHAR 005F
ENCODING 95
SWIDTH 380 0
DWIDTH 19 0
BBX 19 6 0 -6
BITMAP
7FFFE0
FFFFC0
FFFFC0
FFFFC0
FFFFC0
FFFF80
ENDCHAR
STARTCHAR 0060
ENCODING 96
SWIDTH 220 0
DWIDTH 11 0
BBX 9 8 10 35
BITMAP
FE00
FE00
7E00
7F00
3F00
1F00
1F80
0800
ENDCHAR
STARTCHAR 0061
ENCODING 97
SWIDTH 620 0
DWIDTH 31 0
BBX 30 35 1 -1
BITMAP
00000180
00000FC0
00000FC0
00001FC0
00003FC0
00003FC0
00007FC0
00007FC0
0000FFC0
0000FFC0
0001FFC0
0003FFC0
0003FFC0
0007FFC0
0007FFE0
000FFFE0
001FFFE0
001FFFE0
003F7FE0
007E3FE0
007C3FE0
00F83FE0
01F03FE0
01FFFFE0
03FFFFF0
07FFFFF0
07FFFFF0
0FFC7FF0
1FF07FF0
1FE07FF8
3FC07FF8
7FC07FF8
7FC07FF8
FFC07FFC
FE002000
ENDCHAR
STARTCHAR 0062
ENCODING 98
SWIDTH 520 0
DWIDTH 26 0
BBX 23 34 5 0
BITMAP
03FF80
1FFFE0
1FFFF0
3FFFF8
3FFFF8
3FFFF8
3FFFFC
3FEFFC
3FC3FC
3FC1F8
3FC1F8
3FC1F0
3FC3F0
3FE7E0
3FFFC0
3FFF80
3FFFC0
7FFFF0
7FFFF8
7FFFFC
7FE3FC
7FC1FC
7FC3FE
7FC3FC
7FC7FC
7FCFFC
FFDFF8
FFFFF8
FFFFF0
FFFFC0
FFFFC0
FFFF00
FFF000
1C0000
ENDCHAR
STARTCHAR 0063
ENCODING 99
SWIDTH 480 0
DWIDTH 24 0
BBX 26 33 4 0
BITMAP
0001F800
000FFF00
007FFF80
00FFFFC0
01FFFFC0
07FFFFC0
07FFFFC0
0FFFFF80
1FFFFF80
1FFFF500
3FFE0000
3FF80000
7FF00000
7FE00000
7FE00000
7FE00000
7FE00000
FFE00000
FFE00400
FFF9FC00
FFFFFC00
FFFFFC00
FFFFFC00
FFFFFC00
FFFFF800
FFFFF800
FFFFF800
7FFFF800
7FFFF000
7FFFC000
3FFFC000
3FFF0000
07FC0000
ENDCHAR
STARTCHAR 0064
ENCODING 100
SWIDTH 460 0
DWIDTH 23 0
BBX 22 34 5 0
BITMAP
07F800
1FFE00
3FFFC0
3FFFC0
3FFFE0
3FFFF0
3FFFF0
7FFFF8
7FFFF8
7FE7F8
7FC1FC
7FC0FC
7F81FC
7F81FC
7F81FC
FF83F8
FF83F8
FF87F0
FF8FE0
FF9FE0
FFFFC0
FFFF80
FFFF80
FFFF00
FFFE00
FFFC00
FFFC00
FFF800
FFF000
FFC000
FF8000
FE0000
F00000
400000
ENDCHAR
STARTCHAR 0065
ENCODING 101
SWIDTH 480 0
DWIDTH 24 0
BBX 20 35 6 0
BITMAP
01FF00
0FFFF0
3FFFF0
3FFFE0
3FFFE0
3FFFC0
3FFFC0
3FFFC0
3FFF80
3FFF80
3FFF00
3FC000
3FC000
3FC000
3FC700
3FFF00
3FFE00
3FFE00
3FFE00
3FFA00
3FC000
7FC000
7FFFE0
7FFFE0
7FFFE0
7FFFE0
7FFFE0
7FFFE0
7FFFE0
7FFFE0
FFFFE0
FFFFC0
FFFC00
FFC000
780000
ENDCHAR
STARTCHAR 0066
ENCODING 102
SWIDTH 500 0
DWIDTH 25 0
BBX 29 35 2 0
BITMAP
0000FFF0
007FFFF8
03FFFFF8
07FFFFF8
07FFFFF8
07FFFFF0
07FFFFF0
07FFFC70
0FFF0000
0FFC0000
0FF80000
0FF80000
0FF80000
0FFBC000
1FFFC000
1FFFC000
1FFF8000
1FFF8000
3FFF8000
3FFF8000
3FE10000
3FE00000
3FC00000
7FC00000
7FC00000
7FC00000
7F800000
7F800000
FF800000
FF800000
FF800000
FF800000
FF800000
FFC00000
FC000000
ENDCHAR
STARTCHAR 0067
ENCODING 103
SWIDTH 500 0
DWIDTH 25 0
BBX 27 33 3 0
BITMAP
0003FE00
0007FF80
001FFFC0
001FFFC0
007FFFE0
007FFFE0
00FFFFC0
01FF9F80
03FC0000
03F80000
07F00000
07E00000
0FE00000
0FC00000
1FC01FC0
1F83FF80
1F83FF80
3F83FF80
3F83FF00
7F83FF00
7F83FF00
7F83FF00
FF87FF00
FFFFFE00
FFFFFE00
FFFFFE00
FFFFFE00
FFFFF800
FFFFF000
FFFFC000
7FFF0000
3FFC0000
1FE00000
ENDCHAR
STARTCHAR 0068
ENCODING 104
SWIDTH 560 0
DWIDTH 28 0
BBX 33 33 1 1
BITMAP
0001F00000
003FF83F80
007FF07F80
007FE0FF80
007FF0FF80
007FE0FF00
007FE1FF00
007FE1FF00
00FFC3FE00
00FFC3FE00
00FFC3FE00
01FFC3FE00
01FFC7FC00
01FFFFFC00
03FFFFFC00
03FFFFF800
03FFFFF800
07FFFFF800
07FFFFF000
07FFFFF800
07FFFFF800
0FFFFFF800
0FFEFFF000
0FFC3FF000
1FFC3FF000
1FFC3FE000
1FFC7FE000
1FF87FE000
3FF87FC000
3FF8FFC000
7FF87FC000
7FF0FF8000
FFF1F80000
ENDCHAR
STARTCHAR 0069
ENCODING 105
SWIDTH 320 0
DWIDTH 16 0
BBX 22 34 1 0
BITMAP
000FE0
001FFC
003FF8
003FF8
003FF0
003FF0
007FF0
007FE0
00FFE0
00FFE0
00FFC0
00FFC0
01FFC0
01FFC0
01FF80
03FF80
03FF80
03FF80
07FF00
07FF00
07FF00
07FF00
0FFE00
0FFE00
0FFE00
0FFE00
1FFE00
1FFE00
1FFC00
3FF800
3FF800
3FF800
7FE000
FC0000
ENDCHAR
STARTCHAR 006A
ENCODING 106
SWIDTH 460 0
DWIDTH 23 0
BBX 26 34 2 0
BITMAP
0000F1C0
0000FFC0
0001FFC0
0001FFC0
0003FFC0
0003FFC0
0007FFC0
0007FF80
0007FF80
000FFF80
000FFF80
000FFF80
000FFF80
000FFF80
001FFF00
001FFF00
001FFF00
001FFF00
001FFF00
000FFE00
000FFE00
000FFE00
000FFC00
3F8FFC00
7F8FF800
7F9FF800
FFDFF000
FFFFF000
7FFFE000
7FFFC000
7FFF8000
3FFF0000
0FFC0000
03F80000
ENDCHAR
STARTCHAR 006B
ENCODING 107
SWIDTH 540 0
DWIDTH 27 0
BBX 32 35 1 0
BITMAP
00000010
01FFF038
01FFF078
01FFF0FC
01FFF1FF
01FFE3FE
01FFE7FE
03FFE7FC
03FFEFF8
03FFFFF0
03FFDFE0
07FFFFC0
07FFFF80
07FFFF00
07FFFE00
0FFFFE00
0FFFFC00
0FFFF800
1FFFF000
1FFFF000
1FFFF800
1FFFFC00
3FFFFC00
3FFFFE00
3FFFFF00
3FFFFF00
3FFEFF80
7FFCFF80
7FFC7FC0
7FFC7FC0
7FFC3FC0
7FFC3FC0
7FFC3FC0
FFF81C00
00E01800
ENDCHAR
STARTCHAR 006C
ENCODING 108
SWIDTH 500 0
DWIDTH 25 0
BBX 25 35 1 -1
BITMAP
0001FF00
000FFF00
001FFF00
003FFE00
003FFE00
003FFE00
003FFC00
007FFC00
007FF800
007FF800
00FFF800
00FFF000
00FFF000
00FFF000
01FFE000
01FFE000
03FFC000
03FFC000
07FFC000
07FF8000
07FF8000
0FFF8000
0FFF0000
0FFF0000
1FFFFF80
1FFFFF80
1FFFFF80
1FFFFF00
3FFFFF00
3FFFFF00
3FFFFF00
3FFFFF00
7FFFF000
7FE00000
C0000000
ENDCHAR
STARTCHAR 006D
ENCODING 109
SWIDTH 640 0
DWIDTH 32 0
BBX 33 34 1 0
BITMAP
001C000180
001E000380
001E000780
001E000F80
003F001F80
003F001F80
003F803F80
007F807F80
007FC0FF80
00FFC0FF80
00FFC1FF80
00FFE3FF80
01FFE7FF80
01FFFFFF80
01FFFFFF80
03FFFFFF00
03FFFFFF00
03FFFFFF00
07FFFFFF00
07FF7FFF00
07FE7BFF00
0FFE37FF00
0FFC07FF00
1FF807FF00
1FF807FF00
1FF00FFF00
3FF00FFF00
3FE00FFE00
3FE01FFE00
7FC01FFE00
7FC01FFE00
FF801FFE00
FF801FF800
FF00000000
ENDCHAR
STARTCHAR 006E
ENCODING 110
SWIDTH 560 0
DWIDTH 28 0
BBX 33 33 1 0
BITMAP
001FE03F00
003FF0FF80
007FF1FF80
007FE1FF80
007FE1FF00
00FFE1FF00
00FFE3FF00
01FFE3FE00
01FFE3FE00
01FFE3FE00
03FFE7FC00
03FFE7FC00
03FFE7FC00
07FFE7F800
07FFEFF800
07FFEFF800
0FFFEFF000
0FFFFFF000
0FFFFFF000
0FFFFFF000
1FFBFFE000
1FFBFFE000
1FF9FFE000
1FF1FFE000
3FF1FFC000
3FF1FFC000
3FF1FFC000
7FE1FF8000
7FE1FF8000
7FE1FF8000
FFE1FF8000
FFC1FF0000
F000000000
ENDCHAR
STARTCHAR 006F
ENCODING 111
SWIDTH 520 0
DWIDTH 26 0
BBX 26 35 4 0
BITMAP
000E0000
001F8000
003FE000
007FF000
00FFF800
01FFFC00
01FFFE00
03FFFF00
07FFFF00
07FFFF00
0FFFFF80
1FFFFF80
1FFFFF80
3FF1FF80
3FE0FFC0
7FE0FFC0
7FC0FFC0
FFC0FFC0
FFC0FFC0
FFC1FF80
FFC1FF80
FFE3FF80
FFFFFF80
FFFFFF00
FFFFFF00
FFFFFE00
FFFFFE00
FFFFFC00
7FFFFC00
7FFFF800
7FFFF800
3FFFF000
1FFFE000
0FFF8000
03FE0000
ENDCHAR
STARTCHAR 0070
ENCODING 112
SWIDTH 480 0
DWIDTH 24 0
BBX 28 34 1 0
BITMAP
000FF800
007FFF00
00FFFFC0
00FFFFC0
00FFFFE0
00FFFFE0
01FFFFE0
01FF3FE0
01FE07E0
01FE07F0
03FE07E0
03FE07E0
03FE0FE0
07FE1FE0
07FF1FE0
07FFFFE0
07FFFFC0
0FFFFF80
0FFFFF00
0FFFFE00
1FFFF000
1FFE0000
1FFE0000
3FFC0000
3FFC0000
3FFC0000
7FFC0000
7FFC0000
7FFC0000
7FF80000
7FF80000
FFF80000
FFF80000
FFF80000
ENDCHAR
STARTCHAR 0071
ENCODING 113
SWIDTH 620 0
DWIDTH 31 0
BBX 26 37 4 -2
BITMAP
0001C000
003FF000
007FF800
00FFFC00
01FFFE00
03FFFE00
07FFFF00
07FFFF80
0FFFFF80
0FFFFFC0
1FF0FFC0
1FE07FC0
1FE07FC0
3FE03FC0
3FC03FC0
7FC03FC0
7FC03FC0
7FC07F80
FFC07F80
FFC07F80
FFF1FF00
FFFFFF00
FFFFFF00
FFFFFE00
FFFFFE00
FFFFFC00
FFFFFC00
FFFFFC00
FFFFFE00
7FFFFE00
3FFFFF00
3FFFFF00
0FFFFF80
03FFFFC0
0003FFC0
0003FFC0
00018000
ENDCHAR
STARTCHAR 0072
ENCODING 114
SWIDTH 580 0
DWIDTH 29 0
BBX 26 35 4 -1
BITMAP
001FE000
03FFF800
0FFFFE00
1FFFFF00
1FFFFF80
1FFE7F80
1FFC0F80
1FFC0FC0
1FFC0FC0
3FFC0FC0
3FFC0F80
3FFC1F80
3FFC3F80
3FFEFF00
3FFFFF00
3FFFFE00
3FFFFC00
7FFFE000
7FFFE000
7FFFF000
7FFFF000
7FFFF800
7FFFF800
FFF3F800
FFF3FC00
FFF3FC00
FFF1FE00
FFF1FE00
FFF1FE00
FFF1FF00
FFF0FF00
FFF0FF80
FFE0FF80
FFE0FC00
7F000000
ENDCHAR
STARTCHAR 0073
ENCODING 115
SWIDTH 500 0
DWIDTH 25 0
BBX 29 35 2 -1
BITMAP
00003000
0003FFF8
001FFFF8
003FFFF0
007FFFF0
007FFFE0
00FFFFC0
00FFFFC0
01FFFF80
03FFFF80
03FFFF00
07FFFE00
07FFFE00
07FC1C00
07F80400
07FE0000
07FF8000
03FFE000
03FFF800
01FFFE00
007FFE00
000FFE00
0003FE00
0001FE00
0001FF00
3807FE00
7EFFFE00
FFFFFE00
FFFFFC00
FFFFFC00
FFFFF800
7FFFF000
7FFFC000
1FFF8000
0FFE0000
ENDCHAR
STARTCHAR 0074
ENCODING 116
SWIDTH 560 0
DWIDTH 28 0
BBX 28 34 6 0
BITMAP
000DC380
3FFFFFE0
3FFFFFF0
3FFFFFF0
3FFFFFF0
7FFFFFF0
7FFFFFF0
7FFFFFF0
FFFFFFE0
FFFFFFC0
FFBFF000
F83FE000
003FC000
003F8000
007F8000
007F8000
007F0000
007F0000
00FF0000
00FF0000
00FE0000
00FE0000
01FE0000
01FE0000
01FC0000
01FC0000
03FC0000
03FC0000
03FC0000
03F80000
03F80000
07F80000
07F80000
07F00000
ENDCHAR
STARTCHAR 0075
ENCODING 117
SWIDTH 540 0
DWIDTH 27 0
BBX 29 33 4 1
BITMAP
01F803F0
01FC07F8
03FC07F8
03F807F8
07F807F8
07F807F0
0FF007F0
0FF00FF0
0FF00FF0
1FE00FF0
1FE01FE0
3FE01FE0
3FE01FE0
3FC03FE0
7FC03FE0
7FC07FE0
7FC07FC0
7FE07FC0
FFF0FFC0
FFFFFF80
FFFFFF80
FFFFFF00
FFFFFF00
FFFFFE00
FFFFFC00
FFFFFC00
FFFFF800
7FFFF000
7FFFE000
7FFFC000
3FFF8000
1FFF0000
03FC0000
ENDCHAR
STARTCHAR 0076
ENCODING 118
SWIDTH 580 0
DWIDTH 29 0
BBX 28 32 8 1
BITMAP
C0000FF0
FC007FF0
FFE07FE0
7FF07FE0
7FF07FE0
7FF0FFC0
7FF0FFC0
7FF0FF80
7FF1FF80
7FF1FF80
7FF1FF00
3FF1FF00
3FF3FE00
3FF3FE00
3FF7FC00
1FF7FC00
1FFFF800
1FFFF800
0FFFF000
0FFFF000
07FFF000
07FFE000
07FFE000
03FFC000
03FFC000
01FFC000
01FF8000
00FF8000
00FF0000
007F0000
007F0000
003C0000
ENDCHAR
STARTCHAR 0077
ENCODING 119
SWIDTH 720 0
DWIDTH 36 0
BBX 35 35 7 0
BITMAP
0000000800
3A00000C20
7FC0001FE0
7FC0703FE0
FFC0F03FC0
FFC0F07FC0
FFC0F07F80
FFE0F0FF80
FFE1F1FF00
FFE1F1FF00
FFE1FBFE00
FFE3FBFE00
7FF3FBFE00
7FF7FFFE00
7FF7FFFC00
7FFFFFFC00
7FFFFFF800
3FFFFFF800
3FFFFFF800
3FFFFFF000
3FFFFFF000
1FFEFFE000
1FFEFFE000
1FFCFFC000
1FFCFFC000
0FF8FFC000
0FF87FC000
0FF07F8000
07E07F8000
07E07F0000
07E07F0000
03C07E0000
03C07C0000
0380000000
0100000000
ENDCHAR
STARTCHAR 0078
ENCODING 120
SWIDTH 560 0
DWIDTH 28 0
BBX 32 33 3 1
BITMAP
000000FF
03FC00FF
07FC01FF
0FFC03FE
0FFC07FE
0FFE07FC
0FFE0FF8
0FFE1FF0
0FFE1FF0
0FFF3FE0
07FF3FE0
07FF7FC0
03FFFF80
01FFFF80
01FFFF00
00FFFE00
00FFFE00
007FFC00
007FF800
007FF800
00FFF800
01FFFC00
03FFFC00
07FFFC00
07FFFC00
0FFBFC00
1FF3FC00
1FF1FE00
3FF1FE00
7FE0FE00
7FE0FE00
FFC06000
FF800000
ENDCHAR
STARTCHAR 0079
ENCODING 121
SWIDTH 600 0
DWIDTH 30 0
BBX 30 34 7 0
BITMAP
000003FC
038007F8
3F8007F0
FFC00FF0
FFC01FE0
FFC01FE0
7FC03FC0
7FE07F80
7FE0FF80
3FE0FF00
3FE1FE00
3FF3FC00
1FF7FC00
1FF7F800
1FFFF000
1FFFF000
0FFFE000
0FFFC000
0FFFC000
07FF8000
07FF0000
07FF0000
03FE0000
03FC0000
03FC0000
03FC0000
03FC0000
03FC0000
03FC0000
07FC0000
07FC0000
07FC0000
07F80000
07E00000
ENDCHAR
STARTCHAR 007A
ENCODING 122
SWIDTH 600 0
DWIDTH 30 0
BBX 26 34 6 0
BITMAP
003FFFC0
03FFFFC0
0FFFFF80
1FFFFF00
3FFFFE00
7FFFFC00
7FFFF800
FFFFF800
FFAFF000
000FE000
001FE000
003FC000
003F8000
007F8000
007F0000
00FF0000
00FE0000
01FE0000
03FC0000
03FC0000
07F80000
07F80000
0FF80000
0FE00000
1FE06180
1FFFFF80
3FFFFF80
7FFFFF80
7FFFFF00
7FFFFE00
FFFFFC00
07FFF800
01FFE000
000E0000
ENDCHAR
STARTCHAR 007B
ENCODING 123
SWIDTH 340 0
DWIDTH 17 0
BBX 20 48 5 -6
BITMAP
0000C0
0003E0
0003E0
0007E0
000FE0
001FF0
003FE0
003F80
007F00
007E00
00FE00
00FC00
00F800
01F800
01F000
03F000
03F000
07E000
07E000
0FE000
3FC000
7FC000
FF8000
FF8000
FFC000
FFC000
FFC000
1FC000
1FC000
1FC000
1FC000
1FC000
1F8000
1F8000
1F8000
3F8000
3F8000
3F8000
3F8000
3F8000
3F8000
3FE000
3FE000
3FE000
1FC000
0FC000
078000
018000
ENDCHAR
STARTCHAR 007C
ENCODING 124
SWIDTH 180 0
DWIDTH 9 0
BBX 17 50 0 -7
BITMAP
003F80
003F80
003F80
007F80
007F00
007F00
007F00
00FF00
00FF00
00FE00
00FE00
01FE00
01FE00
01FE00
01FC00
01FC00
03FC00
03FC00
03FC00
03F800
03F800
07F800
07F800
07F000
07F000
0FF000
0FF000
0FF000
0FF000
0FE000
1FE000
1FE000
1FC000
1FC000
1FC000
3FC000
3FC000
3F8000
3F8000
3F8000
3F8000
7F8000
7F0000
7F0000
7F0000
FF0000
FE0000
FE0000
FE0000
F00000
ENDCHAR
STARTCHAR 007D
ENCODING 125
SWIDTH 340 0
DWIDTH 17 0
BBX 20 48 1 -6
BITMAP
001800
003E00
007F00
007F00
007F80
00FFC0
007FC0
001FC0
001FC0
001F80
001F80
001F80
001F80
003F80
003F80
003F80
003F00
003F00
003F00
003F00
003F00
003FE0
003FF0
003FF0
003FF0
003FE0
003FE0
007F80
007E00
00FE00
00FC00
00FC00
01F800
01F800
03F000
03F000
07E000
07E000
0FE000
1FC000
3FC000
FF8000
FF0000
FE0000
FE0000
7C0000
780000
600000
ENDCHAR
STARTCHAR 007E
ENCODING 126
SWIDTH 480 0
DWIDTH 24 0
BBX 25 11 3 12
BITMAP
03E07F80
07F87F80
1FFC7F00
1FFFFF00
3FFFFF00
3FFFFF00
7FFFFE00
7FFFFC00
7F7FF800
7E3FF000
FE0FC000
ENDCHAR
STARTCHAR 00A0
ENCODING 160
SWIDTH 300 0
DWIDTH 15 0
BBX 0 0 0 0
BITMAP
ENDCHAR
STARTCHAR 00A1
ENCODING 161
SWIDTH 280 0
DWIDTH 14 0
BBX 18 38 -1 -10
BITMAP
000F80
001FC0
003FC0
003FC0
007FC0
007FC0
007F80
007F80
003F00
000000
000000
000000
007000
00FC00
01FE00
01FE00
01FE00
03FC00
03FC00
07FC00
07FC00
07FC00
0FFC00
0FFC00
0FF800
1FF800
1FF800
1FF800
3FF800
3FF800
3FF800
7FF800
7FF800
7FF800
FFF800
FFF800
FFF800
03F000
ENDCHAR
STARTCHAR 00A2
ENCODING 162
SWIDTH 500 0
DWIDTH 25 0
BBX 27 43 3 -4
BITMAP
00000FE0
00000FE0
00001FC0
00001FC0
00003FC0
000FFF80
001FFF80
007FFFC0
00FFFFC0
01FFFFE0
03FFFFE0
03FFFFC0
07FFFFC0
0FFFFFC0
0FFFFFC0
1FFFFF80
1FFFFF80
3FE7F100
3FE7F000
3FCFE000
7F8FE000
7F9FC000
7F9FC000
7FBF8000
7FBF8000
FFFF8000
FFFF0000
7FFF0400
7FFFFE00
7FFFFE00
7FFFFE00
7FFFFE00
3FFFFC00
3FFFFC00
1FFFF800
07FFF000
07FFC000
07FE0000
0FE00000
0FC00000
1FC00000
0FC00000
01800000
ENDCHAR
STARTCHAR 00A3
ENCODING 163
SWIDTH 540 0
DWIDTH 27 0
BBX 30 34 2 0
BITMAP
00003F00
00007FE0
0001FFF0
0003FFF8
0007FFF8
000FFFFC
000FFFFC
001FE7FC
003FF7FC
003FE3F8
007FE3F8
007FC200
007FC000
00FFC000
1FFFFF00
1FFFFF00
1FFFFF00
3FFFFF00
3FFFFF00
3FFFFF00
01FF0000
03FF0000
03FF0000
03FE0000
03FE0000
03FE0000
7FFFFFC0
7FFFFFC0
FFFFFFC0
FFFFFF80
FFFFFF80
FFFFFF00
7FFFFF00
07FFF000
ENDCHAR
STARTCHAR 00A4
ENCODING 164
SWIDTH 440 0
DWIDTH 22 0
BBX 23 21 3 7
BITMAP
008010
03C078
07EEFC
0FFFFC
1FFFFE
1FFFFE
0FFFF8
0FE3F0
07C3E0
0F83E0
0F83E0
0F83E0
0F87C0
0F87E0
3FFFF0
7FFFF8
FFFFF8
7FFFE0
3E67C0
1C0380
080100
ENDCHAR
STARTCHAR 00A5
ENCODING 165
SWIDTH 600 0
DWIDTH 30 0
BBX 32 34 5 0
BITMAP
000000FF
00E001FE
0FE001FC
3FF003FC
3FF007F8
3FF007F8
1FF00FF0
1FF81FE0
1FF83FE0
0FF83FC0
0FF87F80
0FFCFF80
07FDFF00
07FDFE00
07FFFF80
3FFFFF00
3FFFFF00
3FFFFF00
3FFFFF00
7FFFFF00
7FFFFE00
1FFFC000
00FF8000
7FFFFE00
7FFFFE00
7FFFFE00
7FFFFE00
FFFFFE00
FFFFFC00
7FFF0000
01FF0000
01FF0000
01FE0000
01F80000
ENDCHAR
STARTCHAR 00A6
ENCODING 166
SWIDTH 180 0
DWIDTH 9 0
BBX 17 51 0 -8
BITMAP
001E00
003F80
003F80
007F80
007F80
007F00
007F00
007F00
00FF00
00FF00
00FE00
00FE00
00FE00
01FE00
01FE00
01FC00
01FC00
01FC00
03FC00
03F800
03F800
03F800
03F800
000000
000000
000000
000000
000000
000000
0FE000
0FE000
1FE000
1FC000
1FC000
1FC000
1FC000
3FC000
3FC000
3F8000
3F8000
7F8000
7F8000
7F8000
7F0000
FF0000
FF0000
FF0000
FF0000
FE0000
FE0000
1C0000
ENDCHAR
STARTCHAR 00A7
ENCODING 167
SWIDTH 500 0
DWIDTH 25 0
BBX 24 43 4 -4
BITMAP
0003F0
000FFC
003FFE
007FFF
00FFFF
01FFFF
01FFFF
03FFFF
03FFBE
03FE0C
03FE00
03FC00
03FE00
07FF80
0FFFF0
0FFFFC
1FFFFE
3FFFFE
3FFFFF
7FF3FF
7F81FF
FF80FF
FF81FF
7FEFFE
7FFFFE
3FFFFC
3FFFFC
0FFFF8
03FFF8
00FFF0
003FE0
003FE0
003FE0
307FE0
7FFFE0
7FFFC0
7FFFC0
FFFF80
FFFF80
7FFF00
3FFC00
1FF000
07C000
ENDCHAR
STARTCHAR 00A8
ENCODING 168
SWIDTH 300 0
DWIDTH 15 0
BBX 14 6 9 35
BITMAP
0030
787C
F8FC
F8F8
F8F8
7030
ENDCHAR
STARTCHAR 00A9
ENCODING 169
SWIDTH 660 0
DWIDTH 33 0
BBX 33 32 4 2
BITMAP
00000C0000
0003FFE000
001FFFF800
007FFFFC00
01FFFFFE00
03FFE3FF00
07FC00FF00
07F0007F00
0FE0303F00
1FC1FC3F80
1F03FE1F80
3F07FE1F80
3E0FFC1F80
7C1FFC1F80
7C1F841F80
7C1F001F80
F83E001F00
F83E001F00
F83E001F00
F83E003E00
FC3FF83E00
FC3FF87C00
FC3FF87C00
FC1FF07800
FE07C0F000
7F0003F000
7F800FE000
7FFFFF8000
3FFFFF0000
1FFFFE0000
0FFFF80000
03FFE00000
ENDCHAR
STARTCHAR 00AA
ENCODING 170
SWIDTH 320 0
DWIDTH 16 0
BBX 15 18 4 16
BITMAP
0018
0038
0038
0078
00F8
00FC
01FC
01FC
03FC
077C
067C
0E7C
1FFC
1FFE
3C7E
7C7E
787E
C000
ENDCHAR
STARTCHAR 00AB
ENCODING 171
SWIDTH 460 0
DWIDTH 23 0
BBX 25 22 3 1
BITMAP
000C0080
00380380
00780700
00F81F00
03F83F00
07F07F00
0FF1FF00
1FF7FE00
3FEFFE00
7F8FE000
FC0F8000
F81F8000
FE1FE000
FFCFF800
FFE7FC00
3FC7F800
1FC3F800
0FC1F800
07C1F800
03C0F800
01807800
00803000
ENDCHAR
STARTCHAR 00AC
ENCODING 172
SWIDTH 480 0
DWIDTH 24 0
BBX 23 13 4 9
BITMAP
030100
7FFFFE
7FFFFE
7FFFFE
7FFFFE
FFFFFE
FFFFFE
FFFFFC
0001FC
0003FC
0003F8
0003F8
0003F8
ENDCHAR
STARTCHAR 00AD
ENCODING 173
SWIDTH 380 0
DWIDTH 19 0
BBX 19 8 4 14
BITMAP
060800
7FFFE0
7FFFE0
7FFFE0
7FFFC0
FFFFC0
FFFFC0
FFFFC0
ENDCHAR
STARTCHAR 00AE
ENCODING 174
SWIDTH 440 0
DWIDTH 22 0
BBX 21 21 6 14
BITMAP
01FF80
07FFC0
0FFFE0
1F00F0
3E3878
3DFC38
79E638
71E638
F1EC38
E1FC38
E1F878
E1F878
E3DC70
E3DCF0
F3CFE0
F803E0
FC07C0
7FFF80
3FFF00
0FFC00
00C000
ENDCHAR
STARTCHAR 00AF
ENCODING 175
SWIDTH 320 0
DWIDTH 16 0
BBX 15 5 9 35
BITMAP
FFFE
FFFE
FFFE
FFFC
4000
ENDCHAR
STARTCHAR 00B0
ENCODING 176
SWIDTH 320 0
DWIDTH 16 0
BBX 16 17 6 19
BITMAP
00E0
07F8
0FFC
1FFE
3FBF
3E3F
7C1F
7C1F
781E
783E
FC3E
FC7C
7FF8
7FF0
3FE0
1FC0
0700
ENDCHAR
STARTCHAR 00B1
ENCODING 177
SWIDTH 460 0
DWIDTH 23 0
BBX 26 29 1 0
BITMAP
0007F000
0007F000
0007F000
0007E000
000FE000
000FE000
000FE000
000FE000
0FFFFFC0
0FFFFFC0
0FFFFFC0
1FFFFFC0
1FFFFFC0
1FFFFF80
1F7FFF80
003F8000
003F8000
003F8000
003F8000
007F8000
007F0000
007F0000
00000000
35FFF800
7FFFFE00
7FFFFC00
FFFFFC00
FFFFFC00
FFFFFC00
ENDCHAR
STARTCHAR 00B2
ENCODING 178
SWIDTH 260 0
DWIDTH 13 0
BBX 12 17 6 18
BITMAP
0300
0FC0
1FE0
3FE0
3FC0
31C0
01C0
0380
0380
0700
0F30
1FF0
1FE0
3FE0
7FC0
FFC0
FF00
ENDCHAR
STARTCHAR 00B3
ENCODING 179
SWIDTH 240 0
DWIDTH 12 0
BBX 12 17 5 17
BITMAP
07C0
1FC0
1FC0
0380
0780
0F00
0FC0
1FE0
1FE0
00F0
0070
00F0
00E0
C3E0
FFC0
7F80
3E00
ENDCHAR
STARTCHAR 00B4
ENCODING 180
SWIDTH 220 0
DWIDTH 11 0
BBX 11 8 9 35
BITMAP
0FE0
1FC0
1F80
3F00
7E00
FC00
F800
3000
ENDCHAR
STARTCHAR 00B5
ENCODING 181
SWIDTH 540 0
DWIDTH 27 0
BBX 31 35 0 -8
BITMAP
00000078
01FC07F8
03FE07FC
03FC03FC
03F803FC
03F803FC
07F807FE
07F807FE
07F807FC
07F807FC
0FF80FFC
0FF80FFC
0FF81FF8
0FF83FF8
1FF87FF8
1FFFFFF0
1FFFFFF0
1FFFFFE0
1FFFFFE0
3FFFFFC0
3FFFFF80
3FFFFF80
3FFFFF00
3FFFFE00
3FFFF800
7FBFC000
7F800000
7F000000
7F000000
FF000000
FF000000
FF000000
FE000000
FE000000
0C000000
ENDCHAR
STARTCHAR 00B6
ENCODING 182
SWIDTH 380 0
DWIDTH 19 0
BBX 21 40 5 -4
BITMAP
000600
00FFF8
03FFF8
0FFFF8
0FFFF0
1FFFF0
3FFFF0
3FFFF0
3FF1F0
7FF1E0
7FF3E0
7FF3E0
7FE3E0
7FE3E0
7FE7C0
FFE7C0
FFE7C0
FFC7C0
7FC7C0
7FCF80
3FCF80
0FCF80
0F8F80
0F9F00
0F9F00
0F9F00
1F9F00
1F9F00
1F3E00
1F3E00
1F3E00
3F3E00
3E7E00
3E7C00
3E7C00
3E7C00
7E7C00
7C7800
7C7800
786000
ENDCHAR
STARTCHAR 00B7
ENCODING 183
SWIDTH 200 0
DWIDTH 10 0
BBX 10 9 4 13
BITMAP
0F80
3F80
7FC0
7FC0
FFC0
FF80
7F80
7F00
3C00
ENDCHAR
STARTCHAR 00B8
ENCODING 184
SWIDTH 300 0
DWIDTH 15 0
BBX 14 10 -1 -8
BITMAP
03E0
03E0
03F0
03F0
01FC
00FC
707C
7FFC
FFFC
3FF0
ENDCHAR
STARTCHAR 00B9
ENCODING 185
SWIDTH 220 0
DWIDTH 11 0
BBX 9 16 7 18
BITMAP
0780
0F80
3F80
FF80
7F80
2F80
0F00
1F00
1F00
1F00
3F00
3F00
3F00
7E00
7E00
7F00
ENDCHAR
STARTCHAR 00BA
ENCODING 186
SWIDTH 280 0
DWIDTH 14 0
BBX 13 18 6 17
BITMAP
0300
07C0
0FE0
1FF0
1FF0
3FF8
7FF8
7CF8
F8F8
F8F8
F9F8
FFF0
FFF0
FFE0
FFE0
7FC0
3F80
0C00
ENDCHAR
STARTCHAR 00BB
ENCODING 187
SWIDTH 460 0
DWIDTH 23 0
BBX 25 23 1 0
BITMAP
06008000
0F00C000
0F81E000
0F81F000
0FC1F800
0FE1FC00
0FE1FE00
1FF3FF00
0FFBFF80
03F87F80
00F81F80
00F80F80
03F87F00
3FF1FE00
3FE7FC00
7FC7F800
7F07F000
7E0FE000
780FC000
700F8000
E00F0000
801C0000
00100000
ENDCHAR
STARTCHAR 00BC
ENCODING 188
SWIDTH 560 0
DWIDTH 28 0
BBX 29 36 3 -1
BITMAP
00000040
007800F8
00F801F8
03F801F0
0FF803F0
07F807E0
02F807C0
00F00FC0
01F01F80
01F03F00
01F03E00
03F07E00
03F0FC00
03F1F800
07E3F000
07E3E000
07F7E000
000FC000
001F8300
003F0E00
003E0E00
007E1C00
00FC1C00
01F83800
03F03800
07E07FC0
07C07FC0
0FC0FFC0
1F80FE00
3F000E00
7E001E00
7C001E00
F8003E00
F0003E00
20007E00
00004000
ENDCHAR
STARTCHAR 00BD
ENCODING 189
SWIDTH 560 0
DWIDTH 28 0
BBX 29 35 3 0
BITMAP
00000040
007800F8
00F801F8
03F801F0
0FF803F0
07F807E0
02F807C0
00F00FC0
01F01F80
01F03F00
01F03E00
03F07E00
03F0FC00
03F1F800
07E3F000
07E3E000
07F7E000
000FC800
001FBF00
003F7F80
003EFF80
007EFF80
00FCC700
01F80700
03F00F00
07E00E00
07C01C00
0FC03C40
1F803FC0
3F007F80
7E00FF80
7C01FF80
F803FF00
F003FC00
20000000
ENDCHAR
STARTCHAR 00BE
ENCODING 190
SWIDTH 560 0
DWIDTH 28 0
BBX 29 36 3 -1
BITMAP
00000040
01F000F8
07F001F8
07F001F0
00E003F0
01E007E0
03C007C0
03F00FC0
07F81F80
07F83F00
003C3E00
001C7E00
003CFC00
0039F800
30FBF000
3FF3E000
1FE7E000
0F8FC000
001F8300
003F0E00
003E0E00
007E1C00
00FC1C00
01F83800
03F03800
07E07FC0
07C07FC0
0FC0FFC0
1F80FE00
3F000E00
7E001E00
7C001E00
F8003E00
F0003E00
20007E00
00004000
ENDCHAR
STARTCHAR 00BF
ENCODING 191
SWIDTH 460 0
DWIDTH 23 0
BBX 22 36 0 -9
BITMAP
0000F8
0003FC
0003FC
0007FC
0007FC
0007FC
0003F0
0001C0
000000
000000
000000
0007F0
000FF0
000FF0
001FF0
003FE0
00FFE0
01FFE0
07FFC0
0FFF80
1FFC00
3FF000
3FC000
3FC000
7F8000
7F8010
7F8078
FF81FC
FFFFFC
FFFFF8
FFFFF8
FFFFF0
FFFFF0
7FFFE0
1FFF80
007E00
ENDCHAR
STARTCHAR 00C0
ENCODING 192
SWIDTH 620 0
DWIDTH 31 0
BBX 30 44 1 -1
BITMAP
00007E00
00007F00
00007F00
00003F00
00001F80
00001F80
00000F80
00000400
00000000
00000180
00000FC0
00000FC0
00001FC0
00003FC0
00003FC0
00007FC0
00007FC0
0000FFC0
0000FFC0
0001FFC0
0003FFC0
0003FFC0
0007FFC0
0007FFE0
000FFFE0
001FFFE0
001FFFE0
003F7FE0
007E3FE0
007C3FE0
00F83FE0
01F03FE0
01FFFFE0
03FFFFF0
07FFFFF0
07FFFFF0
0FFC7FF0
1FF07FF0
1FE07FF8
3FC07FF8
7FC07FF8
7FC07FF8
FFC07FFC
FE002000
ENDCHAR
STARTCHAR 00C1
ENCODING 193
SWIDTH 620 0
DWIDTH 31 0
BBX 33 44 1 -1
BITMAP
0000003F80
0000007F00
0000007E00
000000FC00
000001F800
000003F000
000003E000
000000C000
0000000000
0000018000
00000FC000
00000FC000
00001FC000
00003FC000
00003FC000
00007FC000
00007FC000
0000FFC000
0000FFC000
0001FFC000
0003FFC000
0003FFC000
0007FFC000
0007FFE000
000FFFE000
001FFFE000
001FFFE000
003F7FE000
007E3FE000
007C3FE000
00F83FE000
01F03FE000
01FFFFE000
03FFFFF000
07FFFFF000
07FFFFF000
0FFC7FF000
1FF07FF000
1FE07FF800
3FC07FF800
7FC07FF800
7FC07FF800
FFC07FFC00
FE00200000
ENDCHAR
STARTCHAR 00C2
ENCODING 194
SWIDTH 620 0
DWIDTH 31 0
BBX 31 44 1 -1
BITMAP
000001E0
000007F0
00000FF8
00003FFC
00007FFE
0000FE7E
0000FC3E
00000010
00000000
00000180
00000FC0
00000FC0
00001FC0
00003FC0
00003FC0
00007FC0
00007FC0
0000FFC0
0000FFC0
0001FFC0
0003FFC0
0003FFC0
0007FFC0
0007FFE0
000FFFE0
001FFFE0
001FFFE0
003F7FE0
007E3FE0
007C3FE0
00F83FE0
01F03FE0
01FFFFE0
03FFFFF0
07FFFFF0
07FFFFF0
0FFC7FF0
1FF07FF0
1FE07FF8
3FC07FF8
7FC07FF8
7FC07FF8
FFC07FFC
FE002000
ENDCHAR
STARTCHAR 00C3
ENCODING 195
SWIDTH 620 0
DWIDTH 31 0
BBX 32 44 1 -1
BITMAP
0000061F
00001F1F
00003FFF
00007FFF
00007FFE
00007FFC
0000F9F8
0000F020
00000000
00000180
00000FC0
00000FC0
00001FC0
00003FC0
00003FC0
00007FC0
00007FC0
0000FFC0
0000FFC0
0001FFC0
0003FFC0
0003FFC0
0007FFC0
0007FFE0
000FFFE0
001FFFE0
001FFFE0
003F7FE0
007E3FE0
007C3FE0
00F83FE0
01F03FE0
01FFFFE0
03FFFFF0
07FFFFF0
07FFFFF0
0FFC7FF0
1FF07FF0
1FE07FF8
3FC07FF8
7FC07FF8
7FC07FF8
FFC07FFC
FE002000
ENDCHAR
STARTCHAR 00C4
ENCODING 196
SWIDTH 620 0
DWIDTH 31 0
BBX 31 42 1 -1
BITMAP
00000008
00003E3E
00003E3E
00007C3E
00007C3C
00003818
00000000
00000180
00000FC0
00000FC0
00001FC0
00003FC0
00003FC0
00007FC0
00007FC0
0000FFC0
0000FFC0
0001FFC0
0003FFC0
0003FFC0
0007FFC0
0007FFE0
000FFFE0
001FFFE0
001FFFE0
003F7FE0
007E3FE0
007C3FE0
00F83FE0
01F03FE0
01FFFFE0
03FFFFF0
07FFFFF0
07FFFFF0
0FFC7FF0
1FF07FF0
1FE07FF8
3FC07FF8
7FC07FF8
7FC07FF8
FFC07FFC
FE002000
ENDCHAR
STARTCHAR 00C5
ENCODING 197
SWIDTH 620 0
DWIDTH 31 0
BBX 31 44 1 -1
BITMAP
000007F0
00001FF8
00003FFC
00007E7E
0000FC3E
0000F83E
0000F83E
0000F87C
0000F87C
0000FFF8
00007FF0
00003FC0
00001FC0
00003FC0
00003FC0
00007FC0
00007FC0
0000FFC0
0000FFC0
0001FFC0
0003FFC0
0003FFC0
0007FFC0
0007FFE0
000FFFE0
001FFFE0
001FFFE0
003F7FE0
007E3FE0
007C3FE0
00F83FE0
01F03FE0
01FFFFE0
03FFFFF0
07FFFFF0
07FFFFF0
0FFC7FF0
1FF07FF0
1FE07FF8
3FC07FF8
7FC07FF8
7FC07FF8
FFC07FFC
FE002000
ENDCHAR
STARTCHAR 00C6
ENCODING 198
SWIDTH 720 0
DWIDTH 36 0
BBX 37 36 1 -1
BITMAP
0000001E00
000003FFF8
00000FFFF8
00000FFFF8
00001FFFF0
00003FFFF0
00003FFFE0
00007FFFE0
00007FFFC0
0000FFFFE0
0001FFFFC0
0001FFF000
0003FFE000
0003FFE000
0007FFE180
000FFFFF80
000FFFFF00
001FFFFF00
003FFFFF00
003E7FFF80
007E3FE000
00FC3FE000
00F83FEF70
01F03FFFF0
01FFFFFFF0
03FFFFFFF0
07FFFFFFF0
07FFFFFFF0
0FF87FFFF0
1FE07FFFF0
1FE07FFFF0
3FC07FFFF0
7FC07FFF00
7FC07FF000
FFC03E0000
F800000000
ENDCHAR
STARTCHAR 00C7
ENCODING 199
SWIDTH 480 0
DWIDTH 24 0
BBX 27 42 3 -8
BITMAP
0000FC00
0007FF80
001FFFC0
007FFFE0
00FFFFE0
03FFFFE0
03FFFFE0
07FFFFC0
0FFFFFC0
0FFFFA80
1FFF0000
1FFC0000
3FF80000
3FF00000
3FF00000
3FF00000
3FF00000
7FF00000
7FF00200
7FFCFE00
7FFFFE00
7FFFFE00
7FFFFE00
7FFFFE00
7FFFFC00
7FFFFC00
7FFFFC00
3FFFFC00
3FFFF800
3FFFE000
1FFFE000
1FFF8000
03FE0000
03E00000
03E00000
03F00000
01FC0000
00FC0000
707C0000
7FFC0000
FFFC0000
3FF00000
ENDCHAR
STARTCHAR 00C8
ENCODING 200
SWIDTH 480 0
DWIDTH 24 0
BBX 20 43 6 1
BITMAP
0FE000
0FE000
07F000
03F800
03F800
01F800
00F000
000000
01FF00
0FFFF0
3FFFF0
3FFFE0
3FFFE0
3FFFC0
3FFFC0
3FFFC0
3FFF80
3FFF80
3FFF00
3FC000
3FC000
3FC000
3FC700
3FFF00
3FFE00
3FFE00
3FFE00
3FFA00
3FC000
7FC000
7FFFE0
7FFFE0
7FFFE0
7FFFE0
7FFFE0
7FFFE0
7FFFE0
7FFFE0
FFFFE0
FFFFC0
FFFC00
FFC000
780000
ENDCHAR
STARTCHAR 00C9
ENCODING 201
SWIDTH 480 0
DWIDTH 24 0
BBX 20 44 6 0
BITMAP
000FE0
000FC0
001F80
003F00
003E00
007E00
007C00
00F800
000000
01FF00
0FFFF0
3FFFF0
3FFFE0
3FFFE0
3FFFC0
3FFFC0
3FFFC0
3FFF80
3FFF80
3FFF00
3FC000
3FC000
3FC000
3FC700
3FFF00
3FFE00
3FFE00
3FFE00
3FFA00
3FC000
7FC000
7FFFE0
7FFFE0
7FFFE0
7FFFE0
7FFFE0
7FFFE0
7FFFE0
7FFFE0
FFFFE0
FFFFC0
FFFC00
FFC000
780000
ENDCHAR
STARTCHAR 00CA
ENCODING 202
SWIDTH 480 0
DWIDTH 24 0
BBX 20 44 6 0
BITMAP
003800
00FC00
01FF00
03FF80
07FFC0
0FDFC0
1F8F80
1F0200
000000
01FF00
0FFFF0
3FFFF0
3FFFE0
3FFFE0
3FFFC0
3FFFC0
3FFFC0
3FFF80
3FFF80
3FFF00
3FC000
3FC000
3FC000
3FC700
3FFF00
3FFE00
3FFE00
3FFE00
3FFA00
3FC000
7FC000
7FFFE0
7FFFE0
7FFFE0
7FFFE0
7FFFE0
7FFFE0
7FFFE0
7FFFE0
FFFFE0
FFFFC0
FFFC00
FFC000
780000
ENDCHAR
STARTCHAR 00CB
ENCODING 203
SWIDTH 480 0
DWIDTH 24 0
BBX 20 42 6 0
BITMAP
000200
000780
0F8F80
0F8F80
1F8F00
1F0600
0E0000
01FF00
0FFFF0
3FFFF0
3FFFE0
3FFFE0
3FFFC0
3FFFC0
3FFFC0
3FFF80
3FFF80
3FFF00
3FC000
3FC000
3FC000
3FC700
3FFF00
3FFE00
3FFE00
3FFE00
3FFA00
3FC000
7FC000
7FFFE0
7FFFE0
7FFFE0
7FFFE0
7FFFE0
7FFFE0
7FFFE0
7FFFE0
FFFFE0
FFFFC0
FFFC00
FFC000
780000
ENDCHAR
STARTCHAR 00CC
ENCODING 204
SWIDTH 320 0
DWIDTH 16 0
BBX 22 43 1 0
BITMAP
001FC0
001FE0
000FE0
0007E0
0003F0
0003F0
0001F0
000080
000000
000FE0
001FFC
003FF8
003FF8
003FF0
003FF0
007FF0
007FE0
00FFE0
00FFE0
00FFC0
00FFC0
01FFC0
01FFC0
01FF80
03FF80
03FF80
03FF80
07FF00
07FF00
07FF00
07FF00
0FFE00
0FFE00
0FFE00
0FFE00
1FFE00
1FFE00
1FFC00
3FF800
3FF800
3FF800
7FE000
FC0000
ENDCHAR
STARTCHAR 00CD
ENCODING 205
SWIDTH 320 0
DWIDTH 16 0
BBX 26 43 1 0
BITMAP
00000FC0
00001FC0
00003F80
00007F00
0000FC00
0000F800
0001F000
00002000
00000000
000FE000
001FFC00
003FF800
003FF800
003FF000
003FF000
007FF000
007FE000
00FFE000
00FFE000
00FFC000
00FFC000
01FFC000
01FFC000
01FF8000
03FF8000
03FF8000
03FF8000
07FF0000
07FF0000
07FF0000
07FF0000
0FFE0000
0FFE0000
0FFE0000
0FFE0000
1FFE0000
1FFE0000
1FFC0000
3FF80000
3FF80000
3FF80000
7FE00000
FC000000
ENDCHAR
STARTCHAR 00CE
ENCODING 206
SWIDTH 320 0
DWIDTH 16 0
BBX 25 43 1 0
BITMAP
00007800
0001FC00
0007FE00
000FFF00
001FFF80
003F9F80
003E0F80
00100400
00000000
000FE000
001FFC00
003FF800
003FF800
003FF000
003FF000
007FF000
007FE000
00FFE000
00FFE000
00FFC000
00FFC000
01FFC000
01FFC000
01FF8000
03FF8000
03FF8000
03FF8000
07FF0000
07FF0000
07FF0000
07FF0000
0FFE0000
0FFE0000
0FFE0000
0FFE0000
1FFE0000
1FFE0000
1FFC0000
3FF80000
3FF80000
3FF80000
7FE00000
FC000000
ENDCHAR
STARTCHAR 00CF
ENCODING 207
SWIDTH 320 0
DWIDTH 16 0
BBX 25 41 1 0
BITMAP
00000600
000F0F80
001F1F80
001F1F00
001F1F00
000E0E00
00000000
000FE000
001FFC00
003FF800
003FF800
003FF000
003FF000
007FF000
007FE000
00FFE000
00FFE000
00FFC000
00FFC000
01FFC000
01FFC000
01FF8000
03FF8000
03FF8000
03FF8000
07FF0000
07FF0000
07FF0000
07FF0000
0FFE0000
0FFE0000
0FFE0000
0FFE0000
1FFE0000
1FFE0000
1FFC0000
3FF80000
3FF80000
3FF80000
7FE00000
FC000000
ENDCHAR
STARTCHAR 00D0
ENCODING 208
SWIDTH 480 0
DWIDTH 24 0
BBX 24 34 4 0
BITMAP
01FE00
07FFC0
07FFF0
07FFF8
07FFFC
0FFFFC
0FFFFE
0FFFFE
0FFFFF
0FF8FF
0FF87F
1FFE3F
1FFE3F
FFFE3F
FFFE7F
FFFE7F
FFFEFE
FFF1FE
FFE3FC
5FE7F8
1FFFF8
1FFFF0
1FFFE0
1FFFE0
1FFFC0
1FFF80
1FFF00
1FFE00
1FFC00
1FF800
1FE000
1F8000
1E0000
180000
ENDCHAR
STARTCHAR 00D1
ENCODING 209
SWIDTH 560 0
DWIDTH 28 0
BBX 33 43 1 0
BITMAP
00000C1F00
00003F3E00
00007FFE00
00007FFE00
0000FFFE00
0000FFF800
0000F3F000
0000F04000
0000000000
0000000000
001FE03F00
003FF0FF80
007FF1FF80
007FE1FF80
007FE1FF00
00FFE1FF00
00FFE3FF00
01FFE3FE00
01FFE3FE00
01FFE3FE00
03FFE7FC00
03FFE7FC00
03FFE7FC00
07FFE7F800
07FFEFF800
07FFEFF800
0FFFEFF000
0FFFFFF000
0FFFFFF000
0FFFFFF000
1FFBFFE000
1FFBFFE000
1FF9FFE000
1FF1FFE000
3FF1FFC000
3FF1FFC000
3FF1FFC000
7FE1FF8000
7FE1FF8000
7FE1FF8000
FFE1FF8000
FFC1FF0000
F000000000
ENDCHAR
STARTCHAR 00D2
ENCODING 210
SWIDTH 520 0
DWIDTH 26 0
BBX 26 43 4 0
BITMAP
03F80000
03F80000
01FC0000
00FC0000
00FE0000
007E0000
003E0000
00300000
000E0000
001F8000
003FE000
007FF000
00FFF800
01FFFC00
01FFFE00
03FFFF00
07FFFF00
07FFFF00
0FFFFF80
1FFFFF80
1FFFFF80
3FF1FF80
3FE0FFC0
7FE0FFC0
7FC0FFC0
FFC0FFC0
FFC0FFC0
FFC1FF80
FFC1FF80
FFE3FF80
FFFFFF80
FFFFFF00
FFFFFF00
FFFFFE00
FFFFFE00
FFFFFC00
7FFFFC00
7FFFF800
7FFFF800
3FFFF000
1FFFE000
0FFF8000
03FE0000
ENDCHAR
STARTCHAR 00D3
ENCODING 211
SWIDTH 520 0
DWIDTH 26 0
BBX 26 43 4 0
BITMAP
0000FE00
0001FC00
0001F800
0003F000
0007E000
000FC000
000F8000
00010000
000E0000
001F8000
003FE000
007FF000
00FFF800
01FFFC00
01FFFE00
03FFFF00
07FFFF00
07FFFF00
0FFFFF80
1FFFFF80
1FFFFF80
3FF1FF80
3FE0FFC0
7FE0FFC0
7FC0FFC0
FFC0FFC0
FFC0FFC0
FFC1FF80
FFC1FF80
FFE3FF80
FFFFFF80
FFFFFF00
FFFFFF00
FFFFFE00
FFFFFE00
FFFFFC00
7FFFFC00
7FFFF800
7FFFF800
3FFFF000
1FFFE000
0FFF8000
03FE0000
ENDCHAR
STARTCHAR 00D4
ENCODING 212
SWIDTH 520 0
DWIDTH 26 0
BBX 26 43 4 0
BITMAP
000F8000
001FC000
007FE000
00FFF000
01FFF800
03F1F800
03E0F800
00000000
000E0000
001F8000
003FE000
007FF000
00FFF800
01FFFC00
01FFFE00
03FFFF00
07FFFF00
07FFFF00
0FFFFF80
1FFFFF80
1FFFFF80
3FF1FF80
3FE0FFC0
7FE0FFC0
7FC0FFC0
FFC0FFC0
FFC0FFC0
FFC1FF80
FFC1FF80
FFE3FF80
FFFFFF80
FFFFFF00
FFFFFF00
FFFFFE00
FFFFFE00
FFFFFC00
7FFFFC00
7FFFF800
7FFFF800
3FFFF000
1FFFE000
0FFF8000
03FE0000
ENDCHAR
STARTCHAR 00D5
ENCODING 213
SWIDTH 520 0
DWIDTH 26 0
BBX 26 44 4 0
BITMAP
00000400
0030FC00
00FCF800
01FFF800
01FFF800
03FFF000
03FFE000
03C7C000
03C00000
000E0000
001F8000
003FE000
007FF000
00FFF800
01FFFC00
01FFFE00
03FFFF00
07FFFF00
07FFFF00
0FFFFF80
1FFFFF80
1FFFFF80
3FF1FF80
3FE0FFC0
7FE0FFC0
7FC0FFC0
FFC0FFC0
FFC0FFC0
FFC1FF80
FFC1FF80
FFE3FF80
FFFFFF80
FFFFFF00
FFFFFF00
FFFFFE00
FFFFFE00
FFFFFC00
7FFFFC00
7FFFF800
7FFFF800
3FFFF000
1FFFE000
0FFF8000
03FE0000
ENDCHAR
STARTCHAR 00D6
ENCODING 214
SWIDTH 520 0
DWIDTH 26 0
BBX 26 41 4 0
BITMAP
00006000
00F0F800
01F1F800
01F1F000
01F1F000
00E0C000
000E0000
001F8000
003FE000
007FF000
00FFF800
01FFFC00
01FFFE00
03FFFF00
07FFFF00
07FFFF00
0FFFFF80
1FFFFF80
1FFFFF80
3FF1FF80
3FE0FFC0
7FE0FFC0
7FC0FFC0
FFC0FFC0
FFC0FFC0
FFC1FF80
FFC1FF80
FFE3FF80
FFFFFF80
FFFFFF00
FFFFFF00
FFFFFE00
FFFFFE00
FFFFFC00
7FFFFC00
7FFFF800
7FFFF800
3FFFF000
1FFFE000
0FFF8000
03FE0000
ENDCHAR
STARTCHAR 00D7
ENCODING 215
SWIDTH 420 0
DWIDTH 21 0
BBX 22 20 4 7
BITMAP
000020
0380E0
07C1F0
1FC3F8
3FE7FC
3FFFF8
3FFFF0
1FFFE0
0FFFC0
07FF80
03FF00
0FFF00
1FFF80
3FFFC0
7FFFE0
FFFFE0
FF3FE0
FE1FC0
7C0F80
380600
ENDCHAR
STARTCHAR 00D8
ENCODING 216
SWIDTH 520 0
DWIDTH 26 0
BBX 34 36 0 0
BITMAP
0000E03FC0
0001F83FC0
0003FE7F80
0007FFFF00
000FFFFE00
001FFFFE00
001FFFFC00
003FFFF800
007FFFF000
007FFFF000
00FFFFF800
01FFFFF800
01FFFFF800
03FEFFF800
03FDFFFC00
07F9FFFC00
07F3FFFC00
0FE7F7FC00
0FEFE7FC00
0FEFE7F800
0FFFCFF800
0FFF9FF800
0FFF3FF800
0FFFFFF000
0FFFFFF000
0FFFFFE000
0FFFFFE000
0FFFFFC000
07FFFFC000
0FFFFF8000
1FFFFF8000
3FFFFF0000
7FFFFE0000
FEFFF80000
9C3FE00000
0800000000
ENDCHAR
STARTCHAR 00D9
ENCODING 217
SWIDTH 540 0
DWIDTH 27 0
BBX 29 42 4 1
BITMAP
000FE000
000FE000
0007F000
0003F000
0003F000
0001F800
0000F800
00008000
00000000
01F803F0
01FC07F8
03FC07F8
03F807F8
07F807F8
07F807F0
0FF007F0
0FF00FF0
0FF00FF0
1FE00FF0
1FE01FE0
3FE01FE0
3FE01FE0
3FC03FE0
7FC03FE0
7FC07FE0
7FC07FC0
7FE07FC0
FFF0FFC0
FFFFFF80
FFFFFF80
FFFFFF00
FFFFFF00
FFFFFE00
FFFFFC00
FFFFFC00
FFFFF800
7FFFF000
7FFFE000
7FFFC000
3FFF8000
1FFF0000
03FC0000
ENDCHAR
STARTCHAR 00DA
ENCODING 218
SWIDTH 540 0
DWIDTH 27 0
BBX 29 42 4 1
BITMAP
000003F0
000007F0
00000FE0
00001FC0
00003F80
00003E00
00007C00
00000800
00000000
01F803F0
01FC07F8
03FC07F8
03F807F8
07F807F8
07F807F0
0FF007F0
0FF00FF0
0FF00FF0
1FE00FF0
1FE01FE0
3FE01FE0
3FE01FE0
3FC03FE0
7FC03FE0
7FC07FE0
7FC07FC0
7FE07FC0
FFF0FFC0
FFFFFF80
FFFFFF80
FFFFFF00
FFFFFF00
FFFFFE00
FFFFFC00
FFFFFC00
FFFFF800
7FFFF000
7FFFE000
7FFFC000
3FFF8000
1FFF0000
03FC0000
ENDCHAR
STARTCHAR 00DB
ENCODING 219
SWIDTH 540 0
DWIDTH 27 0
BBX 29 42 4 1
BITMAP
00001E00
00007F00
0001FF80
0003FFC0
0007FFC0
000FE7E0
000F83E0
00000100
00000000
01F803F0
01FC07F8
03FC07F8
03F807F8
07F807F8
07F807F0
0FF007F0
0FF00FF0
0FF00FF0
1FE00FF0
1FE01FE0
3FE01FE0
3FE01FE0
3FC03FE0
7FC03FE0
7FC07FE0
7FC07FC0
7FE07FC0
FFF0FFC0
FFFFFF80
FFFFFF80
FFFFFF00
FFFFFF00
FFFFFE00
FFFFFC00
FFFFFC00
FFFFF800
7FFFF000
7FFFE000
7FFFC000
3FFF8000
1FFF0000
03FC0000
ENDCHAR
STARTCHAR 00DC
ENCODING 220
SWIDTH 540 0
DWIDTH 27 0
BBX 29 40 4 1
BITMAP
00008000
0007C3C0
0007C7C0
0007C7C0
0007C7C0
00030380
00000000
01F803F0
01FC07F8
03FC07F8
03F807F8
07F807F8
07F807F0
0FF007F0
0FF00FF0
0FF00FF0
1FE00FF0
1FE01FE0
3FE01FE0
3FE01FE0
3FC03FE0
7FC03FE0
7FC07FE0
7FC07FC0
7FE07FC0
FFF0FFC0
FFFFFF80
FFFFFF80
FFFFFF00
FFFFFF00
FFFFFE00
FFFFFC00
FFFFFC00
FFFFF800
7FFFF000
7FFFE000
7FFFC000
3FFF8000
1FFF0000
03FC0000
ENDCHAR
STARTCHAR 00DD
ENCODING 221
SWIDTH 600 0
DWIDTH 30 0
BBX 30 43 7 0
BITMAP
00001FC0
00003F80
00007F00
00007E00
0000FC00
0001F800
0001F000
00002000
00000000
000003FC
038007F8
3F8007F0
FFC00FF0
FFC01FE0
FFC01FE0
7FC03FC0
7FE07F80
7FE0FF80
3FE0FF00
3FE1FE00
3FF3FC00
1FF7FC00
1FF7F800
1FFFF000
1FFFF000
0FFFE000
0FFFC000
0FFFC000
07FF8000
07FF0000
07FF0000
03FE0000
03FC0000
03FC0000
03FC0000
03FC0000
03FC0000
03FC0000
07FC0000
07FC0000
07FC0000
07F80000
07E00000
ENDCHAR
STARTCHAR 00DE
ENCODING 222
SWIDTH 500 0
DWIDTH 25 0
BBX 25 34 3 0
BITMAP
07FC0000
07FC0000
07FC0000
0FF80000
0FFF0000
0FFFF000
0FFFFC00
0FFFFE00
0FFFFE00
1FFFFF00
1FFFFF00
1FF3FF00
1FF07F00
1FE03F00
1FE03F80
3FE03F80
3FE07F00
3FE07F00
3FE0FF00
3FE0FF00
3FE1FF00
3FEFFF00
3FFFFF00
7FFFFE00
7FFFFC00
7FFFF000
7FFFE000
7FE00000
FFC00000
FFC00000
FFC00000
FFC00000
FF800000
FF800000
ENDCHAR
STARTCHAR 00DF
ENCODING 223
SWIDTH 560 0
DWIDTH 28 0
BBX 27 38 3 -3
BITMAP
000F8000
007FF000
00FFFC00
01FFFC00
03FFFC00
07FFFE00
0FFFFE00
0FF9FE00
1FE0FE00
1FE07E00
1FC0FE00
1FC0FC00
1FC0FC00
1FC1F800
3FC3F000
3FC7E000
3FC7F000
3FC7FE00
3F87FF80
3F8FFFC0
3F8FFFC0
7F87FFC0
7F807FE0
7F803FE0
7F803FE0
7F003FC0
7F003FC0
7F007FC0
7F01FF80
FF0FFF80
FF0FFF00
FF1FFF00
FE1FFC00
FE1FF800
FE1FC000
FE000000
FE000000
FC000000
ENDCHAR
STARTCHAR 00E0
ENCODING 224
SWIDTH 620 0
DWIDTH 31 0
BBX 30 44 1 -1
BITMAP
00007E00
00007F00
00007F00
00003F00
00001F80
00001F80
00000F80
00000400
00000000
00000180
00000FC0
00000FC0
00001FC0
00003FC0
00003FC0
00007FC0
00007FC0
0000FFC0
0000FFC0
0001FFC0
0003FFC0
0003FFC0
0007FFC0
0007FFE0
000FFFE0
001FFFE0
001FFFE0
003F7FE0
007E3FE0
007C3FE0
00F83FE0
01F03FE0
01FFFFE0
03FFFFF0
07FFFFF0
07FFFFF0
0FFC7FF0
1FF07FF0
1FE07FF8
3FC07FF8
7FC07FF8
7FC07FF8
FFC07FFC
FE002000
ENDCHAR
STARTCHAR 00E1
ENCODING 225
SWIDTH 620 0
DWIDTH 31 0
BBX 33 44 1 -1
BITMAP
0000003F80
0000007F00
0000007E00
000000FC00
000001F800
000003F000
000003E000
000000C000
0000000000
0000018000
00000FC000
00000FC000
00001FC000
00003FC000
00003FC000
00007FC000
00007FC000
0000FFC000
0000FFC000
0001FFC000
0003FFC000
0003FFC000
0007FFC000
0007FFE000
000FFFE000
001FFFE000
001FFFE000
003F7FE000
007E3FE000
007C3FE000
00F83FE000
01F03FE000
01FFFFE000
03FFFFF000
07FFFFF000
07FFFFF000
0FFC7FF000
1FF07FF000
1FE07FF800
3FC07FF800
7FC07FF800
7FC07FF800
FFC07FFC00
FE00200000
ENDCHAR
STARTCHAR 00E2
ENCODING 226
SWIDTH 620 0
DWIDTH 31 0
BBX 31 44 1 -1
BITMAP
000001E0
000007F0
00000FF8
00003FFC
00007FFE
0000FE7E
0000FC3E
00000010
00000000
00000180
00000FC0
00000FC0
00001FC0
00003FC0
00003FC0
00007FC0
00007FC0
0000FFC0
0000FFC0
0001FFC0
0003FFC0
0003FFC0
0007FFC0
0007FFE0
000FFFE0
001FFFE0
001FFFE0
003F7FE0
007E3FE0
007C3FE0
00F83FE0
01F03FE0
01FFFFE0
03FFFFF0
07FFFFF0
07FFFFF0
0FFC7FF0
1FF07FF0
1FE07FF8
3FC07FF8
7FC07FF8
7FC07FF8
FFC07FFC
FE002000
ENDCHAR
STARTCHAR 00E3
ENCODING 227
SWIDTH 620 0
DWIDTH 31 0
BBX 32 44 1 -1
BITMAP
0000061F
00001F1F
00003FFF
00007FFF
00007FFE
00007FFC
0000F9F8
0000F020
00000000
00000180
00000FC0
00000FC0
00001FC0
00003FC0
00003FC0
00007FC0
00007FC0
0000FFC0
0000FFC0
0001FFC0
0003FFC0
0003FFC0
0007FFC0
0007FFE0
000FFFE0
001FFFE0
001FFFE0
003F7FE0
007E3FE0
007C3FE0
00F83FE0
01F03FE0
01FFFFE0
03FFFFF0
07FFFFF0
07FFFFF0
0FFC7FF0
1FF07FF0
1FE07FF8
3FC07FF8
7FC07FF8
7FC07FF8
FFC07FFC
FE002000
ENDCHAR
STARTCHAR 00E4
ENCODING 228
SWIDTH 620 0
DWIDTH 31 0
BBX 31 42 1 -1
BITMAP
00000008
00003E3E
00003E3E
00007C3E
00007C3C
00003818
00000000
00000180
00000FC0
00000FC0
00001FC0
00003FC0
00003FC0
00007FC0
00007FC0
0000FFC0
0000FFC0
0001FFC0
0003FFC0
0003FFC0
0007FFC0
0007FFE0
000FFFE0
001FFFE0
001FFFE0
003F7FE0
007E3FE0
007C3FE0
00F83FE0
01F03FE0
01FFFFE0
03FFFFF0
07FFFFF0
07FFFFF0
0FFC7FF0
1FF07FF0
1FE07FF8
3FC07FF8
7FC07FF8
7FC07FF8
FFC07FFC
FE002000
ENDCHAR
STARTCHAR 00E5
ENCODING 229
SWIDTH 620 0
DWIDTH 31 0
BBX 31 44 1 -1
BITMAP
000007F0
00001FF8
00003FFC
00007E7E
0000FC3E
0000F83E
0000F83E
0000F87C
0000F87C
0000FFF8
00007FF0
00003FC0
00001FC0
00003FC0
00003FC0
00007FC0
00007FC0
0000FFC0
0000FFC0
0001FFC0
0003FFC0
0003FFC0
0007FFC0
0007FFE0
000FFFE0
001FFFE0
001FFFE0
003F7FE0
007E3FE0
007C3FE0
00F83FE0
01F03FE0
01FFFFE0
03FFFFF0
07FFFFF0
07FFFFF0
0FFC7FF0
1FF07FF0
1FE07FF8
3FC07FF8
7FC07FF8
7FC07FF8
FFC07FFC
FE002000
ENDCHAR
STARTCHAR 00E6
ENCODING 230
SWIDTH 720 0
DWIDTH 36 0
BBX 37 36 1 -1
BITMAP
0000001E00
000003FFF8
00000FFFF8
00000FFFF8
00001FFFF0
00003FFFF0
00003FFFE0
00007FFFE0
00007FFFC0
0000FFFFE0
0001FFFFC0
0001FFF000
0003FFE000
0003FFE000
0007FFE180
000FFFFF80
000FFFFF00
001FFFFF00
003FFFFF00
003E7FFF80
007E3FE000
00FC3FE000
00F83FEF70
01F03FFFF0
01FFFFFFF0
03FFFFFFF0
07FFFFFFF0
07FFFFFFF0
0FF87FFFF0
1FE07FFFF0
1FE07FFFF0
3FC07FFFF0
7FC07FFF00
7FC07FF000
FFC03E0000
F800000000
ENDCHAR
STARTCHAR 00E7
ENCODING 231
SWIDTH 480 0
DWIDTH 24 0
BBX 27 42 3 -8
BITMAP
0000FC00
0007FF80
001FFFC0
007FFFE0
00FFFFE0
03FFFFE0
03FFFFE0
07FFFFC0
0FFFFFC0
0FFFFA80
1FFF0000
1FFC0000
3FF80000
3FF00000
3FF00000
3FF00000
3FF00000
7FF00000
7FF00200
7FFCFE00
7FFFFE00
7FFFFE00
7FFFFE00
7FFFFE00
7FFFFC00
7FFFFC00
7FFFFC00
3FFFFC00
3FFFF800
3FFFE000
1FFFE000
1FFF8000
03FE0000
03E00000
03E00000
03F00000
01FC0000
00FC0000
707C0000
7FFC0000
FFFC0000
3FF00000
ENDCHAR
STARTCHAR 00E8
ENCODING 232
SWIDTH 480 0
DWIDTH 24 0
BBX 20 43 6 1
BITMAP
0FE000
0FE000
07F000
03F800
03F800
01F800
00F000
000000
01FF00
0FFFF0
3FFFF0
3FFFE0
3FFFE0
3FFFC0
3FFFC0
3FFFC0
3FFF80
3FFF80
3FFF00
3FC000
3FC000
3FC000
3FC700
3FFF00
3FFE00
3FFE00
3FFE00
3FFA00
3FC000
7FC000
7FFFE0
7FFFE0
7FFFE0
7FFFE0
7FFFE0
7FFFE0
7FFFE0
7FFFE0
FFFFE0
FFFFC0
FFFC00
FFC000
780000
ENDCHAR
STARTCHAR 00E9
ENCODING 233
SWIDTH 480 0
DWIDTH 24 0
BBX 20 44 6 0
BITMAP
000FE0
000FC0
001F80
003F00
003E00
007E00
007C00
00F800
000000
01FF00
0FFFF0
3FFFF0
3FFFE0
3FFFE0
3FFFC0
3FFFC0
3FFFC0
3FFF80
3FFF80
3FFF00
3FC000
3FC000
3FC000
3FC700
3FFF00
3FFE00
3FFE00
3FFE00
3FFA00
3FC000
7FC000
7FFFE0
7FFFE0
7FFFE0
7FFFE0
7FFFE0
7FFFE0
7FFFE0
7FFFE0
FFFFE0
FFFFC0
FFFC00
FFC000
780000
ENDCHAR
STARTCHAR 00EA
ENCODING 234
SWIDTH 480 0
DWIDTH 24 0
BBX 20 44 6 0
BITMAP
003800
00FC00
01FF00
03FF80
07FFC0
0FDFC0
1F8F80
1F0200
000000
01FF00
0FFFF0
3FFFF0
3FFFE0
3FFFE0
3FFFC0
3FFFC0
3FFFC0
3FFF80
3FFF80
3FFF00
3FC000
3FC000
3FC000
3FC700
3FFF00
3FFE00
3FFE00
3FFE00
3FFA00
3FC000
7FC000
7FFFE0
7FFFE0
7FFFE0
7FFFE0
7FFFE0
7FFFE0
7FFFE0
7FFFE0
FFFFE0
FFFFC0
FFFC00
FFC000
780000
ENDCHAR
STARTCHAR 00EB
ENCODING 235
SWIDTH 480 0
DWIDTH 24 0
BBX 20 42 6 0
BITMAP
000200
000780
0F8F80
0F8F80
1F8F00
1F0600
0E0000
01FF00
0FFFF0
3FFFF0
3FFFE0
3FFFE0
3FFFC0
3FFFC0
3FFFC0
3FFF80
3FFF80
3FFF00
3FC000
3FC000
3FC000
3FC700
3FFF00
3FFE00
3FFE00
3FFE00
3FFA00
3FC000
7FC000
7FFFE0
7FFFE0
7FFFE0
7FFFE0
7FFFE0
7FFFE0
7FFFE0
7FFFE0
FFFFE0
FFFFC0
FFFC00
FFC000
780000
ENDCHAR
STARTCHAR 00EC
ENCODING 236
SWIDTH 320 0
DWIDTH 16 0
BBX 22 43 1 0
BITMAP
001FC0
001FE0
000FE0
0007E0
0003F0
0003F0
0001F0
000080
000000
000FE0
001FFC
003FF8
003FF8
003FF0
003FF0
007FF0
007FE0
00FFE0
00FFE0
00FFC0
00FFC0
01FFC0
01FFC0
01FF80
03FF80
03FF80
03FF80
07FF00
07FF00
07FF00
07FF00
0FFE00
0FFE00
0FFE00
0FFE00
1FFE00
1FFE00
1FFC00
3FF800
3FF800
3FF800
7FE000
FC0000
ENDCHAR
STARTCHAR 00ED
ENCODING 237
SWIDTH 320 0
DWIDTH 16 0
BBX 26 43 1 0
BITMAP
00000FC0
00001FC0
00003F80
00007F00
0000FC00
0000F800
0001F000
00002000
00000000
000FE000
001FFC00
003FF800
003FF800
003FF000
003FF000
007FF000
007FE000
00FFE000
00FFE000
00FFC000
00FFC000
01FFC000
01FFC000
01FF8000
03FF8000
03FF8000
03FF8000
07FF0000
07FF0000
07FF0000
07FF0000
0FFE0000
0FFE0000
0FFE0000
0FFE0000
1FFE0000
1FFE0000
1FFC0000
3FF80000
3FF80000
3FF80000
7FE00000
FC000000
ENDCHAR
STARTCHAR 00EE
ENCODING 238
SWIDTH 320 0
DWIDTH 16 0
BBX 25 43 1 0
BITMAP
00007800
0001FC00
0007FE00
000FFF00
001FFF80
003F9F80
003E0F80
00100400
00000000
000FE000
001FFC00
003FF800
003FF800
003FF000
003FF000
007FF000
007FE000
00FFE000
00FFE000
00FFC000
00FFC000
01FFC000
01FFC000
01FF8000
03FF8000
03FF8000
03FF8000
07FF0000
07FF0000
07FF0000
07FF0000
0FFE0000
0FFE0000
0FFE0000
0FFE0000
1FFE0000
1FFE0000
1FFC0000
3FF80000
3FF80000
3FF80000
7FE00000
FC000000
ENDCHAR
STARTCHAR 00EF
ENCODING 239
SWIDTH 320 0
DWIDTH 16 0
BBX 25 41 1 0
BITMAP
00000600
000F0F80
001F1F80
001F1F00
001F1F00
000E0E00
00000000
000FE000
001FFC00
003FF800
003FF800
003FF000
003FF000
007FF000
007FE000
00FFE000
00FFE000
00FFC000
00FFC000
01FFC000
01FFC000
01FF8000
03FF8000
03FF8000
03FF8000
07FF0000
07FF0000
07FF0000
07FF0000
0FFE0000
0FFE0000
0FFE0000
0FFE0000
1FFE0000
1FFE0000
1FFC0000
3FF80000
3FF80000
3FF80000
7FE00000
FC000000
ENDCHAR
STARTCHAR 00F0
ENCODING 240
SWIDTH 480 0
DWIDTH 24 0
BBX 24 34 4 0
BITMAP
01FE00
07FFC0
07FFF0
07FFF8
07FFFC
0FFFFC
0FFFFE
0FFFFE
0FFFFF
0FF8FF
0FF87F
1FFE3F
1FFE3F
FFFE3F
FFFE7F
FFFE7F
FFFEFE
FFF1FE
FFE3FC
5FE7F8
1FFFF8
1FFFF0
1FFFE0
1FFFE0
1FFFC0
1FFF80
1FFF00
1FFE00
1FFC00
1FF800
1FE000
1F8000
1E0000
180000
ENDCHAR
STARTCHAR 00F1
ENCODING 241
SWIDTH 560 0
DWIDTH 28 0
BBX 33 43 1 0
BITMAP
00000C1F00
00003F3E00
00007FFE00
00007FFE00
0000FFFE00
0000FFF800
0000F3F000
0000F04000
0000000000
0000000000
001FE03F00
003FF0FF80
007FF1FF80
007FE1FF80
007FE1FF00
00FFE1FF00
00FFE3FF00
01FFE3FE00
01FFE3FE00
01FFE3FE00
03FFE7FC00
03FFE7FC00
03FFE7FC00
07FFE7F800
07FFEFF800
07FFEFF800
0FFFEFF000
0FFFFFF000
0FFFFFF000
0FFFFFF000
1FFBFFE000
1FFBFFE000
1FF9FFE000
1FF1FFE000
3FF1FFC000
3FF1FFC000
3FF1FFC000
7FE1FF8000
7FE1FF8000
7FE1FF8000
FFE1FF8000
FFC1FF0000
F000000000
ENDCHAR
STARTCHAR 00F2
ENCODING 242
SWIDTH 520 0
DWIDTH 26 0
BBX 26 43 4 0
BITMAP
03F80000
03F80000
01FC0000
00FC0000
00FE0000
007E0000
003E0000
00300000
000E0000
001F8000
003FE000
007FF000
00FFF800
01FFFC00
01FFFE00
03FFFF00
07FFFF00
07FFFF00
0FFFFF80
1FFFFF80
1FFFFF80
3FF1FF80
3FE0FFC0
7FE0FFC0
7FC0FFC0
FFC0FFC0
FFC0FFC0
FFC1FF80
FFC1FF80
FFE3FF80
FFFFFF80
FFFFFF00
FFFFFF00
FFFFFE00
FFFFFE00
FFFFFC00
7FFFFC00
7FFFF800
7FFFF800
3FFFF000
1FFFE000
0FFF8000
03FE0000
ENDCHAR
STARTCHAR 00F3
ENCODING 243
SWIDTH 520 0
DWIDTH 26 0
BBX 26 43 4 0
BITMAP
0000FE00
0001FC00
0001F800
0003F000
0007E000
000FC000
000F8000
00010000
000E0000
001F8000
003FE000
007FF000
00FFF800
01FFFC00
01FFFE00
03FFFF00
07FFFF00
07FFFF00
0FFFFF80
1FFFFF80
1FFFFF80
3FF1FF80
3FE0FFC0
7FE0FFC0
7FC0FFC0
FFC0FFC0
FFC0FFC0
FFC1FF80
FFC1FF80
FFE3FF80
FFFFFF80
FFFFFF00
FFFFFF00
FFFFFE00
FFFFFE00
FFFFFC00
7FFFFC00
7FFFF800
7FFFF800
3FFFF000
1FFFE000
0FFF8000
03FE0000
ENDCHAR
STARTCHAR 00F4
ENCODING 244
SWIDTH 520 0
DWIDTH 26 0
BBX 26 43 4 0
BITMAP
000F8000
001FC000
007FE000
00FFF000
01FFF800
03F1F800
03E0F800
00000000
000E0000
001F8000
003FE000
007FF000
00FFF800
01FFFC00
01FFFE00
03FFFF00
07FFFF00
07FFFF00
0FFFFF80
1FFFFF80
1FFFFF80
3FF1FF80
3FE0FFC0
7FE0FFC0
7FC0FFC0
FFC0FFC0
FFC0FFC0
FFC1FF80
FFC1FF80
FFE3FF80
FFFFFF80
FFFFFF00
FFFFFF00
FFFFFE00
FFFFFE00
FFFFFC00
7FFFFC00
7FFFF800
7FFFF800
3FFFF000
1FFFE000
0FFF8000
03FE0000
ENDCHAR
STARTCHAR 00F5
ENCODING 245
SWIDTH 520 0
DWIDTH 26 0
BBX 26 44 4 0
BITMAP
00000400
0030FC00
00FCF800
01FFF800
01FFF800
03FFF000
03FFE000
03C7C000
03C00000
000E0000
001F8000
003FE000
007FF000
00FFF800
01FFFC00
01FFFE00
03FFFF00
07FFFF00
07FFFF00
0FFFFF80
1FFFFF80
1FFFFF80
3FF1FF80
3FE0FFC0
7FE0FFC0
7FC0FFC0
FFC0FFC0
FFC0FFC0
FFC1FF80
FFC1FF80
FFE3FF80
FFFFFF80
FFFFFF00
FFFFFF00
FFFFFE00
FFFFFE00
FFFFFC00
7FFFFC00
7FFFF800
7FFFF800
3FFFF000
1FFFE000
0FFF8000
03FE0000
ENDCHAR
STARTCHAR 00F6
ENCODING 246
SWIDTH 520 0
DWIDTH 26 0
BBX 26 41 4 0
BITMAP
00006000
00F0F800
01F1F800
01F1F000
01F1F000
00E0C000
000E0000
001F8000
003FE000
007FF000
00FFF800
01FFFC00
01FFFE00
03FFFF00
07FFFF00
07FFFF00
0FFFFF80
1FFFFF80
1FFFFF80
3FF1FF80
3FE0FFC0
7FE0FFC0
7FC0FFC0
FFC0FFC0
FFC0FFC0
FFC1FF80
FFC1FF80
FFE3FF80
FFFFFF80
FFFFFF00
FFFFFF00
FFFFFE00
FFFFFE00
FFFFFC00
7FFFFC00
7FFFF800
7FFFF800
3FFFF000
1FFFE000
0FFF8000
03FE0000
ENDCHAR
STARTCHAR 00F7
ENCODING 247
SWIDTH 480 0
DWIDTH 24 0
BBX 23 27 4 4
BITMAP
000700
001FC0
001FC0
003FC0
003FC0
007F80
003F80
001F00
000000
000000
7FFFFE
7FFFFE
7FFFFE
7FFFFE
FFFFFE
FFFFFE
7F8000
000000
004000
00F800
01FC00
03FC00
03FC00
03F800
03F800
03F000
00C000
ENDCHAR
STARTCHAR 00F8
ENCODING 248
SWIDTH 520 0
DWIDTH 26 0
BBX 34 36 0 0
BITMAP
0000E03FC0
0001F83FC0
0003FE7F80
0007FFFF00
000FFFFE00
001FFFFE00
001FFFFC00
003FFFF800
007FFFF000
007FFFF000
00FFFFF800
01FFFFF800
01FFFFF800
03FEFFF800
03FDFFFC00
07F9FFFC00
07F3FFFC00
0FE7F7FC00
0FEFE7FC00
0FEFE7F800
0FFFCFF800
0FFF9FF800
0FFF3FF800
0FFFFFF000
0FFFFFF000
0FFFFFE000
0FFFFFE000
0FFFFFC000
07FFFFC000
0FFFFF8000
1FFFFF8000
3FFFFF0000
7FFFFE0000
FEFFF80000
9C3FE00000
0800000000
ENDCHAR
STARTCHAR 00F9
ENCODING 249
SWIDTH 540 0
DWIDTH 27 0
BBX 29 42 4 1
BITMAP
000FE000
000FE000
0007F000
0003F000
0003F000
0001F800
0000F800
00008000
00000000
01F803F0
01FC07F8
03FC07F8
03F807F8
07F807F8
07F807F0
0FF007F0
0FF00FF0
0FF00FF0
1FE00FF0
1FE01FE0
3FE01FE0
3FE01FE0
3FC03FE0
7FC03FE0
7FC07FE0
7FC07FC0
7FE07FC0
FFF0FFC0
FFFFFF80
FFFFFF80
FFFFFF00
FFFFFF00
FFFFFE00
FFFFFC00
FFFFFC00
FFFFF800
7FFFF000
7FFFE000
7FFFC000
3FFF8000
1FFF0000
03FC0000
ENDCHAR
STARTCHAR 00FA
ENCODING 250
SWIDTH 540 0
DWIDTH 27 0
BBX 29 42 4 1
BITMAP
000003F0
000007F0
00000FE0
00001FC0
00003F80
00003E00
00007C00
00000800
00000000
01F803F0
01FC07F8
03FC07F8
03F807F8
07F807F8
07F807F0
0FF007F0
0FF00FF0
0FF00FF0
1FE00FF0
1FE01FE0
3FE01FE0
3FE01FE0
3FC03FE0
7FC03FE0
7FC07FE0
7FC07FC0
7FE07FC0
FFF0FFC0
FFFFFF80
FFFFFF80
FFFFFF00
FFFFFF00
FFFFFE00
FFFFFC00
FFFFFC00
FFFFF800
7FFFF000
7FFFE000
7FFFC000
3FFF8000
1FFF0000
03FC0000
ENDCHAR
STARTCHAR 00FB
ENCODING 251
SWIDTH 540 0
DWIDTH 27 0
BBX 29 42 4 1
BITMAP
00001E00
00007F00
0001FF80
0003FFC0
0007FFC0
000FE7E0
000F83E0
00000100
00000000
01F803F0
01FC07F8
03FC07F8
03F807F8
07F807F8
07F807F0
0FF007F0
0FF00FF0
0FF00FF0
1FE00FF0
1FE01FE0
3FE01FE0
3FE01FE0
3FC03FE0
7FC03FE0
7FC07FE0
7FC07FC0
7FE07FC0
FFF0FFC0
FFFFFF80
FFFFFF80
FFFFFF00
FFFFFF00
FFFFFE00
FFFFFC00
FFFFFC00
FFFFF800
7FFFF000
7FFFE000
7FFFC000
3FFF8000
1FFF0000
03FC0000
ENDCHAR
STARTCHAR 00FC
ENCODING 252
SWIDTH 540 0
DWIDTH 27 0
BBX 29 40 4 1
BITMAP
00008000
0007C3C0
0007C7C0
0007C7C0
0007C7C0
00030380
00000000
01F803F0
01FC07F8
03FC07F8
03F807F8
07F807F8
07F807F0
0FF007F0
0FF00FF0
0FF00FF0
1FE00FF0
1FE01FE0
3FE01FE0
3FE01FE0
3FC03FE0
7FC03FE0
7FC07FE0
7FC07FC0
7FE07FC0
FFF0FFC0
FFFFFF80
FFFFFF80
FFFFFF00
FFFFFF00
FFFFFE00
FFFFFC00
FFFFFC00
FFFFF800
7FFFF000
7FFFE000
7FFFC000
3FFF8000
1FFF0000
03FC0000
ENDCHAR
STARTCHAR 00FD
ENCODING 253
SWIDTH 600 0
DWIDTH 30 0
BBX 30 43 7 0
BITMAP
00001FC0
00003F80
00007F00
00007E00
0000FC00
0001F800
0001F000
00002000
00000000
000003FC
038007F8
3F8007F0
FFC00FF0
FFC01FE0
FFC01FE0
7FC03FC0
7FE07F80
7FE0FF80
3FE0FF00
3FE1FE00
3FF3FC00
1FF7FC00
1FF7F800
1FFFF000
1FFFF000
0FFFE000
0FFFC000
0FFFC000
07FF8000
07FF0000
07FF0000
03FE0000
03FC0000
03FC0000
03FC0000
03FC0000
03FC0000
03FC0000
07FC0000
07FC0000
07FC0000
07F80000
07E00000
ENDCHAR
STARTCHAR 00FE
ENCODING 254
SWIDTH 500 0
DWIDTH 25 0
BBX 25 34 3 0
BITMAP
07FC0000
07FC0000
07FC0000
0FF80000
0FFF0000
0FFFF000
0FFFFC00
0FFFFE00
0FFFFE00
1FFFFF00
1FFFFF00
1FF3FF00
1FF07F00
1FE03F00
1FE03F80
3FE03F80
3FE07F00
3FE07F00
3FE0FF00
3FE0FF00
3FE1FF00
3FEFFF00
3FFFFF00
7FFFFE00
7FFFFC00
7FFFF000
7FFFE000
7FE00000
FFC00000
FFC00000
FFC00000
FFC00000
FF800000
FF800000
ENDCHAR
STARTCHAR 00FF
ENCODING 255
SWIDTH 600 0
DWIDTH 30 0
BBX 30 41 7 0
BITMAP
00000C00
001E1F00
003E3F00
003E3E00
007E3E00
003C1800
00000000
000003FC
038007F8
3F8007F0
FFC00FF0
FFC01FE0
FFC01FE0
7FC03FC0
7FE07F80
7FE0FF80
3FE0FF00
3FE1FE00
3FF3FC00
1FF7FC00
1FF7F800
1FFFF000
1FFFF000
0FFFE000
0FFFC000
0FFFC000
07FF8000
07FF0000
07FF0000
03FE0000
03FC0000
03FC0000
03FC0000
03FC0000
03FC0000
03FC0000
07FC0000
07FC0000
07FC0000
07F80000
07E00000
ENDCHAR
STARTCHAR 0100
ENCODING 256
SWIDTH 620 0
DWIDTH 31 0
BBX 32 41 1 -1
BITMAP
00007FFF
00007FFF
00007FFE
0000FFFE
00000000
00000000
00000180
00000FC0
00000FC0
00001FC0
00003FC0
00003FC0
00007FC0
00007FC0
0000FFC0
0000FFC0
0001FFC0
0003FFC0
0003FFC0
0007FFC0
0007FFE0
000FFFE0
001FFFE0
001FFFE0
003F7FE0
007E3FE0
007C3FE0
00F83FE0
01F03FE0
01FFFFE0
03FFFFF0
07FFFFF0
07FFFFF0
0FFC7FF0
1FF07FF0
1FE07FF8
3FC07FF8
7FC07FF8
7FC07FF8
FFC07FFC
FE002000
ENDCHAR
STARTCHAR 0101
ENCODING 257
SWIDTH 620 0
DWIDTH 31 0
BBX 32 41 1 -1
BITMAP
00007FFF
00007FFF
00007FFE
0000FFFE
00000000
00000000
00000180
00000FC0
00000FC0
00001FC0
00003FC0
00003FC0
00007FC0
00007FC0
0000FFC0
0000FFC0
0001FFC0
0003FFC0
0003FFC0
0007FFC0
0007FFE0
000FFFE0
001FFFE0
001FFFE0
003F7FE0
007E3FE0
007C3FE0
00F83FE0
01F03FE0
01FFFFE0
03FFFFF0
07FFFFF0
07FFFFF0
0FFC7FF0
1FF07FF0
1FE07FF8
3FC07FF8
7FC07FF8
7FC07FF8
FFC07FFC
FE002000
ENDCHAR
STARTCHAR 0102
ENCODING 258
SWIDTH 620 0
DWIDTH 31 0
BBX 32 44 1 -1
BITMAP
0000780F
0000781F
00007C7E
00007FFE
00003FFC
00003FF8
00001FE0
00000700
00000000
00000180
00000FC0
00000FC0
00001FC0
00003FC0
00003FC0
00007FC0
00007FC0
0000FFC0
0000FFC0
0001FFC0
0003FFC0
0003FFC0
0007FFC0
0007FFE0
000FFFE0
001FFFE0
001FFFE0
003F7FE0
007E3FE0
007C3FE0
00F83FE0
01F03FE0
01FFFFE0
03FFFFF0
07FFFFF0
07FFFFF0
0FFC7FF0
1FF07FF0
1FE07FF8
3FC07FF8
7FC07FF8
7FC07FF8
FFC07FFC
FE002000
ENDCHAR
STARTCHAR 0103
ENCODING 259
SWIDTH 620 0
DWIDTH 31 0
BBX 32 44 1 -1
BITMAP
0000780F
0000781F
00007C7E
00007FFE
00003FFC
00003FF8
00001FE0
00000700
00000000
00000180
00000FC0
00000FC0
00001FC0
00003FC0
00003FC0
00007FC0
00007FC0
0000FFC0
0000FFC0
0001FFC0
0003FFC0
0003FFC0
0007FFC0
0007FFE0
000FFFE0
001FFFE0
001FFFE0
003F7FE0
007E3FE0
007C3FE0
00F83FE0
01F03FE0
01FFFFE0
03FFFFF0
07FFFFF0
07FFFFF0
0FFC7FF0
1FF07FF0
1FE07FF8
3FC07FF8
7FC07FF8
7FC07FF8
FFC07FFC
FE002000
ENDCHAR
STARTCHAR 0104
ENCODING 260
SWIDTH 620 0
DWIDTH 31 0
BBX 30 42 1 -8
BITMAP
00000180
00000FC0
00000FC0
00001FC0
00003FC0
00003FC0
00007FC0
00007FC0
0000FFC0
0000FFC0
0001FFC0
0003FFC0
0003FFC0
0007FFC0
0007FFE0
000FFFE0
001FFFE0
001FFFE0
003F7FE0
007E3FE0
007C3FE0
00F83FE0
01F03FE0
01FFFFE0
03FFFFF0
07FFFFF0
07FFFFF0
0FFC7FF0
1FF07FF0
1FE07FF8
3FC07FF8
7FC07FF8
7FC07FF8
FFC07FFC
FE00F000
0001F000
0001E000
0003E000
0003F7E0
0003FFE0
0003FFC0
0001FFC0
ENDCHAR
STARTCHAR 0105
ENCODING 261
SWIDTH 620 0
DWIDTH 31 0
BBX 30 42 1 -8
BITMAP
00000180
00000FC0
00000FC0
00001FC0
00003FC0
00003FC0
00007FC0
00007FC0
0000FFC0
0000FFC0
0001FFC0
0003FFC0
0003FFC0
0007FFC0
0007FFE0
000FFFE0
001FFFE0
001FFFE0
003F7FE0
007E3FE0
007C3FE0
00F83FE0
01F03FE0
01FFFFE0
03FFFFF0
07FFFFF0
07FFFFF0
0FFC7FF0
1FF07FF0
1FE07FF8
3FC07FF8
7FC07FF8
7FC07FF8
FFC07FFC
FE00F000
0001F000
0001E000
0003E000
0003F7E0
0003FFE0
0003FFC0
0001FFC0
ENDCHAR
STARTCHAR 0106
ENCODING 262
SWIDTH 480 0
DWIDTH 24 0
BBX 28 42 4 0
BITMAP
000007F0
000007F0
00000FC0
00001F80
00003F00
00007E00
00007C00
00000800
00000000
0001F800
000FFF00
007FFF80
00FFFFC0
01FFFFC0
07FFFFC0
07FFFFC0
0FFFFF80
1FFFFF80
1FFFF500
3FFE0000
3FF80000
7FF00000
7FE00000
7FE00000
7FE00000
7FE00000
FFE00000
FFE00400
FFF9FC00
FFFFFC00
FFFFFC00
FFFFFC00
FFFFFC00
FFFFF800
FFFFF800
FFFFF800
7FFFF800
7FFFF000
7FFFC000
3FFFC000
3FFF0000
07FC0000
ENDCHAR
STARTCHAR 0107
ENCODING 263
SWIDTH 480 0
DWIDTH 24 0
BBX 28 42 4 0
BITMAP
000007F0
000007F0
00000FC0
00001F80
00003F00
00007E00
00007C00
00000800
00000000
0001F800
000FFF00
007FFF80
00FFFFC0
01FFFFC0
07FFFFC0
07FFFFC0
0FFFFF80
1FFFFF80
1FFFF500
3FFE0000
3FF80000
7FF00000
7FE00000
7FE00000
7FE00000
7FE00000
FFE00000
FFE00400
FFF9FC00
FFFFFC00
FFFFFC00
FFFFFC00
FFFFFC00
FFFFF800
FFFFF800
FFFFF800
7FFFF800
7FFFF000
7FFFC000
3FFFC000
3FFF0000
07FC0000
ENDCHAR
STARTCHAR 0108
ENCODING 264
SWIDTH 480 0
DWIDTH 24 0
BBX 26 42 4 0
BITMAP
00003C00
0000FE00
0001FF00
0003FF80
000FFFC0
001FCFC0
001F87C0
00000200
00000000
0001F800
000FFF00
007FFF80
00FFFFC0
01FFFFC0
07FFFFC0
07FFFFC0
0FFFFF80
1FFFFF80
1FFFF500
3FFE0000
3FF80000
7FF00000
7FE00000
7FE00000
7FE00000
7FE00000
FFE00000
FFE00400
FFF9FC00
FFFFFC00
FFFFFC00
FFFFFC00
FFFFFC00
FFFFF800
FFFFF800
FFFFF800
7FFFF800
7FFFF000
7FFFC000
3FFFC000
3FFF0000
07FC0000
ENDCHAR
STARTCHAR 0109
ENCODING 265
SWIDTH 480 0
DWIDTH 24 0
BBX 26 42 4 0
BITMAP
00003C00
0000FE00
0001FF00
0003FF80
000FFFC0
001FCFC0
001F87C0
00000200
00000000
0001F800
000FFF00
007FFF80
00FFFFC0
01FFFFC0
07FFFFC0
07FFFFC0
0FFFFF80
1FFFFF80
1FFFF500
3FFE0000
3FF80000
7FF00000
7FE00000
7FE00000
7FE00000
7FE00000
FFE00000
FFE00400
FFF9FC00
FFFFFC00
FFFFFC00
FFFFFC00
FFFFFC00
FFFFF800
FFFFF800
FFFFF800
7FFFF800
7FFFF000
7FFFC000
3FFFC000
3FFF0000
07FC0000
ENDCHAR
STARTCHAR 010A
ENCODING 266
SWIDTH 480 0
DWIDTH 24 0
BBX 26 39 4 0
BITMAP
00007800
0000F800
0000F800
0000F800
00007000
00000000
0001F800
000FFF00
007FFF80
00FFFFC0
01FFFFC0
07FFFFC0
07FFFFC0
0FFFFF80
1FFFFF80
1FFFF500
3FFE0000
3FF80000
7FF00000
7FE00000
7FE00000
7FE00000
7FE00000
FFE00000
FFE00400
FFF9FC00
FFFFFC00
FFFFFC00
FFFFFC00
FFFFFC00
FFFFF800
FFFFF800
FFFFF800
7FFFF800
7FFFF000
7FFFC000
3FFFC000
3FFF0000
07FC0000
ENDCHAR
STARTCHAR 010B
ENCODING 267
SWIDTH 480 0
DWIDTH 24 0
BBX 26 39 4 0
BITMAP
00007800
0000F800
0000F800
0000F800
00007000
00000000
0001F800
000FFF00
007FFF80
00FFFFC0
01FFFFC0
07FFFFC0
07FFFFC0
0FFFFF80
1FFFFF80
1FFFF500
3FFE0000
3FF80000
7FF00000
7FE00000
7FE00000
7FE00000
7FE00000
FFE00000
FFE00400
FFF9FC00
FFFFFC00
FFFFFC00
FFFFFC00
FFFFFC00
FFFFF800
FFFFF800
FFFFF800
7FFFF800
7FFFF000
7FFFC000
3FFFC000
3FFF0000
07FC0000
ENDCHAR
STARTCHAR 010C
ENCODING 268
SWIDTH 480 0
DWIDTH 24 0
BBX 27 42 4 0
BITMAP
000781E0
000FC7E0
000FFFE0
0007FFC0
0003FF00
0001FE00
0000F800
00006000
00000000
0001F800
000FFF00
007FFF80
00FFFFC0
01FFFFC0
07FFFFC0
07FFFFC0
0FFFFF80
1FFFFF80
1FFFF500
3FFE0000
3FF80000
7FF00000
7FE00000
7FE00000
7FE00000
7FE00000
FFE00000
FFE00400
FFF9FC00
FFFFFC00
FFFFFC00
FFFFFC00
FFFFFC00
FFFFF800
FFFFF800
FFFFF800
7FFFF800
7FFFF000
7FFFC000
3FFFC000
3FFF0000
07FC0000
ENDCHAR
STARTCHAR 010D
ENCODING 269
SWIDTH 480 0
DWIDTH 24 0
BBX 27 42 4 0
BITMAP
000781E0
000FC7E0
000FFFE0
0007FFC0
0003FF00
0001FE00
0000F800
00006000
00000000
0001F800
000FFF00
007FFF80
00FFFFC0
01FFFFC0
07FFFFC0
07FFFFC0
0FFFFF80
1FFFFF80
1FFFF500
3FFE0000
3FF80000
7FF00000
7FE00000
7FE00000
7FE00000
7FE00000
FFE00000
FFE00400
FFF9FC00
FFFFFC00
FFFFFC00
FFFFFC00
FFFFFC00
FFFFF800
FFFFF800
FFFFF800
7FFFF800
7FFFF000
7FFFC000
3FFFC000
3FFF0000
07FC0000
ENDCHAR
STARTCHAR 010E
ENCODING 270
SWIDTH 460 0
DWIDTH 23 0
BBX 22 44 5 0
BITMAP
0000E0
0383F0
07C7E0
0FFFC0
07FF80
03FF00
01FE00
007800
000000
000000
07F800
1FFE00
3FFFC0
3FFFC0
3FFFE0
3FFFF0
3FFFF0
7FFFF8
7FFFF8
7FE7F8
7FC1FC
7FC0FC
7F81FC
7F81FC
7F81FC
FF83F8
FF83F8
FF87F0
FF8FE0
FF9FE0
FFFFC0
FFFF80
FFFF80
FFFF00
FFFE00
FFFC00
FFFC00
FFF800
FFF000
FFC000
FF8000
FE0000
F00000
400000
ENDCHAR
STARTCHAR 010F
ENCODING 271
SWIDTH 460 0
DWIDTH 23 0
BBX 22 44 5 0
BITMAP
0000E0
0383F0
07C7E0
0FFFC0
07FF80
03FF00
01FE00
007800
000000
000000
07F800
1FFE00
3FFFC0
3FFFC0
3FFFE0
3FFFF0
3FFFF0
7FFFF8
7FFFF8
7FE7F8
7FC1FC
7FC0FC
7F81FC
7F81FC
7F81FC
FF83F8
FF83F8
FF87F0
FF8FE0
FF9FE0
FFFFC0
FFFF80
FFFF80
FFFF00
FFFE00
FFFC00
FFFC00
FFF800
FFF000
FFC000
FF8000
FE0000
F00000
400000
ENDCHAR
STARTCHAR 0110
ENCODING 272
SWIDTH 480 0
DWIDTH 24 0
BBX 24 34 4 0
BITMAP
01FE00
07FFC0
07FFF0
07FFF8
07FFFC
0FFFFC
0FFFFE
0FFFFE
0FFFFF
0FF8FF
0FF87F
1FFE3F
1FFE3F
FFFE3F
FFFE7F
FFFE7F
FFFEFE
FFF1FE
FFE3FC
5FE7F8
1FFFF8
1FFFF0
1FFFE0
1FFFE0
1FFFC0
1FFF80
1FFF00
1FFE00
1FFC00
1FF800
1FE000
1F8000
1E0000
180000
ENDCHAR
STARTCHAR 0111
ENCODING 273
SWIDTH 480 0
DWIDTH 24 0
BBX 24 34 4 0
BITMAP
01FE00
07FFC0
07FFF0
07FFF8
07FFFC
0FFFFC
0FFFFE
0FFFFE
0FFFFF
0FF8FF
0FF87F
1FFE3F
1FFE3F
FFFE3F
FFFE7F
FFFE7F
FFFEFE
FFF1FE
FFE3FC
5FE7F8
1FFFF8
1FFFF0
1FFFE0
1FFFE0
1FFFC0
1FFF80
1FFF00
1FFE00
1FFC00
1FF800
1FE000
1F8000
1E0000
180000
ENDCHAR
STARTCHAR 0112
ENCODING 274
SWIDTH 480 0
DWIDTH 24 0
BBX 20 41 6 0
BITMAP
000FC0
1FFFC0
1FFFC0
1FFFC0
1FF800
1C0000
01FF00
0FFFF0
3FFFF0
3FFFE0
3FFFE0
3FFFC0
3FFFC0
3FFFC0
3FFF80
3FFF80
3FFF00
3FC000
3FC000
3FC000
3FC700
3FFF00
3FFE00
3FFE00
3FFE00
3FFA00
3FC000
7FC000
7FFFE0
7FFFE0
7FFFE0
7FFFE0
7FFFE0
7FFFE0
7FFFE0
7FFFE0
FFFFE0
FFFFC0
FFFC00
FFC000
780000
ENDCHAR
STARTCHAR 0113
ENCODING 275
SWIDTH 480 0
DWIDTH 24 0
BBX 20 41 6 0
BITMAP
000FC0
1FFFC0
1FFFC0
1FFFC0
1FF800
1C0000
01FF00
0FFFF0
3FFFF0
3FFFE0
3FFFE0
3FFFC0
3FFFC0
3FFFC0
3FFF80
3FFF80
3FFF00
3FC000
3FC000
3FC000
3FC700
3FFF00
3FFE00
3FFE00
3FFE00
3FFA00
3FC000
7FC000
7FFFE0
7FFFE0
7FFFE0
7FFFE0
7FFFE0
7FFFE0
7FFFE0
7FFFE0
FFFFE0
FFFFC0
FFFC00
FFC000
780000
ENDCHAR
STARTCHAR 0114
ENCODING 276
SWIDTH 480 0
DWIDTH 24 0
BBX 20 44 6 0
BITMAP
0001E0
0F03E0
0F07C0
0FFFC0
0FFF80
07FF00
07FE00
01F800
000000
01FF00
0FFFF0
3FFFF0
3FFFE0
3FFFE0
3FFFC0
3FFFC0
3FFFC0
3FFF80
3FFF80
3FFF00
3FC000
3FC000
3FC000
3FC700
3FFF00
3FFE00
3FFE00
3FFE00
3FFA00
3FC000
7FC000
7FFFE0
7FFFE0
7FFFE0
7FFFE0
7FFFE0
7FFFE0
7FFFE0
7FFFE0
FFFFE0
FFFFC0
FFFC00
FFC000
780000
ENDCHAR
STARTCHAR 0115
ENCODING 277
SWIDTH 480 0
DWIDTH 24 0
BBX 20 44 6 0
BITMAP
0001E0
0F03E0
0F07C0
0FFFC0
0FFF80
07FF00
07FE00
01F800
000000
01FF00
0FFFF0
3FFFF0
3FFFE0
3FFFE0
3FFFC0
3FFFC0
3FFFC0
3FFF80
3FFF80
3FFF00
3FC000
3FC000
3FC000
3FC700
3FFF00
3FFE00
3FFE00
3FFE00
3FFA00
3FC000
7FC000
7FFFE0
7FFFE0
7FFFE0
7FFFE0
7FFFE0
7FFFE0
7FFFE0
7FFFE0
FFFFE0
FFFFC0
FFFC00
FFC000
780000
ENDCHAR
STARTCHAR 0116
ENCODING 278
SWIDTH 480 0
DWIDTH 24 0
BBX 20 41 6 0
BITMAP
007800
00F800
00F800
01F800
00F000
000000
01FF00
0FFFF0
3FFFF0
3FFFE0
3FFFE0
3FFFC0
3FFFC0
3FFFC0
3FFF80
3FFF80
3FFF00
3FC000
3FC000
3FC000
3FC700
3FFF00
3FFE00
3FFE00
3FFE00
3FFA00
3FC000
7FC000
7FFFE0
7FFFE0
7FFFE0
7FFFE0
7FFFE0
7FFFE0
7FFFE0
7FFFE0
FFFFE0
FFFFC0
FFFC00
FFC000
780000
ENDCHAR
STARTCHAR 0117
ENCODING 279
SWIDTH 480 0
DWIDTH 24 0
BBX 20 41 6 0
BITMAP
007800
00F800
00F800
01F800
00F000
000000
01FF00
0FFFF0
3FFFF0
3FFFE0
3FFFE0
3FFFC0
3FFFC0
3FFFC0
3FFF80
3FFF80
3FFF00
3FC000
3FC000
3FC000
3FC700
3FFF00
3FFE00
3FFE00
3FFE00
3FFA00
3FC000
7FC000
7FFFE0
7FFFE0
7FFFE0
7FFFE0
7FFFE0
7FFFE0
7FFFE0
7FFFE0
FFFFE0
FFFFC0
FFFC00
FFC000
780000
ENDCHAR
STARTCHAR 0118
ENCODING 280
SWIDTH 480 0
DWIDTH 24 0
BBX 20 42 6 -7
BITMAP
01FF00
0FFFF0
3FFFF0
3FFFE0
3FFFE0
3FFFC0
3FFFC0
3FFFC0
3FFF80
3FFF80
3FFF00
3FC000
3FC000
3FC000
3FC700
3FFF00
3FFE00
3FFE00
3FFE00
3FFA00
3FC000
7FC000
7FFFE0
7FFFE0
7FFFE0
7FFFE0
7FFFE0
7FFFE0
7FFFE0
7FFFE0
FFFFE0
FFFFC0
FFFC00
FFE000
79C000
03C000
078000
0F8180
0FDF80
0FFF80
0FFF80
0FFF00
ENDCHAR
STARTCHAR 0119
ENCODING 281
SWIDTH 480 0
DWIDTH 24 0
BBX 20 42 6 -7
BITMAP
01FF00
0FFFF0
3FFFF0
3FFFE0
3FFFE0
3FFFC0
3FFFC0
3FFFC0
3FFF80
3FFF80
3FFF00
3FC000
3FC000
3FC000
3FC700
3FFF00
3FFE00
3FFE00
3FFE00
3FFA00
3FC000
7FC000
7FFFE0
7FFFE0
7FFFE0
7FFFE0
7FFFE0
7FFFE0
7FFFE0
7FFFE0
FFFFE0
FFFFC0
FFFC00
FFE000
79C000
03C000
078000
0F8180
0FDF80
0FFF80
0FFF80
0FFF00
ENDCHAR
STARTCHAR 011A
ENCODING 282
SWIDTH 480 0
DWIDTH 24 0
BBX 20 44 6 0
BITMAP
0001C0
0707E0
0F8FC0
1FFF80
0FFF00
07FE00
03FC00
00F000
000000
01FF00
0FFFF0
3FFFF0
3FFFE0
3FFFE0
3FFFC0
3FFFC0
3FFFC0
3FFF80
3FFF80
3FFF00
3FC000
3FC000
3FC000
3FC700
3FFF00
3FFE00
3FFE00
3FFE00
3FFA00
3FC000
7FC000
7FFFE0
7FFFE0
7FFFE0
7FFFE0
7FFFE0
7FFFE0
7FFFE0
7FFFE0
FFFFE0
FFFFC0
FFFC00
FFC000
780000
ENDCHAR
STARTCHAR 011B
ENCODING 283
SWIDTH 480 0
DWIDTH 24 0
BBX 20 44 6 0
BITMAP
0001C0
0707E0
0F8FC0
1FFF80
0FFF00
07FE00
03FC00
00F000
000000
01FF00
0FFFF0
3FFFF0
3FFFE0
3FFFE0
3FFFC0
3FFFC0
3FFFC0
3FFF80
3FFF80
3FFF00
3FC000
3FC000
3FC000
3FC700
3FFF00
3FFE00
3FFE00
3FFE00
3FFA00
3FC000
7FC000
7FFFE0
7FFFE0
7FFFE0
7FFFE0
7FFFE0
7FFFE0
7FFFE0
7FFFE0
FFFFE0
FFFFC0
FFFC00
FFC000
780000
ENDCHAR
STARTCHAR 011C
ENCODING 284
SWIDTH 500 0
DWIDTH 25 0
BBX 27 42 3 0
BITMAP
00003C00
0000FE00
0001FF00
0007FF80
000FFFC0
001FCFC0
001F87C0
00000200
00000000
0003FE00
0007FF80
001FFFC0
001FFFC0
007FFFE0
007FFFE0
00FFFFC0
01FF9F80
03FC0000
03F80000
07F00000
07E00000
0FE00000
0FC00000
1FC01FC0
1F83FF80
1F83FF80
3F83FF80
3F83FF00
7F83FF00
7F83FF00
7F83FF00
FF87FF00
FFFFFE00
FFFFFE00
FFFFFE00
FFFFFE00
FFFFF800
FFFFF000
FFFFC000
7FFF0000
3FFC0000
1FE00000
ENDCHAR
STARTCHAR 011D
ENCODING 285
SWIDTH 500 0
DWIDTH 25 0
BBX 27 42 3 0
BITMAP
00003C00
0000FE00
0001FF00
0007FF80
000FFFC0
001FCFC0
001F87C0
00000200
00000000
0003FE00
0007FF80
001FFFC0
001FFFC0
007FFFE0
007FFFE0
00FFFFC0
01FF9F80
03FC0000
03F80000
07F00000
07E00000
0FE00000
0FC00000
1FC01FC0
1F83FF80
1F83FF80
3F83FF80
3F83FF00
7F83FF00
7F83FF00
7F83FF00
FF87FF00
FFFFFE00
FFFFFE00
FFFFFE00
FFFFFE00
FFFFF800
FFFFF000
FFFFC000
7FFF0000
3FFC0000
1FE00000
ENDCHAR
STARTCHAR 011E
ENCODING 286
SWIDTH 500 0
DWIDTH 25 0
BBX 27 42 3 0
BITMAP
000F01E0
000F03E0
000F8FC0
000FFFC0
0007FF80
0007FF00
0003FC00
0000E000
00000000
0003FE00
0007FF80
001FFFC0
001FFFC0
007FFFE0
007FFFE0
00FFFFC0
01FF9F80
03FC0000
03F80000
07F00000
07E00000
0FE00000
0FC00000
1FC01FC0
1F83FF80
1F83FF80
3F83FF80
3F83FF00
7F83FF00
7F83FF00
7F83FF00
FF87FF00
FFFFFE00
FFFFFE00
FFFFFE00
FFFFFE00
FFFFF800
FFFFF000
FFFFC000
7FFF0000
3FFC0000
1FE00000
ENDCHAR
STARTCHAR 011F
ENCODING 287
SWIDTH 500 0
DWIDTH 25 0
BBX 27 42 3 0
BITMAP
000F01E0
000F03E0
000F8FC0
000FFFC0
0007FF80
0007FF00
0003FC00
0000E000
00000000
0003FE00
0007FF80
001FFFC0
001FFFC0
007FFFE0
007FFFE0
00FFFFC0
01FF9F80
03FC0000
03F80000
07F00000
07E00000
0FE00000
0FC00000
1FC01FC0
1F83FF80
1F83FF80
3F83FF80
3F83FF00
7F83FF00
7F83FF00
7F83FF00
FF87FF00
FFFFFE00
FFFFFE00
FFFFFE00
FFFFFE00
FFFFF800
FFFFF000
FFFFC000
7FFF0000
3FFC0000
1FE00000
ENDCHAR
STARTCHAR 0120
ENCODING 288
SWIDTH 500 0
DWIDTH 25 0
BBX 27 39 3 0
BITMAP
00007800
0000F800
0000F800
0001F000
0000F000
00000000
0003FE00
0007FF80
001FFFC0
001FFFC0
007FFFE0
007FFFE0
00FFFFC0
01FF9F80
03FC0000
03F80000
07F00000
07E00000
0FE00000
0FC00000
1FC01FC0
1F83FF80
1F83FF80
3F83FF80
3F83FF00
7F83FF00
7F83FF00
7F83FF00
FF87FF00
FFFFFE00
FFFFFE00
FFFFFE00
FFFFFE00
FFFFF800
FFFFF000
FFFFC000
7FFF0000
3FFC0000
1FE00000
ENDCHAR
STARTCHAR 0121
ENCODING 289
SWIDTH 500 0
DWIDTH 25 0
BBX 27 39 3 0
BITMAP
00007800
0000F800
0000F800
0001F000
0000F000
00000000
0003FE00
0007FF80
001FFFC0
001FFFC0
007FFFE0
007FFFE0
00FFFFC0
01FF9F80
03FC0000
03F80000
07F00000
07E00000
0FE00000
0FC00000
1FC01FC0
1F83FF80
1F83FF80
3F83FF80
3F83FF00
7F83FF00
7F83FF00
7F83FF00
FF87FF00
FFFFFE00
FFFFFE00
FFFFFE00
FFFFFE00
FFFFF800
FFFFF000
FFFFC000
7FFF0000
3FFC0000
1FE00000
ENDCHAR
STARTCHAR 0122
ENCODING 290
SWIDTH 500 0
DWIDTH 25 0
BBX 27 42 3 -8
BITMAP
0003FE00
0007FF80
001FFFC0
001FFFC0
007FFFE0
007FFFE0
00FFFFC0
01FF9F80
03FC0000
03F80000
07F00000
07E00000
0FE00000
0FC00000
1FC01FC0
1F83FF80
1F83FF80
3F83FF80
3F83FF00
7F83FF00
7F83FF00
7F83FF00
FF87FF00
FFFFFE00
FFFFFE00
FFFFFE00
FFFFFE00
FFFFF800
FFFFF000
FFFFC000
7FFF0000
3FFC0000
1FE00000
00000000
00000000
1FC00000
1FC00000
1F800000
3F800000
3F000000
7E000000
3C000000
ENDCHAR
STARTCHAR 0123
ENCODING 291
SWIDTH 500 0
DWIDTH 25 0
BBX 27 42 3 -8
BITMAP
0003FE00
0007FF80
001FFFC0
001FFFC0
007FFFE0
007FFFE0
00FFFFC0
01FF9F80
03FC0000
03F80000
07F00000
07E00000
0FE00000
0FC00000
1FC01FC0
1F83FF80
1F83FF80
3F83FF80
3F83FF00
7F83FF00
7F83FF00
7F83FF00
FF87FF00
FFFFFE00
FFFFFE00
FFFFFE00
FFFFFE00
FFFFF800
FFFFF000
FFFFC000
7FFF0000
3FFC0000
1FE00000
00000000
00000000
1FC00000
1FC00000
1F800000
3F800000
3F000000
7E000000
3C000000
ENDCHAR
STARTCHAR 0124
ENCODING 292
SWIDTH 560 0
DWIDTH 28 0
BBX 33 42 1 1
BITMAP
000000F000
000003F800
00000FFC00
00001FFE00
00003FFF00
00007F3F00
00007E1F00
0000000800
0000000000
0001F00000
003FF83F80
007FF07F80
007FE0FF80
007FF0FF80
007FE0FF00
007FE1FF00
007FE1FF00
00FFC3FE00
00FFC3FE00
00FFC3FE00
01FFC3FE00
01FFC7FC00
01FFFFFC00
03FFFFFC00
03FFFFF800
03FFFFF800
07FFFFF800
07FFFFF000
07FFFFF800
07FFFFF800
0FFFFFF800
0FFEFFF000
0FFC3FF000
1FFC3FF000
1FFC3FE000
1FFC7FE000
1FF87FE000
3FF87FC000
3FF8FFC000
7FF87FC000
7FF0FF8000
FFF1F80000
ENDCHAR
STARTCHAR 0125
ENCODING 293
SWIDTH 560 0
DWIDTH 28 0
BBX 33 42 1 1
BITMAP
000000F000
000003F800
00000FFC00
00001FFE00
00003FFF00
00007F3F00
00007E1F00
0000000800
0000000000
0001F00000
003FF83F80
007FF07F80
007FE0FF80
007FF0FF80
007FE0FF00
007FE1FF00
007FE1FF00
00FFC3FE00
00FFC3FE00
00FFC3FE00
01FFC3FE00
01FFC7FC00
01FFFFFC00
03FFFFFC00
03FFFFF800
03FFFFF800
07FFFFF800
07FFFFF000
07FFFFF800
07FFFFF800
0FFFFFF800
0FFEFFF000
0FFC3FF000
1FFC3FF000
1FFC3FE000
1FFC7FE000
1FF87FE000
3FF87FC000
3FF8FFC000
7FF87FC000
7FF0FF8000
FFF1F80000
ENDCHAR
STARTCHAR 0126
ENCODING 294
SWIDTH 580 0
DWIDTH 29 0
BBX 34 33 1 1
BITMAP
0001F00000
003FF83F80
007FF07F80
007FE3FF80
03FFFFFFC0
03FFFFFFC0
03FFFFFFC0
03FFFFFF80
07FFFFFF80
07FFFFFF80
03FFC3FE00
01FFC3FE00
01FFC7FC00
01FFFFFC00
03FFFFFC00
03FFFFF800
03FFFFF800
07FFFFF800
07FFFFF000
07FFFFF800
07FFFFF800
0FFFFFF800
0FFEFFF000
0FFC3FF000
1FFC3FF000
1FFC3FE000
1FFC7FE000
1FF87FE000
3FF87FC000
3FF8FFC000
7FF87FC000
7FF0FF8000
FFF1F80000
ENDCHAR
STARTCHAR 0127
ENCODING 295
SWIDTH 580 0
DWIDTH 29 0
BBX 34 33 1 1
BITMAP
0001F00000
003FF83F80
007FF07F80
007FE3FF80
03FFFFFFC0
03FFFFFFC0
03FFFFFFC0
03FFFFFF80
07FFFFFF80
07FFFFFF80
03FFC3FE00
01FFC3FE00
01FFC7FC00
01FFFFFC00
03FFFFFC00
03FFFFF800
03FFFFF800
07FFFFF800
07FFFFF000
07FFFFF800
07FFFFF800
0FFFFFF800
0FFEFFF000
0FFC3FF000
1FFC3FF000
1FFC3FE000
1FFC7FE000
1FF87FE000
3FF87FC000
3FF8FFC000
7FF87FC000
7FF0FF8000
FFF1F80000
ENDCHAR
STARTCHAR 0128
ENCODING 296
SWIDTH 320 0
DWIDTH 16 0
BBX 26 43 1 0
BITMAP
000387C0
0007C7C0
000FFFC0
001FFF80
001FFF80
003FFF00
003CFE00
003C0800
00000000
000FE000
001FFC00
003FF800
003FF800
003FF000
003FF000
007FF000
007FE000
00FFE000
00FFE000
00FFC000
00FFC000
01FFC000
01FFC000
01FF8000
03FF8000
03FF8000
03FF8000
07FF0000
07FF0000
07FF0000
07FF0000
0FFE0000
0FFE0000
0FFE0000
0FFE0000
1FFE0000
1FFE0000
1FFC0000
3FF80000
3FF80000
3FF80000
7FE00000
FC000000
ENDCHAR
STARTCHAR 0129
ENCODING 297
SWIDTH 320 0
DWIDTH 16 0
BBX 26 43 1 0
BITMAP
000387C0
0007C7C0
000FFFC0
001FFF80
001FFF80
003FFF00
003CFE00
003C0800
00000000
000FE000
001FFC00
003FF800
003FF800
003FF000
003FF000
007FF000
007FE000
00FFE000
00FFE000
00FFC000
00FFC000
01FFC000
01FFC000
01FF8000
03FF8000
03FF8000
03FF8000
07FF0000
07FF0000
07FF0000
07FF0000
0FFE0000
0FFE0000
0FFE0000
0FFE0000
1FFE0000
1FFE0000
1FFC0000
3FF80000
3FF80000
3FF80000
7FE00000
FC000000
ENDCHAR
STARTCHAR 012A
ENCODING 298
SWIDTH 320 0
DWIDTH 16 0
BBX 25 40 1 0
BITMAP
001FFF80
001FFF80
003FFF80
003FFF80
00000000
00000000
000FE000
001FFC00
003FF800
003FF800
003FF000
003FF000
007FF000
007FE000
00FFE000
00FFE000
00FFC000
00FFC000
01FFC000
01FFC000
01FF8000
03FF8000
03FF8000
03FF8000
07FF0000
07FF0000
07FF0000
07FF0000
0FFE0000
0FFE0000
0FFE0000
0FFE0000
1FFE0000
1FFE0000
1FFC0000
3FF80000
3FF80000
3FF80000
7FE00000
FC000000
ENDCHAR
STARTCHAR 012B
ENCODING 299
SWIDTH 320 0
DWIDTH 16 0
BBX 25 40 1 0
BITMAP
001FFF80
001FFF80
003FFF80
003FFF80
00000000
00000000
000FE000
001FFC00
003FF800
003FF800
003FF000
003FF000
007FF000
007FE000
00FFE000
00FFE000
00FFC000
00FFC000
01FFC000
01FFC000
01FF8000
03FF8000
03FF8000
03FF8000
07FF0000
07FF0000
07FF0000
07FF0000
0FFE0000
0FFE0000
0FFE0000
0FFE0000
1FFE0000
1FFE0000
1FFC0000
3FF80000
3FF80000
3FF80000
7FE00000
FC000000
ENDCHAR
STARTCHAR 012C
ENCODING 300
SWIDTH 320 0
DWIDTH 16 0
BBX 26 43 1 0
BITMAP
001E03C0
001E07C0
001F9F80
001FFF80
000FFF00
000FFE00
0007F800
0001C000
00000000
000FE000
001FFC00
003FF800
003FF800
003FF000
003FF000
007FF000
007FE000
00FFE000
00FFE000
00FFC000
00FFC000
01FFC000
01FFC000
01FF8000
03FF8000
03FF8000
03FF8000
07FF0000
07FF0000
07FF0000
07FF0000
0FFE0000
0FFE0000
0FFE0000
0FFE0000
1FFE0000
1FFE0000
1FFC0000
3FF80000
3FF80000
3FF80000
7FE00000
FC000000
ENDCHAR
STARTCHAR 012D
ENCODING 301
SWIDTH 320 0
DWIDTH 16 0
BBX 26 43 1 0
BITMAP
001E03C0
001E07C0
001F9F80
001FFF80
000FFF00
000FFE00
0007F800
0001C000
00000000
000FE000
001FFC00
003FF800
003FF800
003FF000
003FF000
007FF000
007FE000
00FFE000
00FFE000
00FFC000
00FFC000
01FFC000
01FFC000
01FF8000
03FF8000
03FF8000
03FF8000
07FF0000
07FF0000
07FF0000
07FF0000
0FFE0000
0FFE0000
0FFE0000
0FFE0000
1FFE0000
1FFE0000
1FFC0000
3FF80000
3FF80000
3FF80000
7FE00000
FC000000
ENDCHAR
STARTCHAR 012E
ENCODING 302
SWIDTH 320 0
DWIDTH 16 0
BBX 22 42 1 -8
BITMAP
000FE0
001FFC
003FF8
003FF8
003FF0
003FF0
007FF0
007FE0
00FFE0
00FFE0
00FFC0
01FFC0
01FFC0
01FFC0
01FF80
03FF80
03FF80
03FF80
07FF00
07FF00
07FF00
07FF00
0FFE00
0FFE00
0FFE00
0FFE00
1FFE00
1FFE00
1FFC00
3FF800
3FF800
3FF800
7FE000
FF0000
1E0000
1E0000
3C0000
7C0000
7EFC00
7FFC00
7FFC00
3FF800
ENDCHAR
STARTCHAR 012F
ENCODING 303
SWIDTH 320 0
DWIDTH 16 0
BBX 22 42 1 -8
BITMAP
000FE0
001FFC
003FF8
003FF8
003FF0
003FF0
007FF0
007FE0
00FFE0
00FFE0
00FFC0
01FFC0
01FFC0
01FFC0
01FF80
03FF80
03FF80
03FF80
07FF00
07FF00
07FF00
07FF00
0FFE00
0FFE00
0FFE00
0FFE00
1FFE00
1FFE00
1FFC00
3FF800
3FF800
3FF800
7FE000
FF0000
1E0000
1E0000
3C0000
7C0000
7EFC00
7FFC00
7FFC00
3FF800
ENDCHAR
STARTCHAR 0130
ENCODING 304
SWIDTH 320 0
DWIDTH 16 0
BBX 22 41 1 0
BITMAP
000060
0000F0
0001F8
0001F0
0001F0
0000C0
000000
000FE0
001FFC
003FF8
003FF8
003FF0
003FF0
007FF0
007FE0
00FFE0
00FFE0
00FFC0
00FFC0
01FFC0
01FFC0
01FF80
03FF80
03FF80
03FF80
07FF00
07FF00
07FF00
07FF00
0FFE00
0FFE00
0FFE00
0FFE00
1FFE00
1FFE00
1FFC00
3FF800
3FF800
3FF800
7FE000
FC0000
ENDCHAR
STARTCHAR 0131
ENCODING 305
SWIDTH 320 0
DWIDTH 16 0
BBX 22 41 1 0
BITMAP
000060
0000F0
0001F8
0001F0
0001F0
0000C0
000000
000FE0
001FFC
003FF8
003FF8
003FF0
003FF0
007FF0
007FE0
00FFE0
00FFE0
00FFC0
00FFC0
01FFC0
01FFC0
01FF80
03FF80
03FF80
03FF80
07FF00
07FF00
07FF00
07FF00
0FFE00
0FFE00
0FFE00
0FFE00
1FFE00
1FFE00
1FFC00
3FF800
3FF800
3FF800
7FE000
FC0000
ENDCHAR
STARTCHAR 0132
ENCODING 306
SWIDTH 600 0
DWIDTH 30 0
BBX 35 34 1 0
BITMAP
001F801C60
003FE03FE0
007FC03FE0
003FC07FC0
007F807FC0
007F807FC0
00FF80FFC0
00FF00FFC0
00FF00FF80
01FF01FF80
01FF01FF80
01FE01FF80
01FE01FF80
03FE03FF80
03FE03FF80
03FC03FF00
03FC03FF00
07FC03FF00
07FC03FF00
07F803FF00
0FF803FE00
0FF803FE00
0FF803FE00
0FFBF3FC00
0FF3F3FC00
1FF7F3FC00
1FF7F3F800
1FF7FFF000
3FE7FFF000
3FE3FFE000
3FE3FFC000
7FC3FF8000
7F81FF0000
F0007E0000
ENDCHAR
STARTCHAR 0133
ENCODING 307
SWIDTH 600 0
DWIDTH 30 0
BBX 35 34 1 0
BITMAP
001F801C60
003FE03FE0
007FC03FE0
003FC07FC0
007F807FC0
007F807FC0
00FF80FFC0
00FF00FFC0
00FF00FF80
01FF01FF80
01FF01FF80
01FE01FF80
01FE01FF80
03FE03FF80
03FE03FF80
03FC03FF00
03FC03FF00
07FC03FF00
07FC03FF00
07F803FF00
0FF803FE00
0FF803FE00
0FF803FE00
0FFBF3FC00
0FF3F3FC00
1FF7F3FC00
1FF7F3F800
1FF7FFF000
3FE7FFF000
3FE3FFE000
3FE3FFC000
7FC3FF8000
7F81FF0000
F0007E0000
ENDCHAR
STARTCHAR 0134
ENCODING 308
SWIDTH 460 0
DWIDTH 23 0
BBX 29 44 2 0
BITMAP
00000200
00000F80
00003FC0
00007FE0
0000FFF8
0001FFF8
0003F1F8
0003E060
00018000
00000000
0000F1C0
0000FFC0
0001FFC0
0001FFC0
0003FFC0
0003FFC0
0007FFC0
0007FF80
0007FF80
000FFF80
000FFF80
000FFF80
000FFF80
000FFF80
001FFF00
001FFF00
001FFF00
001FFF00
001FFF00
000FFE00
000FFE00
000FFE00
000FFC00
3F8FFC00
7F8FF800
7F9FF800
FFDFF000
FFFFF000
7FFFE000
7FFFC000
7FFF8000
3FFF0000
0FFC0000
03F80000
ENDCHAR
STARTCHAR 0135
ENCODING 309
SWIDTH 460 0
DWIDTH 23 0
BBX 29 44 2 0
BITMAP
00000200
00000F80
00003FC0
00007FE0
0000FFF8
0001FFF8
0003F1F8
0003E060
00018000
00000000
0000F1C0
0000FFC0
0001FFC0
0001FFC0
0003FFC0
0003FFC0
0007FFC0
0007FF80
0007FF80
000FFF80
000FFF80
000FFF80
000FFF80
000FFF80
001FFF00
001FFF00
001FFF00
001FFF00
001FFF00
000FFE00
000FFE00
000FFE00
000FFC00
3F8FFC00
7F8FF800
7F9FF800
FFDFF000
FFFFF000
7FFFE000
7FFFC000
7FFF8000
3FFF0000
0FFC0000
03F80000
ENDCHAR
STARTCHAR 0136
ENCODING 310
SWIDTH 540 0
DWIDTH 27 0
BBX 32 43 1 -8
BITMAP
00000010
01FFF038
01FFF078
01FFF0FC
01FFF1FF
01FFE3FE
01FFE7FE
03FFE7FC
03FFEFF8
03FFFFF0
03FFDFE0
07FFFFC0
07FFFF80
07FFFF00
07FFFE00
0FFFFE00
0FFFFC00
0FFFF800
1FFFF000
1FFFF000
1FFFF800
1FFFFC00
3FFFFC00
3FFFFE00
3FFFFF00
3FFFFF00
3FFEFF80
7FFCFF80
7FFC7FC0
7FFC7FC0
7FFC3FC0
7FFC3FC0
7FFC3FC0
FFF81C00
00E01800
00000000
003F8000
003F8000
007F0000
007F0000
007E0000
00FC0000
00780000
ENDCHAR
STARTCHAR 0137
ENCODING 311
SWIDTH 540 0
DWIDTH 27 0
BBX 32 43 1 -8
BITMAP
00000010
01FFF038
01FFF078
01FFF0FC
01FFF1FF
01FFE3FE
01FFE7FE
03FFE7FC
03FFEFF8
03FFFFF0
03FFDFE0
07FFFFC0
07FFFF80
07FFFF00
07FFFE00
0FFFFE00
0FFFFC00
0FFFF800
1FFFF000
1FFFF000
1FFFF800
1FFFFC00
3FFFFC00
3FFFFE00
3FFFFF00
3FFFFF00
3FFEFF80
7FFCFF80
7FFC7FC0
7FFC7FC0
7FFC3FC0
7FFC3FC0
7FFC3FC0
FFF81C00
00E01800
00000000
003F8000
003F8000
007F0000
007F0000
007E0000
00FC0000
00780000
ENDCHAR
STARTCHAR 0138
ENCODING 312
SWIDTH 520 0
DWIDTH 26 0
BBX 30 28 1 -1
BITMAP
000840C0
07FFC1E0
03FFC7F4
03FFCFF8
07FF8FF8
07FF9FE0
07FFBFC0
0FFFFF80
0FFFFF00
0FFFFE00
0FFFFC00
0FFFF800
1FFFF800
1FFFF000
1FFFC000
3FFFE000
3FFFF000
3FFFF800
3FFFFC00
7FFFFE00
7FFDFE00
7FF9FF00
7FF8FF00
7FF8FF80
FFF87F80
FFF87F80
FFF03800
00002000
ENDCHAR
STARTCHAR 0139
ENCODING 313
SWIDTH 500 0
DWIDTH 25 0
BBX 28 44 1 -1
BITMAP
000003F0
000007F0
00000FE0
00001FC0
00003F80
00003E00
00007C00
00000C00
00000000
0001FF00
000FFF00
001FFF00
003FFE00
003FFE00
003FFE00
003FFC00
007FFC00
007FF800
007FF800
00FFF800
00FFF000
00FFF000
00FFF000
01FFE000
01FFE000
03FFC000
03FFC000
07FFC000
07FF8000
07FF8000
0FFF8000
0FFF0000
0FFF0000
1FFFFF80
1FFFFF80
1FFFFF80
1FFFFF00
3FFFFF00
3FFFFF00
3FFFFF00
3FFFFF00
7FFFF000
7FE00000
C0000000
ENDCHAR
STARTCHAR 013A
ENCODING 314
SWIDTH 500 0
DWIDTH 25 0
BBX 28 44 1 -1
BITMAP
000003F0
000007F0
00000FE0
00001FC0
00003F80
00003E00
00007C00
00000C00
00000000
0001FF00
000FFF00
001FFF00
003FFE00
003FFE00
003FFE00
003FFC00
007FFC00
007FF800
007FF800
00FFF800
00FFF000
00FFF000
00FFF000
01FFE000
01FFE000
03FFC000
03FFC000
07FFC000
07FF8000
07FF8000
0FFF8000
0FFF0000
0FFF0000
1FFFFF80
1FFFFF80
1FFFFF80
1FFFFF00
3FFFFF00
3FFFFF00
3FFFFF00
3FFFFF00
7FFFF000
7FE00000
C0000000
ENDCHAR
STARTCHAR 013B
ENCODING 315
SWIDTH 500 0
DWIDTH 25 0
BBX 25 42 1 -8
BITMAP
0001FF00
000FFF00
001FFF00
003FFE00
003FFE00
003FFE00
003FFC00
007FFC00
007FF800
007FF800
00FFF800
00FFF000
00FFF000
00FFF000
01FFE000
01FFE000
03FFC000
03FFC000
07FFC000
07FF8000
07FF8000
0FFF8000
0FFF0000
0FFF0000
1FFFFF80
1FFFFF80
1FFFFF80
1FFFFF00
3FFFFF00
3FFFFF00
3FFFFF00
3FFFFF00
7FFFF000
7FE00000
C0000000
00FC0000
01FC0000
01FC0000
01F80000
03F80000
03F00000
03E00000
ENDCHAR
STARTCHAR 013C
ENCODING 316
SWIDTH 500 0
DWIDTH 25 0
BBX 25 42 1 -8
BITMAP
0001FF00
000FFF00
001FFF00
003FFE00
003FFE00
003FFE00
003FFC00
007FFC00
007FF800
007FF800
00FFF800
00FFF000
00FFF000
00FFF000
01FFE000
01FFE000
03FFC000
03FFC000
07FFC000
07FF8000
07FF8000
0FFF8000
0FFF0000
0FFF0000
1FFFFF80
1FFFFF80
1FFFFF80
1FFFFF00
3FFFFF00
3FFFFF00
3FFFFF00
3FFFFF00
7FFFF000
7FE00000
C0000000
00FC0000
01FC0000
01FC0000
01F80000
03F80000
03F00000
03E00000
ENDCHAR
STARTCHAR 013D
ENCODING 317
SWIDTH 500 0
DWIDTH 25 0
BBX 31 37 1 -1
BITMAP
0000001C
0000003E
0001FF3E
000FFF3E
001FFF7E
003FFE7C
003FFE7C
003FFEF8
003FFCF8
007FFCF0
007FF8F0
007FF8E0
00FFF800
00FFF000
00FFF000
00FFF000
01FFE000
01FFE000
03FFC000
03FFC000
07FFC000
07FF8000
07FF8000
0FFF8000
0FFF0000
0FFF0000
1FFFFF80
1FFFFF80
1FFFFF80
1FFFFF00
3FFFFF00
3FFFFF00
3FFFFF00
3FFFFF00
7FFFF000
7FE00000
C0000000
ENDCHAR
STARTCHAR 013E
ENCODING 318
SWIDTH 500 0
DWIDTH 25 0
BBX 31 37 1 -1
BITMAP
0000001C
0000003E
0001FF3E
000FFF3E
001FFF7E
003FFE7C
003FFE7C
003FFEF8
003FFCF8
007FFCF0
007FF8F0
007FF8E0
00FFF800
00FFF000
00FFF000
00FFF000
01FFE000
01FFE000
03FFC000
03FFC000
07FFC000
07FF8000
07FF8000
0FFF8000
0FFF0000
0FFF0000
1FFFFF80
1FFFFF80
1FFFFF80
1FFFFF00
3FFFFF00
3FFFFF00
3FFFFF00
3FFFFF00
7FFFF000
7FE00000
C0000000
ENDCHAR
STARTCHAR 013F
ENCODING 319
SWIDTH 500 0
DWIDTH 25 0
BBX 25 35 1 -1
BITMAP
0001FF00
000FFF00
001FFF00
003FFE00
003FFE00
003FFE00
003FFC00
007FFC00
007FF800
007FF800
00FFF800
00FFF000
00FFF000
00FFF000
01FFE700
01FFEF80
03FFCF80
03FFCF80
07FFCF00
07FF8000
07FF8000
0FFF8000
0FFF0000
0FFF0000
1FFFFF80
1FFFFF80
1FFFFF80
1FFFFF00
3FFFFF00
3FFFFF00
3FFFFF00
3FFFFF00
7FFFF000
7FE00000
C0000000
ENDCHAR
STARTCHAR 0140
ENCODING 320
SWIDTH 500 0
DWIDTH 25 0
BBX 25 35 1 -1
BITMAP
0001FF00
000FFF00
001FFF00
003FFE00
003FFE00
003FFE00
003FFC00
007FFC00
007FF800
007FF800
00FFF800
00FFF000
00FFF000
00FFF000
01FFE700
01FFEF80
03FFCF80
03FFCF80
07FFCF00
07FF8000
07FF8000
0FFF8000
0FFF0000
0FFF0000
1FFFFF80
1FFFFF80
1FFFFF80
1FFFFF00
3FFFFF00
3FFFFF00
3FFFFF00
3FFFFF00
7FFFF000
7FE00000
C0000000
ENDCHAR
STARTCHAR 0141
ENCODING 321
SWIDTH 540 0
DWIDTH 27 0
BBX 29 35 2 -1
BITMAP
0000FF80
000FFF80
000FFF00
001FFF00
001FFF00
003FFE20
003FFEF0
003FFDF8
007FFFF8
007FFFF8
007FFFF8
007FFFE0
007FFFC0
00FFFF80
00FFFE00
01FFFC00
01FFF000
03FFE000
07FFC000
0FFFC000
3FFFC000
7FFF8000
7FFF8000
7FFF8000
FFFFFFC0
FFFFFF80
7FFFFF80
5FFFFF80
1FFFFF80
1FFFFF80
3FFFFF80
3FFFFF80
3FFFF800
7FE00000
E0000000
ENDCHAR
STARTCHAR 0142
ENCODING 322
SWIDTH 540 0
DWIDTH 27 0
BBX 29 35 2 -1
BITMAP
0000FF80
000FFF80
000FFF00
001FFF00
001FFF00
003FFE20
003FFEF0
003FFDF8
007FFFF8
007FFFF8
007FFFF8
007FFFE0
007FFFC0
00FFFF80
00FFFE00
01FFFC00
01FFF000
03FFE000
07FFC000
0FFFC000
3FFFC000
7FFF8000
7FFF8000
7FFF8000
FFFFFFC0
FFFFFF80
7FFFFF80
5FFFFF80
1FFFFF80
1FFFFF80
3FFFFF80
3FFFFF80
3FFFF800
7FE00000
E0000000
ENDCHAR
STARTCHAR 0143
ENCODING 323
SWIDTH 560 0
DWIDTH 28 0
BBX 33 43 1 0
BITMAP
0000003F00
0000007F00
000000FE00
000001FC00
000003F800
000003F000
000007C000
0000008000
0000000000
0000000000
001FE03F00
003FF0FF80
007FF1FF80
007FE1FF80
007FE1FF00
00FFE1FF00
00FFE3FF00
01FFE3FE00
01FFE3FE00
01FFE3FE00
03FFE7FC00
03FFE7FC00
03FFE7FC00
07FFE7F800
07FFEFF800
07FFEFF800
0FFFEFF000
0FFFFFF000
0FFFFFF000
0FFFFFF000
1FFBFFE000
1FFBFFE000
1FF9FFE000
1FF1FFE000
3FF1FFC000
3FF1FFC000
3FF1FFC000
7FE1FF8000
7FE1FF8000
7FE1FF8000
FFE1FF8000
FFC1FF0000
F000000000
ENDCHAR
STARTCHAR 0144
ENCODING 324
SWIDTH 560 0
DWIDTH 28 0
BBX 33 43 1 0
BITMAP
0000003F00
0000007F00
000000FE00
000001FC00
000003F800
000003F000
000007C000
0000008000
0000000000
0000000000
001FE03F00
003FF0FF80
007FF1FF80
007FE1FF80
007FE1FF00
00FFE1FF00
00FFE3FF00
01FFE3FE00
01FFE3FE00
01FFE3FE00
03FFE7FC00
03FFE7FC00
03FFE7FC00
07FFE7F800
07FFEFF800
07FFEFF800
0FFFEFF000
0FFFFFF000
0FFFFFF000
0FFFFFF000
1FFBFFE000
1FFBFFE000
1FF9FFE000
1FF1FFE000
3FF1FFC000
3FF1FFC000
3FF1FFC000
7FE1FF8000
7FE1FF8000
7FE1FF8000
FFE1FF8000
FFC1FF0000
F000000000
ENDCHAR
STARTCHAR 0145
ENCODING 325
SWIDTH 560 0
DWIDTH 28 0
BBX 33 41 1 -8
BITMAP
001FE03F00
003FF0FF80
007FF1FF80
007FE1FF80
007FE1FF00
00FFE1FF00
00FFE3FF00
01FFE3FE00
01FFE3FE00
01FFE3FE00
03FFE7FC00
03FFE7FC00
03FFE7FC00
07FFE7F800
07FFEFF800
07FFEFF800
0FFFEFF000
0FFFFFF000
0FFFFFF000
0FFFFFF000
1FFBFFE000
1FFBFFE000
1FF9FFE000
1FF1FFE000
3FF1FFC000
3FF1FFC000
3FF1FFC000
7FE1FF8000
7FE1FF8000
7FE1FF8000
FFE1FF8000
FFC1FF0000
F000000000
0000000000
00FC000000
01FC000000
01FC000000
01F8000000
03F8000000
03F0000000
03E0000000
ENDCHAR
STARTCHAR 0146
ENCODING 326
SWIDTH 560 0
DWIDTH 28 0
BBX 33 41 1 -8
BITMAP
001FE03F00
003FF0FF80
007FF1FF80
007FE1FF80
007FE1FF00
00FFE1FF00
00FFE3FF00
01FFE3FE00
01FFE3FE00
01FFE3FE00
03FFE7FC00
03FFE7FC00
03FFE7FC00
07FFE7F800
07FFEFF800
07FFEFF800
0FFFEFF000
0FFFFFF000
0FFFFFF000
0FFFFFF000
1FFBFFE000
1FFBFFE000
1FF9FFE000
1FF1FFE000
3FF1FFC000
3FF1FFC000
3FF1FFC000
7FE1FF8000
7FE1FF8000
7FE1FF8000
FFE1FF8000
FFC1FF0000
F000000000
0000000000
00FC000000
01FC000000
01FC000000
01F8000000
03F8000000
03F0000000
03E0000000
ENDCHAR
STARTCHAR 0147
ENCODING 327
SWIDTH 560 0
DWIDTH 28 0
BBX 33 43 1 0
BITMAP
0000180000
00007C3F00
0000FE7E00
00007FFE00
00003FF800
00001FF000
00000FC000
0000070000
0000000000
0000000000
001FE03F00
003FF0FF80
007FF1FF80
007FE1FF80
007FE1FF00
00FFE1FF00
00FFE3FF00
01FFE3FE00
01FFE3FE00
01FFE3FE00
03FFE7FC00
03FFE7FC00
03FFE7FC00
07FFE7F800
07FFEFF800
07FFEFF800
0FFFEFF000
0FFFFFF000
0FFFFFF000
0FFFFFF000
1FFBFFE000
1FFBFFE000
1FF9FFE000
1FF1FFE000
3FF1FFC000
3FF1FFC000
3FF1FFC000
7FE1FF8000
7FE1FF8000
7FE1FF8000
FFE1FF8000
FFC1FF0000
F000000000
ENDCHAR
STARTCHAR 0148
ENCODING 328
SWIDTH 560 0
DWIDTH 28 0
BBX 33 43 1 0
BITMAP
0000180000
00007C3F00
0000FE7E00
00007FFE00
00003FF800
00001FF000
00000FC000
0000070000
0000000000
0000000000
001FE03F00
003FF0FF80
007FF1FF80
007FE1FF80
007FE1FF00
00FFE1FF00
00FFE3FF00
01FFE3FE00
01FFE3FE00
01FFE3FE00
03FFE7FC00
03FFE7FC00
03FFE7FC00
07FFE7F800
07FFEFF800
07FFEFF800
0FFFEFF000
0FFFFFF000
0FFFFFF000
0FFFFFF000
1FFBFFE000
1FFBFFE000
1FF9FFE000
1FF1FFE000
3FF1FFC000
3FF1FFC000
3FF1FFC000
7FE1FF8000
7FE1FF8000
7FE1FF8000
FFE1FF8000
FFC1FF0000
F000000000
ENDCHAR
STARTCHAR 0149
ENCODING 329
SWIDTH 620 0
DWIDTH 31 0
BBX 32 36 6 1
BITMAP
0FC00000
1FC00000
1FC00000
1FCFE07E
3FFFF1FF
3FBFF1FF
3FBFE3FE
3FFFE3FE
7F7FE3FE
7F7FE3FC
7EFFE3FC
FEFFE7FC
FCFFE7F8
FDFFE7F8
F9FFE7F8
F9FFEFF0
73FFEFF0
23FFEFF0
03FFEFE0
03FFFFE0
07FFFFE0
07FFFFE0
07FFFFC0
0FFBFFC0
0FFBFFC0
0FFBFF80
0FF9FF80
1FF1FF80
1FF1FF80
1FF1FF00
1FE1FF00
3FE1FF00
3FE1FF00
3FE1FF00
7FC1FC00
30000000
ENDCHAR
STARTCHAR 014A
ENCODING 330
SWIDTH 540 0
DWIDTH 27 0
BBX 29 41 2 -6
BITMAP
00F80000
03F8FF00
03FBFFC0
03FFFFE0
07FFFFE0
07FFFFE0
07FFFFF0
07FFFFF0
07FFFFF8
0FFFFFF8
0FFFFFF8
0FFFFFF8
0FF81FF8
0FF81FF8
1FF01FF8
1FF01FF8
1FE00FF8
1FE00FF0
1FE00FF0
1FC00FF0
3FC01FF0
3FC01FE0
3FC01FE0
3F801FE0
3F803FC0
7F803FC0
3F803FC0
7F803F80
7F003F80
7F007F80
7F007F00
7F00FF00
FF00FF00
FE03FE00
000FFE00
003FFE00
007FFC00
007FF800
007FE000
007FC000
007E0000
ENDCHAR
STARTCHAR 014B
ENCODING 331
SWIDTH 540 0
DWIDTH 27 0
BBX 29 41 2 -6
BITMAP
00F80000
03F8FF00
03FBFFC0
03FFFFE0
07FFFFE0
07FFFFE0
07FFFFF0
07FFFFF0
07FFFFF8
0FFFFFF8
0FFFFFF8
0FFFFFF8
0FF81FF8
0FF81FF8
1FF01FF8
1FF01FF8
1FE00FF8
1FE00FF0
1FE00FF0
1FC00FF0
3FC01FF0
3FC01FE0
3FC01FE0
3F801FE0
3F803FC0
7F803FC0
3F803FC0
7F803F80
7F003F80
7F007F80
7F007F00
7F00FF00
FF00FF00
FE03FE00
000FFE00
003FFE00
007FFC00
007FF800
007FE000
007FC000
007E0000
ENDCHAR
STARTCHAR 014C
ENCODING 332
SWIDTH 520 0
DWIDTH 26 0
BBX 26 40 4 0
BITMAP
01FFF800
01FFF800
03FFF800
03FFF800
00000000
000E0000
001F8000
003FE000
007FF000
00FFF800
01FFFC00
01FFFE00
03FFFF00
07FFFF00
07FFFF00
0FFFFF80
1FFFFF80
1FFFFF80
3FF1FF80
3FE0FFC0
7FE0FFC0
7FC0FFC0
FFC0FFC0
FFC0FFC0
FFC1FF80
FFC1FF80
FFE3FF80
FFFFFF80
FFFFFF00
FFFFFF00
FFFFFE00
FFFFFE00
FFFFFC00
7FFFFC00
7FFFF800
7FFFF800
3FFFF000
1FFFE000
0FFF8000
03FE0000
ENDCHAR
STARTCHAR 014D
ENCODING 333
SWIDTH 520 0
DWIDTH 26 0
BBX 26 40 4 0
BITMAP
01FFF800
01FFF800
03FFF800
03FFF800
00000000
000E0000
001F8000
003FE000
007FF000
00FFF800
01FFFC00
01FFFE00
03FFFF00
07FFFF00
07FFFF00
0FFFFF80
1FFFFF80
1FFFFF80
3FF1FF80
3FE0FFC0
7FE0FFC0
7FC0FFC0
FFC0FFC0
FFC0FFC0
FFC1FF80
FFC1FF80
FFE3FF80
FFFFFF80
FFFFFF00
FFFFFF00
FFFFFE00
FFFFFE00
FFFFFC00
7FFFFC00
7FFFF800
7FFFF800
3FFFF000
1FFFE000
0FFF8000
03FE0000
ENDCHAR
STARTCHAR 014E
ENCODING 334
SWIDTH 520 0
DWIDTH 26 0
BBX 26 43 4 0
BITMAP
01E03C00
01F07C00
01FBF800
00FFF800
00FFF000
007FC000
003F8000
00000000
000E0000
001F8000
003FE000
007FF000
00FFF800
01FFFC00
01FFFE00
03FFFF00
07FFFF00
07FFFF00
0FFFFF80
1FFFFF80
1FFFFF80
3FF1FF80
3FE0FFC0
7FE0FFC0
7FC0FFC0
FFC0FFC0
FFC0FFC0
FFC1FF80
FFC1FF80
FFE3FF80
FFFFFF80
FFFFFF00
FFFFFF00
FFFFFE00
FFFFFE00
FFFFFC00
7FFFFC00
7FFFF800
7FFFF800
3FFFF000
1FFFE000
0FFF8000
03FE0000
ENDCHAR
STARTCHAR 014F
ENCODING 335
SWIDTH 520 0
DWIDTH 26 0
BBX 26 43 4 0
BITMAP
01E03C00
01F07C00
01FBF800
00FFF800
00FFF000
007FC000
003F8000
00000000
000E0000
001F8000
003FE000
007FF000
00FFF800
01FFFC00
01FFFE00
03FFFF00
07FFFF00
07FFFF00
0FFFFF80
1FFFFF80
1FFFFF80
3FF1FF80
3FE0FFC0
7FE0FFC0
7FC0FFC0
FFC0FFC0
FFC0FFC0
FFC1FF80
FFC1FF80
FFE3FF80
FFFFFF80
FFFFFF00
FFFFFF00
FFFFFE00
FFFFFE00
FFFFFC00
7FFFFC00
7FFFF800
7FFFF800
3FFFF000
1FFFE000
0FFF8000
03FE0000
ENDCHAR
STARTCHAR 0150
ENCODING 336
SWIDTH 520 0
DWIDTH 26 0
BBX 27 43 4 0
BITMAP
001FCFE0
001FDFC0
003F1F80
007E3F00
00FC7E00
01F8FC00
01F0F800
00203000
000E0000
001F8000
003FE000
007FF000
00FFF800
01FFFC00
01FFFE00
03FFFF00
07FFFF00
07FFFF00
0FFFFF80
1FFFFF80
1FFFFF80
3FF1FF80
3FE0FFC0
7FE0FFC0
7FC0FFC0
FFC0FFC0
FFC0FFC0
FFC1FF80
FFC1FF80
FFE3FF80
FFFFFF80
FFFFFF00
FFFFFF00
FFFFFE00
FFFFFE00
FFFFFC00
7FFFFC00
7FFFF800
7FFFF800
3FFFF000
1FFFE000
0FFF8000
03FE0000
ENDCHAR
STARTCHAR 0151
ENCODING 337
SWIDTH 520 0
DWIDTH 26 0
BBX 27 43 4 0
BITMAP
001FCFE0
001FDFC0
003F1F80
007E3F00
00FC7E00
01F8FC00
01F0F800
00203000
000E0000
001F8000
003FE000
007FF000
00FFF800
01FFFC00
01FFFE00
03FFFF00
07FFFF00
07FFFF00
0FFFFF80
1FFFFF80
1FFFFF80
3FF1FF80
3FE0FFC0
7FE0FFC0
7FC0FFC0
FFC0FFC0
FFC0FFC0
FFC1FF80
FFC1FF80
FFE3FF80
FFFFFF80
FFFFFF00
FFFFFF00
FFFFFE00
FFFFFE00
FFFFFC00
7FFFFC00
7FFFF800
7FFFF800
3FFFF000
1FFFE000
0FFF8000
03FE0000
ENDCHAR
STARTCHAR 0152
ENCODING 338
SWIDTH 720 0
DWIDTH 36 0
BBX 34 36 4 -1
BITMAP
000008F000
00007FFFC0
0001FFFFC0
0007FFFFC0
001FFFFF80
007FFFFF80
00FFFFFF00
01FFFFFF00
01FFFFFE00
03FFFFFF00
07FFFFFE00
0FFFFF8000
1FFFFF0000
1FFFFF0000
3FF0FF0C00
3FE0FFFC00
7FC07FFC00
7FC07FF800
FFC0FFF800
FFC0FFFC00
FFC1FF0000
FFC3FF0000
FFE7FF7B80
FFFFFFFF80
FFFFFFFF80
FFFFFFFF80
FFFFFFFF80
FFFFFFFF80
FFFFFFFF80
FFFFFFFF80
FFFFFFFF80
FFFFFFFF80
7FFFFFF800
3FFFFF8000
1FFDF00000
07E0000000
ENDCHAR
STARTCHAR 0153
ENCODING 339
SWIDTH 720 0
DWIDTH 36 0
BBX 34 36 4 -1
BITMAP
000008F000
00007FFFC0
0001FFFFC0
0007FFFFC0
001FFFFF80
007FFFFF80
00FFFFFF00
01FFFFFF00
01FFFFFE00
03FFFFFF00
07FFFFFE00
0FFFFF8000
1FFFFF0000
1FFFFF0000
3FF0FF0C00
3FE0FFFC00
7FC07FFC00
7FC07FF800
FFC0FFF800
FFC0FFFC00
FFC1FF0000
FFC3FF0000
FFE7FF7B80
FFFFFFFF80
FFFFFFFF80
FFFFFFFF80
FFFFFFFF80
FFFFFFFF80
FFFFFFFF80
FFFFFFFF80
FFFFFFFF80
FFFFFFFF80
7FFFFFF800
3FFFFF8000
1FFDF00000
07E0000000
ENDCHAR
STARTCHAR 0154
ENCODING 340
SWIDTH 580 0
DWIDTH 29 0
BBX 26 44 4 -1
BITMAP
0003F800
0007F000
000FE000
001FC000
001F8000
003F0000
003E0000
000C0000
00000000
001FE000
03FFF800
0FFFFE00
1FFFFF00
1FFFFF80
1FFE7F80
1FFC0F80
1FFC0FC0
1FFC0FC0
3FFC0FC0
3FFC0F80
3FFC1F80
3FFC3F80
3FFEFF00
3FFFFF00
3FFFFE00
3FFFFC00
7FFFE000
7FFFE000
7FFFF000
7FFFF000
7FFFF800
7FFFF800
FFF3F800
FFF3FC00
FFF3FC00
FFF1FE00
FFF1FE00
FFF1FE00
FFF1FF00
FFF0FF00
FFF0FF80
FFE0FF80
FFE0FC00
7F000000
ENDCHAR
STARTCHAR 0155
ENCODING 341
SWIDTH 580 0
DWIDTH 29 0
BBX 26 44 4 -1
BITMAP
0003F800
0007F000
000FE000
001FC000
001F8000
003F0000
003E0000
000C0000
00000000
001FE000
03FFF800
0FFFFE00
1FFFFF00
1FFFFF80
1FFE7F80
1FFC0F80
1FFC0FC0
1FFC0FC0
3FFC0FC0
3FFC0F80
3FFC1F80
3FFC3F80
3FFEFF00
3FFFFF00
3FFFFE00
3FFFFC00
7FFFE000
7FFFE000
7FFFF000
7FFFF000
7FFFF800
7FFFF800
FFF3F800
FFF3FC00
FFF3FC00
FFF1FE00
FFF1FE00
FFF1FE00
FFF1FF00
FFF0FF00
FFF0FF80
FFE0FF80
FFE0FC00
7F000000
ENDCHAR
STARTCHAR 0156
ENCODING 342
SWIDTH 580 0
DWIDTH 29 0
BBX 26 42 4 -8
BITMAP
001FE000
03FFF800
0FFFFE00
1FFFFF00
1FFFFF80
1FFE7F80
1FFC0F80
1FFC0FC0
1FFC0FC0
3FFC0FC0
3FFC0F80
3FFC1F80
3FFC3F80
3FFEFF00
3FFFFF00
3FFFFE00
3FFFFC00
7FFFE000
7FFFE000
7FFFF000
7FFFF000
7FFFF800
7FFFF800
FFF3F800
FFF3FC00
FFF3FC00
FFF1FE00
FFF1FE00
FFF1FE00
FFF1FF00
FFF0FF00
FFF0FF80
FFE0FF80
FFE0FC00
7F000000
007F0000
007F0000
00FE0000
00FE0000
00FC0000
01F80000
00F00000
ENDCHAR
STARTCHAR 0157
ENCODING 343
SWIDTH 580 0
DWIDTH 29 0
BBX 26 42 4 -8
BITMAP
001FE000
03FFF800
0FFFFE00
1FFFFF00
1FFFFF80
1FFE7F80
1FFC0F80
1FFC0FC0
1FFC0FC0
3FFC0FC0
3FFC0F80
3FFC1F80
3FFC3F80
3FFEFF00
3FFFFF00
3FFFFE00
3FFFFC00
7FFFE000
7FFFE000
7FFFF000
7FFFF000
7FFFF800
7FFFF800
FFF3F800
FFF3FC00
FFF3FC00
FFF1FE00
FFF1FE00
FFF1FE00
FFF1FF00
FFF0FF00
FFF0FF80
FFE0FF80
FFE0FC00
7F000000
007F0000
007F0000
00FE0000
00FE0000
00FC0000
01F80000
00F00000
ENDCHAR
STARTCHAR 0158
ENCODING 344
SWIDTH 580 0
DWIDTH 29 0
BBX 26 45 4 -1
BITMAP
00003000
00C1F800
03E3F000
07F7F000
03FFC000
01FF8000
00FF0000
007E0000
00180000
00000000
001FE000
03FFF800
0FFFFE00
1FFFFF00
1FFFFF80
1FFE7F80
1FFC0F80
1FFC0FC0
1FFC0FC0
3FFC0FC0
3FFC0F80
3FFC1F80
3FFC3F80
3FFEFF00
3FFFFF00
3FFFFE00
3FFFFC00
7FFFE000
7FFFE000
7FFFF000
7FFFF000
7FFFF800
7FFFF800
FFF3F800
FFF3FC00
FFF3FC00
FFF1FE00
FFF1FE00
FFF1FE00
FFF1FF00
FFF0FF00
FFF0FF80
FFE0FF80
FFE0FC00
7F000000
ENDCHAR
STARTCHAR 0159
ENCODING 345
SWIDTH 580 0
DWIDTH 29 0
BBX 26 45 4 -1
BITMAP
00003000
00C1F800
03E3F000
07F7F000
03FFC000
01FF8000
00FF0000
007E0000
00180000
00000000
001FE000
03FFF800
0FFFFE00
1FFFFF00
1FFFFF80
1FFE7F80
1FFC0F80
1FFC0FC0
1FFC0FC0
3FFC0FC0
3FFC0F80
3FFC1F80
3FFC3F80
3FFEFF00
3FFFFF00
3FFFFE00
3FFFFC00
7FFFE000
7FFFE000
7FFFF000
7FFFF000
7FFFF800
7FFFF800
FFF3F800
FFF3FC00
FFF3FC00
FFF1FE00
FFF1FE00
FFF1FE00
FFF1FF00
FFF0FF00
FFF0FF80
FFE0FF80
FFE0FC00
7F000000
ENDCHAR
STARTCHAR 015A
ENCODING 346
SWIDTH 500 0
DWIDTH 25 0
BBX 29 43 2 -1
BITMAP
000003F8
000007F0
00000FE0
00001FC0
00001F80
00003F00
00007E00
00000C00
00003000
0003FFF8
001FFFF8
003FFFF0
007FFFF0
007FFFE0
00FFFFC0
00FFFFC0
01FFFF80
03FFFF80
03FFFF00
07FFFE00
07FFFE00
07FC1C00
07F80400
07FE0000
07FF8000
03FFE000
03FFF800
01FFFE00
007FFE00
000FFE00
0003FE00
0001FE00
0001FF00
3807FE00
7EFFFE00
FFFFFE00
FFFFFC00
FFFFFC00
FFFFF800
7FFFF000
7FFFC000
1FFF8000
0FFE0000
ENDCHAR
STARTCHAR 015B
ENCODING 347
SWIDTH 500 0
DWIDTH 25 0
BBX 29 43 2 -1
BITMAP
000003F8
000007F0
00000FE0
00001FC0
00001F80
00003F00
00007E00
00000C00
00003000
0003FFF8
001FFFF8
003FFFF0
007FFFF0
007FFFE0
00FFFFC0
00FFFFC0
01FFFF80
03FFFF80
03FFFF00
07FFFE00
07FFFE00
07FC1C00
07F80400
07FE0000
07FF8000
03FFE000
03FFF800
01FFFE00
007FFE00
000FFE00
0003FE00
0001FE00
0001FF00
3807FE00
7EFFFE00
FFFFFE00
FFFFFC00
FFFFFC00
FFFFF800
7FFFF000
7FFFC000
1FFF8000
0FFE0000
ENDCHAR
STARTCHAR 015C
ENCODING 348
SWIDTH 500 0
DWIDTH 25 0
BBX 29 43 2 -1
BITMAP
00000E00
00003F00
0000FF80
0001FFC0
0003FFE0
0007F7F0
0007C3E0
00000180
00003000
0003FFF8
001FFFF8
003FFFF0
007FFFF0
007FFFE0
00FFFFC0
00FFFFC0
01FFFF80
03FFFF80
03FFFF00
07FFFE00
07FFFE00
07FC1C00
07F80400
07FE0000
07FF8000
03FFE000
03FFF800
01FFFE00
007FFE00
000FFE00
0003FE00
0001FE00
0001FF00
3807FE00
7EFFFE00
FFFFFE00
FFFFFC00
FFFFFC00
FFFFF800
7FFFF000
7FFFC000
1FFF8000
0FFE0000
ENDCHAR
STARTCHAR 015D
ENCODING 349
SWIDTH 500 0
DWIDTH 25 0
BBX 29 43 2 -1
BITMAP
00000E00
00003F00
0000FF80
0001FFC0
0003FFE0
0007F7F0
0007C3E0
00000180
00003000
0003FFF8
001FFFF8
003FFFF0
007FFFF0
007FFFE0
00FFFFC0
00FFFFC0
01FFFF80
03FFFF80
03FFFF00
07FFFE00
07FFFE00
07FC1C00
07F80400
07FE0000
07FF8000
03FFE000
03FFF800
01FFFE00
007FFE00
000FFE00
0003FE00
0001FE00
0001FF00
3807FE00
7EFFFE00
FFFFFE00
FFFFFC00
FFFFFC00
FFFFF800
7FFFF000
7FFFC000
1FFF8000
0FFE0000
ENDCHAR
STARTCHAR 015E
ENCODING 350
SWIDTH 500 0
DWIDTH 25 0
BBX 29 43 2 -8
BITMAP
00003000
0007FFF8
001FFFF8
003FFFF0
007FFFF0
007FFFE0
00FFFFC0
00FFFFC0
01FFFF80
03FFFF80
03FFFF00
07FFFE00
07FFFE00
07FC1C00
07F80400
07FE0000
07FF8000
03FFE000
03FFF800
01FFFE00
007FFE00
000FFE00
0003FE00
0001FE00
0001FF00
3807FE00
7EFFFE00
FFFFFE00
FFFFFC00
FFFFFC00
FFFFF800
7FFFF000
7FFFC000
1FFF8000
0FFC0000
01F00000
01F80000
00FE0000
007E0000
383E0000
3FFE0000
7FFE0000
1FF80000
ENDCHAR
STARTCHAR 015F
ENCODING 351
SWIDTH 500 0
DWIDTH 25 0
BBX 29 43 2 -8
BITMAP
00003000
0007FFF8
001FFFF8
003FFFF0
007FFFF0
007FFFE0
00FFFFC0
00FFFFC0
01FFFF80
03FFFF80
03FFFF00
07FFFE00
07FFFE00
07FC1C00
07F80400
07FE0000
07FF8000
03FFE000
03FFF800
01FFFE00
007FFE00
000FFE00
0003FE00
0001FE00
0001FF00
3807FE00
7EFFFE00
FFFFFE00
FFFFFC00
FFFFFC00
FFFFF800
7FFFF000
7FFFC000
1FFF8000
0FFC0000
01F00000
01F80000
00FE0000
007E0000
383E0000
3FFE0000
7FFE0000
1FF80000
ENDCHAR
STARTCHAR 0160
ENCODING 352
SWIDTH 500 0
DWIDTH 25 0
BBX 29 43 2 -1
BITMAP
0003C0F0
0003E3F8
0003FFF0
0003FFE0
0001FFC0
0000FF00
00007C00
00003000
00003000
0003FFF8
001FFFF8
003FFFF0
007FFFF0
007FFFE0
00FFFFC0
00FFFFC0
01FFFF80
03FFFF80
03FFFF00
07FFFE00
07FFFE00
07FC1C00
07F80400
07FE0000
07FF8000
03FFE000
03FFF800
01FFFE00
007FFE00
000FFE00
0003FE00
0001FE00
0001FF00
3807FE00
7EFFFE00
FFFFFE00
FFFFFC00
FFFFFC00
FFFFF800
7FFFF000
7FFFC000
1FFF8000
0FFE0000
ENDCHAR
STARTCHAR 0161
ENCODING 353
SWIDTH 500 0
DWIDTH 25 0
BBX 29 43 2 -1
BITMAP
0003C0F0
0003E3F8
0003FFF0
0003FFE0
0001FFC0
0000FF00
00007C00
00003000
00003000
0003FFF8
001FFFF8
003FFFF0
007FFFF0
007FFFE0
00FFFFC0
00FFFFC0
01FFFF80
03FFFF80
03FFFF00
07FFFE00
07FFFE00
07FC1C00
07F80400
07FE0000
07FF8000
03FFE000
03FFF800
01FFFE00
007FFE00
000FFE00
0003FE00
0001FE00
0001FF00
3807FE00
7EFFFE00
FFFFFE00
FFFFFC00
FFFFFC00
FFFFF800
7FFFF000
7FFFC000
1FFF8000
0FFE0000
ENDCHAR
STARTCHAR 0162
ENCODING 354
SWIDTH 560 0
DWIDTH 28 0
BBX 28 42 6 -8
BITMAP
000DC380
3FFFFFE0
3FFFFFF0
3FFFFFF0
3FFFFFF0
7FFFFFF0
7FFFFFF0
7FFFFFF0
FFFFFFE0
FFFFFFC0
FFBFF000
F83FE000
003FC000
003F8000
007F8000
007F8000
007F0000
007F0000
00FF0000
00FF0000
00FE0000
00FE0000
01FE0000
01FE0000
01FC0000
01FC0000
03FC0000
03FC0000
03FC0000
03F80000
03F80000
07F80000
07F80000
07F00000
03F00000
01F80000
00FC0000
007E0000
387E0000
7FFE0000
7FFC0000
3FF80000
ENDCHAR
STARTCHAR 0163
ENCODING 355
SWIDTH 560 0
DWIDTH 28 0
BBX 28 42 6 -8
BITMAP
000DC380
3FFFFFE0
3FFFFFF0
3FFFFFF0
3FFFFFF0
7FFFFFF0
7FFFFFF0
7FFFFFF0
FFFFFFE0
FFFFFFC0
FFBFF000
F83FE000
003FC000
003F8000
007F8000
007F8000
007F0000
007F0000
00FF0000
00FF0000
00FE0000
00FE0000
01FE0000
01FE0000
01FC0000
01FC0000
03FC0000
03FC0000
03FC0000
03F80000
03F80000
07F80000
07F80000
07F00000
03F00000
01F80000
00FC0000
007E0000
387E0000
7FFE0000
7FFC0000
3FF80000
ENDCHAR
STARTCHAR 0164
ENCODING 356
SWIDTH 560 0
DWIDTH 28 0
BBX 28 43 6 0
BITMAP
001E0780
003F1F80
003FFF80
001FFE00
000FFC00
0007F800
0003E000
0000C000
00000000
000DC380
3FFFFFE0
3FFFFFF0
3FFFFFF0
3FFFFFF0
7FFFFFF0
7FFFFFF0
7FFFFFF0
FFFFFFE0
FFFFFFC0
FFBFF000
F83FE000
003FC000
003F8000
007F8000
007F8000
007F0000
007F0000
00FF0000
00FF0000
00FE0000
00FE0000
01FE0000
01FE0000
01FC0000
01FC0000
03FC0000
03FC0000
03FC0000
03F80000
03F80000
07F80000
07F80000
07F00000
ENDCHAR
STARTCHAR 0165
ENCODING 357
SWIDTH 560 0
DWIDTH 28 0
BBX 28 43 6 0
BITMAP
001E0780
003F1F80
003FFF80
001FFE00
000FFC00
0007F800
0003E000
0000C000
00000000
000DC380
3FFFFFE0
3FFFFFF0
3FFFFFF0
3FFFFFF0
7FFFFFF0
7FFFFFF0
7FFFFFF0
FFFFFFE0
FFFFFFC0
FFBFF000
F83FE000
003FC000
003F8000
007F8000
007F8000
007F0000
007F0000
00FF0000
00FF0000
00FE0000
00FE0000
01FE0000
01FE0000
01FC0000
01FC0000
03FC0000
03FC0000
03FC0000
03F80000
03F80000
07F80000
07F80000
07F00000
ENDCHAR
STARTCHAR 0166
ENCODING 358
SWIDTH 560 0
DWIDTH 28 0
BBX 28 34 6 0
BITMAP
000DC380
3FFFFFE0
3FFFFFF0
3FFFFFF0
3FFFFFF0
7FFFFFF0
7FFFFFF0
7FFFFFF0
FFFFFFE0
FFFFFFC0
FFBFF000
F83FE000
003FC000
003F8000
007F8000
007FFC00
3FFFFE00
3FFFFE00
3FFFFE00
3FFFFC00
7FFFFC00
7FFFFC00
01FE0000
01FE0000
01FC0000
01FC0000
03FC0000
03FC0000
03FC0000
03F80000
03F80000
07F80000
07F80000
07F00000
ENDCHAR
STARTCHAR 0167
ENCODING 359
SWIDTH 560 0
DWIDTH 28 0
BBX 28 34 6 0
BITMAP
000DC380
3FFFFFE0
3FFFFFF0
3FFFFFF0
3FFFFFF0
7FFFFFF0
7FFFFFF0
7FFFFFF0
FFFFFFE0
FFFFFFC0
FFBFF000
F83FE000
003FC000
003F8000
007F8000
007FFC00
3FFFFE00
3FFFFE00
3FFFFE00
3FFFFC00
7FFFFC00
7FFFFC00
01FE0000
01FE0000
01FC0000
01FC0000
03FC0000
03FC0000
03FC0000
03F80000
03F80000
07F80000
07F80000
07F00000
ENDCHAR
STARTCHAR 0168
ENCODING 360
SWIDTH 540 0
DWIDTH 27 0
BBX 29 42 4 1
BITMAP
000060F0
0001F1F0
0003FFF0
0007FFF0
0007FFE0
0007FFC0
00079F80
000F0200
00000000
01F803F0
01FC07F8
03FC07F8
03F807F8
07F807F8
07F807F0
0FF007F0
0FF00FF0
0FF00FF0
1FE00FF0
1FE01FE0
3FE01FE0
3FE01FE0
3FC03FE0
7FC03FE0
7FC07FE0
7FC07FC0
7FE07FC0
FFF0FFC0
FFFFFF80
FFFFFF80
FFFFFF00
FFFFFF00
FFFFFE00
FFFFFC00
FFFFFC00
FFFFF800
7FFFF000
7FFFE000
7FFFC000
3FFF8000
1FFF0000
03FC0000
ENDCHAR
STARTCHAR 0169
ENCODING 361
SWIDTH 540 0
DWIDTH 27 0
BBX 29 42 4 1
BITMAP
000060F0
0001F1F0
0003FFF0
0007FFF0
0007FFE0
0007FFC0
00079F80
000F0200
00000000
01F803F0
01FC07F8
03FC07F8
03F807F8
07F807F8
07F807F0
0FF007F0
0FF00FF0
0FF00FF0
1FE00FF0
1FE01FE0
3FE01FE0
3FE01FE0
3FC03FE0
7FC03FE0
7FC07FE0
7FC07FC0
7FE07FC0
FFF0FFC0
FFFFFF80
FFFFFF80
FFFFFF00
FFFFFF00
FFFFFE00
FFFFFC00
FFFFFC00
FFFFF800
7FFFF000
7FFFE000
7FFFC000
3FFF8000
1FFF0000
03FC0000
ENDCHAR
STARTCHAR 016A
ENCODING 362
SWIDTH 540 0
DWIDTH 27 0
BBX 29 39 4 1
BITMAP
0007FFE0
000FFFE0
000FFFE0
000FFFE0
00000080
00000000
01F803F0
01FC07F8
03FC07F8
03F807F8
07F807F8
07F807F0
0FF007F0
0FF00FF0
0FF00FF0
1FE00FF0
1FE01FE0
3FE01FE0
3FE01FE0
3FC03FE0
7FC03FE0
7FC07FE0
7FC07FC0
7FE07FC0
FFF0FFC0
FFFFFF80
FFFFFF80
FFFFFF00
FFFFFF00
FFFFFE00
FFFFFC00
FFFFFC00
FFFFF800
7FFFF000
7FFFE000
7FFFC000
3FFF8000
1FFF0000
03FC0000
ENDCHAR
STARTCHAR 016B
ENCODING 363
SWIDTH 540 0
DWIDTH 27 0
BBX 29 39 4 1
BITMAP
0007FFE0
000FFFE0
000FFFE0
000FFFE0
00000080
00000000
01F803F0
01FC07F8
03FC07F8
03F807F8
07F807F8
07F807F0
0FF007F0
0FF00FF0
0FF00FF0
1FE00FF0
1FE01FE0
3FE01FE0
3FE01FE0
3FC03FE0
7FC03FE0
7FC07FE0
7FC07FC0
7FE07FC0
FFF0FFC0
FFFFFF80
FFFFFF80
FFFFFF00
FFFFFF00
FFFFFE00
FFFFFC00
FFFFFC00
FFFFF800
7FFFF000
7FFFE000
7FFFC000
3FFF8000
1FFF0000
03FC0000
ENDCHAR
STARTCHAR 016C
ENCODING 364
SWIDTH 540 0
DWIDTH 27 0
BBX 29 42 4 1
BITMAP
0003C078
0003E0F0
0003F1F0
0003FFE0
0003FFE0
0001FFC0
0000FF00
00003C00
00000000
01F803F0
01FC07F8
03FC07F8
03F807F8
07F807F8
07F807F0
0FF007F0
0FF00FF0
0FF00FF0
1FE00FF0
1FE01FE0
3FE01FE0
3FE01FE0
3FC03FE0
7FC03FE0
7FC07FE0
7FC07FC0
7FE07FC0
FFF0FFC0
FFFFFF80
FFFFFF80
FFFFFF00
FFFFFF00
FFFFFE00
FFFFFC00
FFFFFC00
FFFFF800
7FFFF000
7FFFE000
7FFFC000
3FFF8000
1FFF0000
03FC0000
ENDCHAR
STARTCHAR 016D
ENCODING 365
SWIDTH 540 0
DWIDTH 27 0
BBX 29 42 4 1
BITMAP
0003C078
0003E0F0
0003F1F0
0003FFE0
0003FFE0
0001FFC0
0000FF00
00003C00
00000000
01F803F0
01FC07F8
03FC07F8
03F807F8
07F807F8
07F807F0
0FF007F0
0FF00FF0
0FF00FF0
1FE00FF0
1FE01FE0
3FE01FE0
3FE01FE0
3FC03FE0
7FC03FE0
7FC07FE0
7FC07FC0
7FE07FC0
FFF0FFC0
FFFFFF80
FFFFFF80
FFFFFF00
FFFFFF00
FFFFFE00
FFFFFC00
FFFFFC00
FFFFF800
7FFFF000
7FFFE000
7FFFC000
3FFF8000
1FFF0000
03FC0000
ENDCHAR
STARTCHAR 016E
ENCODING 366
SWIDTH 540 0
DWIDTH 27 0
BBX 29 45 4 1
BITMAP
00000C00
00007F80
0001FFC0
0003FFE0
0007C3E0
000F83E0
000F83E0
000F83E0
000FC7C0
0007FF80
0007FF00
0001FC00
01F803F0
01FC07F8
03FC07F8
03F807F8
07F807F8
07F807F0
0FF007F0
0FF00FF0
0FF00FF0
1FE00FF0
1FE01FE0
3FE01FE0
3FE01FE0
3FC03FE0
7FC03FE0
7FC07FE0
7FC07FC0
7FE07FC0
FFF0FFC0
FFFFFF80
FFFFFF80
FFFFFF00
FFFFFF00
FFFFFE00
FFFFFC00
FFFFFC00
FFFFF800
7FFFF000
7FFFE000
7FFFC000
3FFF8000
1FFF0000
03FC0000
ENDCHAR
STARTCHAR 016F
ENCODING 367
SWIDTH 540 0
DWIDTH 27 0
BBX 29 45 4 1
BITMAP
00000C00
00007F80
0001FFC0
0003FFE0
0007C3E0
000F83E0
000F83E0
000F83E0
000FC7C0
0007FF80
0007FF00
0001FC00
01F803F0
01FC07F8
03FC07F8
03F807F8
07F807F8
07F807F0
0FF007F0
0FF00FF0
0FF00FF0
1FE00FF0
1FE01FE0
3FE01FE0
3FE01FE0
3FC03FE0
7FC03FE0
7FC07FE0
7FC07FC0
7FE07FC0
FFF0FFC0
FFFFFF80
FFFFFF80
FFFFFF00
FFFFFF00
FFFFFE00
FFFFFC00
FFFFFC00
FFFFF800
7FFFF000
7FFFE000
7FFFC000
3FFF8000
1FFF0000
03FC0000
ENDCHAR
STARTCHAR 0170
ENCODING 368
SWIDTH 540 0
DWIDTH 27 0
BBX 32 42 4 1
BITMAP
00007F3F
0000FE7F
0001FCFE
0003F9FC
0003F3F8
0007E3F0
0007C7C0
00018080
00000000
01F803F0
01FC07F8
03FC07F8
03F807F8
07F807F8
07F807F0
0FF007F0
0FF00FF0
0FF00FF0
1FE00FF0
1FE01FE0
3FE01FE0
3FE01FE0
3FC03FE0
7FC03FE0
7FC07FE0
7FC07FC0
7FE07FC0
FFF0FFC0
FFFFFF80
FFFFFF80
FFFFFF00
FFFFFF00
FFFFFE00
FFFFFC00
FFFFFC00
FFFFF800
7FFFF000
7FFFE000
7FFFC000
3FFF8000
1FFF0000
03FC0000
ENDCHAR
STARTCHAR 0171
ENCODING 369
SWIDTH 540 0
DWIDTH 27 0
BBX 32 42 4 1
BITMAP
00007F3F
0000FE7F
0001FCFE
0003F9FC
0003F3F8
0007E3F0
0007C7C0
00018080
00000000
01F803F0
01FC07F8
03FC07F8
03F807F8
07F807F8
07F807F0
0FF007F0
0FF00FF0
0FF00FF0
1FE00FF0
1FE01FE0
3FE01FE0
3FE01FE0
3FC03FE0
7FC03FE0
7FC07FE0
7FC07FC0
7FE07FC0
FFF0FFC0
FFFFFF80
FFFFFF80
FFFFFF00
FFFFFF00
FFFFFE00
FFFFFC00
FFFFFC00
FFFFF800
7FFFF000
7FFFE000
7FFFC000
3FFF8000
1FFF0000
03FC0000
ENDCHAR
STARTCHAR 0172
ENCODING 370
SWIDTH 540 0
DWIDTH 27 0
BBX 29 42 4 -8
BITMAP
01F803F0
01FC07F8
03FC07F8
03F807F8
07F807F8
07F807F0
0FF007F0
0FF00FF0
0FF00FF0
1FE00FF0
1FE01FE0
3FE01FE0
3FE01FE0
3FC03FE0
7FC03FE0
7FC07FE0
7FC07FC0
7FE07FC0
FFF0FFC0
FFFFFF80
FFFFFF80
FFFFFF00
FFFFFF00
FFFFFE00
FFFFFC00
FFFFFC00
FFFFF800
7FFFF000
7FFFE000
7FFFC000
3FFF8000
1FFF0000
03FC0000
03C00000
07800000
0F800000
0F000000
1F000000
1FFF0000
1FFF0000
1FFF0000
0FFE0000
ENDCHAR
STARTCHAR 0173
ENCODING 371
SWIDTH 540 0
DWIDTH 27 0
BBX 29 42 4 -8
BITMAP
01F803F0
01FC07F8
03FC07F8
03F807F8
07F807F8
07F807F0
0FF007F0
0FF00FF0
0FF00FF0
1FE00FF0
1FE01FE0
3FE01FE0
3FE01FE0
3FC03FE0
7FC03FE0
7FC07FE0
7FC07FC0
7FE07FC0
FFF0FFC0
FFFFFF80
FFFFFF80
FFFFFF00
FFFFFF00
FFFFFE00
FFFFFC00
FFFFFC00
FFFFF800
7FFFF000
7FFFE000
7FFFC000
3FFF8000
1FFF0000
03FC0000
03C00000
07800000
0F800000
0F000000
1F000000
1FFF0000
1FFF0000
1FFF0000
0FFE0000
ENDCHAR
STARTCHAR 0174
ENCODING 372
SWIDTH 720 0
DWIDTH 36 0
BBX 35 44 7 0
BITMAP
0000180000
00007C0000
0000FF0000
0001FF8000
0007FFC000
000FEFC000
000FC7C000
001F830000
000C000000
0000000800
3A00000C20
7FC0001FE0
7FC0703FE0
FFC0F03FC0
FFC0F07FC0
FFC0F07F80
FFE0F0FF80
FFE1F1FF00
FFE1F1FF00
FFE1FBFE00
FFE3FBFE00
7FF3FBFE00
7FF7FFFE00
7FF7FFFC00
7FFFFFFC00
7FFFFFF800
3FFFFFF800
3FFFFFF800
3FFFFFF000
3FFFFFF000
1FFEFFE000
1FFEFFE000
1FFCFFC000
1FFCFFC000
0FF8FFC000
0FF87FC000
0FF07F8000
07E07F8000
07E07F0000
07E07F0000
03C07E0000
03C07C0000
0380000000
0100000000
ENDCHAR
STARTCHAR 0175
ENCODING 373
SWIDTH 720 0
DWIDTH 36 0
BBX 35 44 7 0
BITMAP
0000180000
00007C0000
0000FF0000
0001FF8000
0007FFC000
000FEFC000
000FC7C000
001F830000
000C000000
0000000800
3A00000C20
7FC0001FE0
7FC0703FE0
FFC0F03FC0
FFC0F07FC0
FFC0F07F80
FFE0F0FF80
FFE1F1FF00
FFE1F1FF00
FFE1FBFE00
FFE3FBFE00
7FF3FBFE00
7FF7FFFE00
7FF7FFFC00
7FFFFFFC00
7FFFFFF800
3FFFFFF800
3FFFFFF800
3FFFFFF000
3FFFFFF000
1FFEFFE000
1FFEFFE000
1FFCFFC000
1FFCFFC000
0FF8FFC000
0FF87FC000
0FF07F8000
07E07F8000
07E07F0000
07E07F0000
03C07E0000
03C07C0000
0380000000
0100000000
ENDCHAR
STARTCHAR 0176
ENCODING 374
SWIDTH 600 0
DWIDTH 30 0
BBX 30 44 7 0
BITMAP
0000C000
0003E000
0007F800
000FFC00
003FFE00
007F7F00
007E3E00
00FC1800
00600000
00000000
000003FC
038007F8
3F8007F0
FFC00FF0
FFC01FE0
FFC01FE0
7FC03FC0
7FE07F80
7FE0FF80
3FE0FF00
3FE1FE00
3FF3FC00
1FF7FC00
1FF7F800
1FFFF000
1FFFF000
0FFFE000
0FFFC000
0FFFC000
07FF8000
07FF0000
07FF0000
03FE0000
03FC0000
03FC0000
03FC0000
03FC0000
03FC0000
03FC0000
07FC0000
07FC0000
07FC0000
07F80000
07E00000
ENDCHAR
STARTCHAR 0177
ENCODING 375
SWIDTH 600 0
DWIDTH 30 0
BBX 30 44 7 0
BITMAP
0000C000
0003E000
0007F800
000FFC00
003FFE00
007F7F00
007E3E00
00FC1800
00600000
00000000
000003FC
038007F8
3F8007F0
FFC00FF0
FFC01FE0
FFC01FE0
7FC03FC0
7FE07F80
7FE0FF80
3FE0FF00
3FE1FE00
3FF3FC00
1FF7FC00
1FF7F800
1FFFF000
1FFFF000
0FFFE000
0FFFC000
0FFFC000
07FF8000
07FF0000
07FF0000
03FE0000
03FC0000
03FC0000
03FC0000
03FC0000
03FC0000
03FC0000
07FC0000
07FC0000
07FC0000
07F80000
07E00000
ENDCHAR
STARTCHAR 0178
ENCODING 376
SWIDTH 600 0
DWIDTH 30 0
BBX 30 41 7 0
BITMAP
00000C00
001E1F00
003E3F00
003E3E00
007E3E00
003C1800
00000000
000003FC
038007F8
3F8007F0
FFC00FF0
FFC01FE0
FFC01FE0
7FC03FC0
7FE07F80
7FE0FF80
3FE0FF00
3FE1FE00
3FF3FC00
1FF7FC00
1FF7F800
1FFFF000
1FFFF000
0FFFE000
0FFFC000
0FFFC000
07FF8000
07FF0000
07FF0000
03FE0000
03FC0000
03FC0000
03FC0000
03FC0000
03FC0000
03FC0000
07FC0000
07FC0000
07FC0000
07F80000
07E00000
ENDCHAR
STARTCHAR 0179
ENCODING 377
SWIDTH 600 0
DWIDTH 30 0
BBX 26 43 6 0
BITMAP
00007F00
0000FE00
0000FC00
0001F800
0003F000
0007E000
0007C000
00008000
00000000
003FFFC0
03FFFFC0
0FFFFF80
1FFFFF00
3FFFFE00
7FFFFC00
7FFFF800
FFFFF800
FFAFF000
000FE000
001FE000
003FC000
003F8000
007F8000
007F0000
00FF0000
00FE0000
01FE0000
03FC0000
03FC0000
07F80000
07F80000
0FF80000
0FE00000
1FE06180
1FFFFF80
3FFFFF80
7FFFFF80
7FFFFF00
7FFFFE00
FFFFFC00
07FFF800
01FFE000
000E0000
ENDCHAR
STARTCHAR 017A
ENCODING 378
SWIDTH 600 0
DWIDTH 30 0
BBX 26 43 6 0
BITMAP
00007F00
0000FE00
0000FC00
0001F800
0003F000
0007E000
0007C000
00008000
00000000
003FFFC0
03FFFFC0
0FFFFF80
1FFFFF00
3FFFFE00
7FFFFC00
7FFFF800
FFFFF800
FFAFF000
000FE000
001FE000
003FC000
003F8000
007F8000
007F0000
00FF0000
00FE0000
01FE0000
03FC0000
03FC0000
07F80000
07F80000
0FF80000
0FE00000
1FE06180
1FFFFF80
3FFFFF80
7FFFFF80
7FFFFF00
7FFFFE00
FFFFFC00
07FFF800
01FFE000
000E0000
ENDCHAR
STARTCHAR 017B
ENCODING 379
SWIDTH 600 0
DWIDTH 30 0
BBX 26 41 6 0
BITMAP
00010000
0007C000
0007C000
000FC000
000F8000
00070000
00000000
003FFFC0
03FFFFC0
0FFFFF80
1FFFFF00
3FFFFE00
7FFFFC00
7FFFF800
FFFFF800
FFAFF000
000FE000
001FE000
003FC000
003F8000
007F8000
007F0000
00FF0000
00FE0000
01FE0000
03FC0000
03FC0000
07F80000
07F80000
0FF80000
0FE00000
1FE06180
1FFFFF80
3FFFFF80
7FFFFF80
7FFFFF00
7FFFFE00
FFFFFC00
07FFF800
01FFE000
000E0000
ENDCHAR
STARTCHAR 017C
ENCODING 380
SWIDTH 600 0
DWIDTH 30 0
BBX 26 41 6 0
BITMAP
00010000
0007C000
0007C000
000FC000
000F8000
00070000
00000000
003FFFC0
03FFFFC0
0FFFFF80
1FFFFF00
3FFFFE00
7FFFFC00
7FFFF800
FFFFF800
FFAFF000
000FE000
001FE000
003FC000
003F8000
007F8000
007F0000
00FF0000
00FE0000
01FE0000
03FC0000
03FC0000
07F80000
07F80000
0FF80000
0FE00000
1FE06180
1FFFFF80
3FFFFF80
7FFFFF80
7FFFFF00
7FFFFE00
FFFFFC00
07FFF800
01FFE000
000E0000
ENDCHAR
STARTCHAR 017D
ENCODING 381
SWIDTH 600 0
DWIDTH 30 0
BBX 26 43 6 0
BITMAP
007C1E00
007E3F00
007EFE00
003FFC00
003FF800
001FE000
0007C000
00020000
00000000
003FFFC0
03FFFFC0
0FFFFF80
1FFFFF00
3FFFFE00
7FFFFC00
7FFFF800
FFFFF800
FFAFF000
000FE000
001FE000
003FC000
003F8000
007F8000
007F0000
00FF0000
00FE0000
01FE0000
03FC0000
03FC0000
07F80000
07F80000
0FF80000
0FE00000
1FE06180
1FFFFF80
3FFFFF80
7FFFFF80
7FFFFF00
7FFFFE00
FFFFFC00
07FFF800
01FFE000
000E0000
ENDCHAR
STARTCHAR 017E
ENCODING 382
SWIDTH 600 0
DWIDTH 30 0
BBX 26 43 6 0
BITMAP
007C1E00
007E3F00
007EFE00
003FFC00
003FF800
001FE000
0007C000
00020000
00000000
003FFFC0
03FFFFC0
0FFFFF80
1FFFFF00
3FFFFE00
7FFFFC00
7FFFF800
FFFFF800
FFAFF000
000FE000
001FE000
003FC000
003F8000
007F8000
007F0000
00FF0000
00FE0000
01FE0000
03FC0000
03FC0000
07F80000
07F80000
0FF80000
0FE00000
1FE06180
1FFFFF80
3FFFFF80
7FFFFF80
7FFFFF00
7FFFFE00
FFFFFC00
07FFF800
01FFE000
000E0000
ENDCHAR
STARTCHAR 017F
ENCODING 383
SWIDTH 420 0
DWIDTH 21 0
BBX 25 42 2 -7
BITMAP
0003E000
001FFE00
003FFF00
007FFF80
01FFFF80
03FFFF80
03FFFF80
07FC3F80
0FF81F00
0FF80000
0FF80000
0FF00000
0FF00000
0FF00000
0FE00000
1FE00000
1FE00000
1FE00000
1FE00000
1FE00000
1FE00000
1FE00000
1FE00000
3FC00000
3FC00000
3FC00000
3FC00000
3FC00000
3F800000
3F800000
7F800000
7F800000
7F800000
7F000000
7F000000
FF000000
FF000000
FF000000
FF000000
FF000000
FE000000
FE000000
ENDCHAR
STARTCHAR 0180
ENCODING 384
SWIDTH 520 0
DWIDTH 26 0
BBX 25 34 3 0
BITMAP
00FFE000
07FFF800
07FFFC00
0FFFFE00
0FFFFE00
0FFFFE00
0FFFFF00
0FFBFF00
0FF0FF00
0FF07E00
0FF07E00
0FF07C00
0FF0FC00
0FF9F800
0FFFF000
0FFFE000
1FFFF000
1FFFFC00
1FFFFE00
1FFFFF00
1FF8FF00
1FFE7F00
7FFEFF80
FFFEFF00
FFFEFF00
FFFFFF00
FFF3FE00
FFFFFE00
3FFFFC00
3FFFF000
3FFFF000
3FFFC000
3FFC0000
07000000
ENDCHAR
STARTCHAR 0181
ENCODING 385
SWIDTH 660 0
DWIDTH 33 0
BBX 29 34 6 1
BITMAP
007FFF00
03FFFFC0
07FFFFE0
0FFFFFE0
1FFFFFE0
3FFFFFF0
3FFFFFF0
7FFFDFF0
FFFF87F0
FE7F83F0
FC7F83F0
F87F87E0
F87F87E0
F87F8FC0
F87FFF80
FEFFFF00
FEFFFF80
FEFFFFE0
FEFFFFF0
7EFFFFF0
7CFFC7F8
00FF87F8
00FF87F8
00FF87F8
01FF8FF8
01FF9FF8
01FFFFF0
01FFFFF0
01FFFFE0
01FFFF80
01FFFF00
01FFFE00
01FFE000
00380000
ENDCHAR
STARTCHAR 0186
ENCODING 390
SWIDTH 480 0
DWIDTH 24 0
BBX 25 33 3 0
BITMAP
001F8000
00FFE000
03FFFC00
07FFFE00
0FFFFF00
0FFFFF00
0FFFFF80
0FFFFF80
0FFFFF80
0AFFFF80
0007FF80
0003FF80
0001FF80
0001FF80
0001FF80
0001FF80
0001FF00
0003FF00
2007FF00
7F9FFF00
7FFFFF00
7FFFFE00
7FFFFE00
7FFFFC00
FFFFFC00
FFFFF800
FFFFF000
FFFFF000
FFFFE000
7FFFC000
7FFFC000
3FFF8000
0FFC0000
ENDCHAR
STARTCHAR 0187
ENCODING 391
SWIDTH 480 0
DWIDTH 24 0
BBX 29 42 4 0
BITMAP
000001F0
00000FF8
00001FF0
00007FF0
0000FFF0
0000FFF0
0001FFC0
0001FF00
0003FE00
0003FE00
000FFF00
003FFF80
00FFFFC0
01FFFFC0
07FFFFC0
07FFFFC0
0FFFFF80
1FFFFF80
1FFFF500
3FFE0000
3FF80000
7FF00000
7FE00000
7FE00000
7FE00000
7FE00000
FFE00000
FFE00400
FFF9FC00
FFFFFC00
FFFFFC00
FFFFFC00
FFFFFC00
FFFFF800
FFFFF800
FFFFF800
7FFFF800
7FFFF000
7FFFC000
3FFFC000
3FFF0000
07FC0000
ENDCHAR
STARTCHAR 0188
ENCODING 392
SWIDTH 480 0
DWIDTH 24 0
BBX 29 42 4 0
BITMAP
000001F0
00000FF8
00001FF0
00007FF0
0000FFF0
0000FFF0
0001FFC0
0001FF00
0003FE00
0003FE00
000FFF00
003FFF80
00FFFFC0
01FFFFC0
07FFFFC0
07FFFFC0
0FFFFF80
1FFFFF80
1FFFF500
3FFE0000
3FF80000
7FF00000
7FE00000
7FE00000
7FE00000
7FE00000
FFE00000
FFE00400
FFF9FC00
FFFFFC00
FFFFFC00
FFFFFC00
FFFFFC00
FFFFF800
FFFFF800
FFFFF800
7FFFF800
7FFFF000
7FFFC000
3FFFC000
3FFF0000
07FC0000
ENDCHAR
STARTCHAR 0189
ENCODING 393
SWIDTH 480 0
DWIDTH 24 0
BBX 24 34 4 0
BITMAP
01FE00
07FFC0
07FFF0
07FFF8
07FFFC
0FFFFC
0FFFFE
0FFFFE
0FFFFF
0FF8FF
0FF87F
1FFE3F
1FFE3F
FFFE3F
FFFE7F
FFFE7F
FFFEFE
FFF1FE
FFE3FC
5FE7F8
1FFFF8
1FFFF0
1FFFE0
1FFFE0
1FFFC0
1FFF80
1FFF00
1FFE00
1FFC00
1FF800
1FE000
1F8000
1E0000
180000
ENDCHAR
STARTCHAR 018A
ENCODING 394
SWIDTH 620 0
DWIDTH 31 0
BBX 29 34 6 0
BITMAP
003FF800
03FFFE00
07FFFF80
0FFFFFC0
1FFFFFE0
3FFFFFE0
3FFFFFF0
7FFFFFF0
FFFFFFF8
FE7FE7F8
FC7FC1F8
F87F81F8
F8FF81F8
F8FF81F8
F8FF83F8
FEFF83F8
FEFF87F8
FEFF87F0
FEFF8FE0
7EFFBFE0
7CFFFFC0
00FFFF80
00FFFF00
00FFFF00
00FFFE00
00FFFC00
00FFF800
00FFF000
00FFE000
00FFC000
00FF0000
00FC0000
00F00000
00C00000
ENDCHAR
STARTCHAR 018F
ENCODING 399
SWIDTH 480 0
DWIDTH 24 0
BBX 24 34 3 0
BITMAP
003FF0
00FFF8
03FFFC
07FFFC
0FFFFE
0FFFFE
0FFFFE
07E7FF
0000FF
00007F
00003F
00003F
00007F
1FFFFF
3FFFFF
3FFFFF
3FFFFF
3FFFFF
3FFFFF
3FC1FE
7FC1FE
7FC1FE
7FC3FE
7FFFFE
7FFFFE
7FFFFC
FFFFFC
7FFFFC
7FFFF8
3FFFF0
1FFFE0
0FFFC0
07FF00
000800
ENDCHAR
STARTCHAR 0190
ENCODING 400
SWIDTH 480 0
DWIDTH 24 0
BBX 24 35 4 0
BITMAP
001FC0
007FF8
01FFFC
03FFFE
07FFFF
0FFFFF
0FFFFF
1FFC02
1FF800
3FF000
3FE000
3FE000
3FE000
3FE000
1FF000
1FFFE0
1FFFE0
0FFFE0
0FFFE0
1FFFC0
1FFC00
3FE000
3FC000
7FC000
7F8000
7F8000
FFC07C
FFF7F8
FFFFF8
7FFFF8
7FFFF0
3FFFF0
3FFFE0
1FFF80
03FC00
ENDCHAR
STARTCHAR 0191
ENCODING 401
SWIDTH 500 0
DWIDTH 25 0
BBX 35 42 -4 -7
BITMAP
000003FFC0
0001FFFFE0
000FFFFFE0
001FFFFFE0
001FFFFFE0
001FFFFFC0
001FFFFFC0
001FFFF1C0
003FFC0000
003FF00000
003FE00000
003FE00000
003FE00000
003FEF0000
007FFF0000
007FFF0000
007FFE0000
007FFE0000
00FFFE0000
00FFFE0000
00FF840000
00FF800000
00FF000000
01FF000000
01FF000000
01FF000000
01FF000000
03FF000000
03FE000000
03FE000000
03FE000000
03FE000000
07FC000000
07FC000000
0FFC000000
7FF8000000
7FF8000000
FFF0000000
FFE0000000
FF80000000
FF00000000
C000000000
ENDCHAR
STARTCHAR 0192
ENCODING 402
SWIDTH 500 0
DWIDTH 25 0
BBX 35 42 -4 -7
BITMAP
000003FFC0
0001FFFFE0
000FFFFFE0
001FFFFFE0
001FFFFFE0
001FFFFFC0
001FFFFFC0
001FFFF1C0
003FFC0000
003FF00000
003FE00000
003FE00000
003FE00000
003FEF0000
007FFF0000
007FFF0000
007FFE0000
007FFE0000
00FFFE0000
00FFFE0000
00FF840000
00FF800000
00FF000000
01FF000000
01FF000000
01FF000000
01FF000000
03FF000000
03FE000000
03FE000000
03FE000000
03FE000000
07FC000000
07FC000000
0FFC000000
7FF8000000
7FF8000000
FFF0000000
FFE0000000
FF80000000
FF00000000
C000000000
ENDCHAR
STARTCHAR 0193
ENCODING 403
SWIDTH 500 0
DWIDTH 25 0
BBX 30 42 3 0
BITMAP
0000007C
000007FC
00000FFC
00001FFC
00003FFC
00007FFC
00007FF0
0000FFC0
0000FF80
0003FF80
0007FF80
001FFFC0
001FFFC0
007FFFE0
007FFFE0
00FFFFC0
01FF9F80
03FC0000
03F80000
07F00000
07E00000
0FE00000
0FC00000
1FC01FC0
1F83FF80
1F83FF80
3F83FF80
3F83FF00
7F83FF00
7F83FF00
7F83FF00
FF87FF00
FFFFFE00
FFFFFE00
FFFFFE00
FFFFFE00
FFFFF800
FFFFF000
FFFFC000
7FFF0000
3FFC0000
1FE00000
ENDCHAR
STARTCHAR 0194
ENCODING 404
SWIDTH 600 0
DWIDTH 30 0
BBX 29 40 7 -6
BITMAP
07800000
7F800300
7F8007F0
7F800FF8
7F801FF8
7F801FF0
7F803FF0
7F803FE0
3F807FC0
3F807F80
3FC0FF80
3FC1FF00
3FC1FE00
3FC3FE00
1FC3FC00
1FE7FC00
1FEFF800
0FEFF000
0FFFF000
0FFFE000
07FFC000
07FFC000
03FF8000
03FF0000
07FE0000
0FFF0000
1FFF0000
3FFF0000
3FFF0000
7E3F0000
7C3F0000
7C3E0000
FC3E0000
FC3E0000
FC7C0000
FFFC0000
7FF80000
7FF00000
3FE00000
1F800000
ENDCHAR
STARTCHAR 0197
ENCODING 407
SWIDTH 360 0
DWIDTH 18 0
BBX 22 34 2 0
BITMAP
000FE0
003FFC
003FF8
003FF8
003FF0
007FF0
007FE0
007FE0
00FFE0
00FFC0
00FFC0
01FFC0
01FFC0
01FF80
0BFFF0
1FFFE0
3FFFE0
3FFFE0
3FFFE0
3FFFC0
07FF00
0FFE00
0FFE00
0FFE00
0FFE00
1FFE00
1FFE00
1FFC00
1FF800
3FF800
3FF800
7FF800
7FE000
F80000
ENDCHAR
STARTCHAR 0198
ENCODING 408
SWIDTH 600 0
DWIDTH 30 0
BBX 34 35 1 0
BITMAP
0000001800
01FFF03F00
01FFF07F80
01FFF0FF80
01FFF1FFC0
01FFE3FFC0
01FFE7FFC0
03FFE7FFC0
03FFEFFFC0
03FFFFCFC0
03FFDF8FC0
07FFFF0F80
07FFFF1F80
07FFFE3F00
07FFFC7F00
0FFFFCFE00
0FFFF8FE00
0FFFF0FC00
1FFFF0F800
1FFFF00000
1FFFF80000
1FFFFC0000
3FFFFC0000
3FFFFE0000
3FFFFF0000
3FFFFF0000
3FFEFF8000
7FFCFF8000
7FFC7FC000
7FFC7FC000
7FFC3FC000
7FFC3FC000
7FFC3FC000
FFF81C0000
00E0180000
ENDCHAR
STARTCHAR 0199
ENCODING 409
SWIDTH 600 0
DWIDTH 30 0
BBX 34 35 1 0
BITMAP
0000001800
01FFF03F00
01FFF07F80
01FFF0FF80
01FFF1FFC0
01FFE3FFC0
01FFE7FFC0
03FFE7FFC0
03FFEFFFC0
03FFFFCFC0
03FFDF8FC0
07FFFF0F80
07FFFF1F80
07FFFE3F00
07FFFC7F00
0FFFFCFE00
0FFFF8FE00
0FFFF0FC00
1FFFF0F800
1FFFF00000
1FFFF80000
1FFFFC0000
3FFFFC0000
3FFFFE0000
3FFFFF0000
3FFFFF0000
3FFEFF8000
7FFCFF8000
7FFC7FC000
7FFC7FC000
7FFC3FC000
7FFC3FC000
7FFC3FC000
FFF81C0000
00E0180000
ENDCHAR
STARTCHAR 019D
ENCODING 413
SWIDTH 560 0
DWIDTH 28 0
BBX 38 40 -4 -7
BITMAP
0000FF01F8
0001FF87FC
0003FF8FFC
0003FF0FFC
0003FF0FF8
0007FF0FF8
0007FF1FF8
000FFF1FF0
000FFF1FF0
000FFF1FF0
001FFF3FE0
001FFF3FE0
001FFF3FE0
003FFF3FC0
003FFF7FC0
003FFF7FC0
007FFF7F80
007FFFFF80
007FFFFF80
007FFFFF80
00FFDFFF00
00FFDFFF00
00FFCFFF00
00FF8FFF00
01FF8FFE00
01FF8FFE00
01FF0FFE00
03FF0FFC00
03FE0FFC00
03FE0FFC00
07FE0FFC00
07FC0FF800
0FFC000000
7FF8000000
7FF8000000
FFF0000000
FFE0000000
FF80000000
FF00000000
C000000000
ENDCHAR
STARTCHAR 01A0
ENCODING 416
SWIDTH 540 0
DWIDTH 27 0
BBX 30 36 4 0
BITMAP
0000001C
000E007C
001F807C
003FE07C
007FF07C
00FFF878
01FFFC78
01FFFE78
03FFFF78
07FFFFF0
07FFFFF0
0FFFFFF0
1FFFFFE0
1FFFFFC0
3FF1FF80
3FE0FFC0
7FE0FFC0
7FC0FFC0
FFC0FFC0
FFC0FFC0
FFC1FF80
FFC1FF80
FFE3FF80
FFFFFF80
FFFFFF00
FFFFFF00
FFFFFE00
FFFFFE00
FFFFFC00
7FFFFC00
7FFFF800
7FFFF800
3FFFF000
1FFFE000
0FFF8000
03FE0000
ENDCHAR
STARTCHAR 01A1
ENCODING 417
SWIDTH 540 0
DWIDTH 27 0
BBX 30 36 4 0
BITMAP
0000001C
000E007C
001F807C
003FE07C
007FF07C
00FFF878
01FFFC78
01FFFE78
03FFFF78
07FFFFF0
07FFFFF0
0FFFFFF0
1FFFFFE0
1FFFFFC0
3FF1FF80
3FE0FFC0
7FE0FFC0
7FC0FFC0
FFC0FFC0
FFC0FFC0
FFC1FF80
FFC1FF80
FFE3FF80
FFFFFF80
FFFFFF00
FFFFFF00
FFFFFE00
FFFFFE00
FFFFFC00
7FFFFC00
7FFFF800
7FFFF800
3FFFF000
1FFFE000
0FFF8000
03FE0000
ENDCHAR
STARTCHAR 01AF
ENCODING 431
SWIDTH 600 0
DWIDTH 30 0
BBX 33 36 4 0
BITMAP
0000000700
0000001F80
0000039F80
0FE03F8F00
0FE03F8F00
0FE03F8F00
1FC03F8F00
1FC03F8F00
1FC07F8E00
1FC07FFE00
1FC07FFE00
3FC07FFC00
3F807FFC00
3F807FF800
3F807FE000
3F807F8000
7F80FF0000
7F80FF0000
7F81FF0000
FF81FF0000
FF83FF0000
FF8FFE0000
FFFFFE0000
7FFFFE0000
7FFFFE0000
7FFFFC0000
7FFFFC0000
7FFFF80000
7FFFF80000
3FFFF00000
3FFFE00000
1FFFE00000
1FFFC00000
0FFF000000
0FFC000000
0060000000
ENDCHAR
STARTCHAR 01B0
ENCODING 432
SWIDTH 600 0
DWIDTH 30 0
BBX 33 36 4 0
BITMAP
0000000700
0000001F80
0000039F80
0FE03F8F00
0FE03F8F00
0FE03F8F00
1FC03F8F00
1FC03F8F00
1FC07F8E00
1FC07FFE00
1FC07FFE00
3FC07FFC00
3F807FFC00
3F807FF800
3F807FE000
3F807F8000
7F80FF0000
7F80FF0000
7F81FF0000
FF81FF0000
FF83FF0000
FF8FFE0000
FFFFFE0000
7FFFFE0000
7FFFFE0000
7FFFFC0000
7FFFFC0000
7FFFF80000
7FFFF80000
3FFFF00000
3FFFE00000
1FFFE00000
1FFFC00000
0FFF000000
0FFC000000
0060000000
ENDCHAR
STARTCHAR 01B1
ENCODING 433
SWIDTH 600 0
DWIDTH 30 0
BBX 33 35 4 0
BITMAP
07F007FF80
0FFF87FF80
0FFF07FF80
0FFF07FF80
1FFF0FFF00
1FFF0FFF00
1FFE0FFF00
1FFE0FFE00
01FC0FF000
03F807F800
07F803F800
0FF003F800
0FE003F800
1FC003F800
1FC001F800
3F8003F800
3F8003F800
7F8003F800
7F8007F800
7F0007F800
FF800FF000
FF800FF000
FF801FF000
FFC03FE000
FFE0FFE000
FFFFFFC000
FFFFFFC000
FFFFFF8000
FFFFFF0000
FFFFFE0000
7FFFFC0000
7FFFF80000
3FFFF00000
1FFFC00000
07FE000000
ENDCHAR
STARTCHAR 01B2
ENCODING 434
SWIDTH 560 0
DWIDTH 28 0
BBX 27 34 5 1
BITMAP
00007800
0F81FC00
1F83FE00
3F83FE00
3F83FF00
3FC1FF80
3F80FF80
3F80FFC0
3F807FC0
7F807FC0
7F803FC0
7F803FE0
7F803FE0
7F803FE0
FF803FC0
FF807FC0
FFC07FC0
FFC07FC0
FFC0FFC0
FFC1FF80
FFC3FF80
FFEFFF80
7FFFFF80
7FFFFF00
7FFFFF00
7FFFFE00
7FFFFE00
7FFFFC00
3FFFF800
1FFFF000
1FFFF000
0FFFE000
07FF8000
03FC0000
ENDCHAR
STARTCHAR 01B3
ENCODING 435
SWIDTH 660 0
DWIDTH 33 0
BBX 32 34 7 0
BITMAP
000001F0
038007F8
3F800FFC
FFC01FFE
FFC01FFE
FFC03FFE
7FC07FFE
7FE07FFE
7FE0FFFF
3FE1FF7E
3FE1FE7E
3FF3FE7E
1FF7FC7C
1FF7F8FC
1FFFF1F8
1FFFF3F8
0FFFE7F0
0FFFC7F0
0FFFC7E0
07FF87C0
07FF0780
07FF0000
03FE0000
03FC0000
03FC0000
03FC0000
03FC0000
03FC0000
03FC0000
07FC0000
07FC0000
07FC0000
07F80000
07E00000
ENDCHAR
STARTCHAR 01B4
ENCODING 436
SWIDTH 660 0
DWIDTH 33 0
BBX 32 34 7 0
BITMAP
000001F0
038007F8
3F800FFC
FFC01FFE
FFC01FFE
FFC03FFE
7FC07FFE
7FE07FFE
7FE0FFFF
3FE1FF7E
3FE1FE7E
3FF3FE7E
1FF7FC7C
1FF7F8FC
1FFFF1F8
1FFFF3F8
0FFFE7F0
0FFFC7F0
0FFFC7E0
07FF87C0
07FF0780
07FF0000
03FE0000
03FC0000
03FC0000
03FC0000
03FC0000
03FC0000
03FC0000
07FC0000
07FC0000
07FC0000
07F80000
07E00000
ENDCHAR
STARTCHAR 01B5
ENCODING 437
SWIDTH 600 0
DWIDTH 30 0
BBX 26 34 6 0
BITMAP
003FFFC0
03FFFFC0
0FFFFF80
1FFFFF00
3FFFFE00
7FFFFC00
7FFFF800
FFFFF800
FFAFF000
000FE000
001FE000
003FC000
003F8000
0FFFFE00
7FFFFE00
7FFFFE00
7FFFFE00
FFFFFE00
FFFFFE00
FFFFD000
07F80000
07F80000
0FF80000
0FE00000
1FE06180
1FFFFF80
3FFFFF80
7FFFFF80
7FFFFF00
7FFFFE00
FFFFFC00
07FFF800
01FFE000
000E0000
ENDCHAR
STARTCHAR 01B6
ENCODING 438
SWIDTH 600 0
DWIDTH 30 0
BBX 26 34 6 0
BITMAP
003FFFC0
03FFFFC0
0FFFFF80
1FFFFF00
3FFFFE00
7FFFFC00
7FFFF800
FFFFF800
FFAFF000
000FE000
001FE000
003FC000
003F8000
0FFFFE00
7FFFFE00
7FFFFE00
7FFFFE00
FFFFFE00
FFFFFE00
FFFFD000
07F80000
07F80000
0FF80000
0FE00000
1FE06180
1FFFFF80
3FFFFF80
7FFFFF80
7FFFFF00
7FFFFE00
FFFFFC00
07FFF800
01FFE000
000E0000
ENDCHAR
STARTCHAR 01B7
ENCODING 439
SWIDTH 480 0
DWIDTH 24 0
BBX 26 35 2 -1
BITMAP
007FFF80
01FFFFC0
01FFFFC0
01FFFFC0
01FFFF80
00FFFF80
00003F00
00007E00
0001FC00
0003F800
000FF000
001FF000
007FFC00
00FFFE00
03FFFF00
03FFFF00
07FFFF00
00FFFF00
00007F00
00003F00
00003F00
00003F00
00003F00
00003F00
78007F00
7F80FF00
FFFFFE00
FFFFFE00
FFFFFC00
FFFFF800
7FFFF000
3FFFE000
0FFFC000
07FF0000
00780000
ENDCHAR
STARTCHAR 01BB
ENCODING 443
SWIDTH 500 0
DWIDTH 25 0
BBX 26 34 3 0
BITMAP
00060000
003FC000
007FF000
00FFFC00
01FFFE00
07FFFE00
0FFFFC00
0FFFFC00
0FFFFC00
07E5FC00
0781FC00
0301F800
0003F800
0003FFC0
07FFFFC0
07FFFF80
0FFFFF80
0FFFFF80
0FFFFF80
0FFF8000
007F0380
007FFF80
00FFFF00
01FFFF00
03FFFE00
03FFFE00
07FFFE00
0FFFFC00
1FFFFC00
7FFFF800
FFFFF800
FFFFF000
7FFF8000
1FF80000
ENDCHAR
STARTCHAR 01C0
ENCODING 448
SWIDTH 180 0
DWIDTH 9 0
BBX 13 34 2 0
BITMAP
01F8
03F8
03F8
03F8
07F8
07F0
07F0
07F0
07F0
0FF0
0FE0
0FE0
0FE0
1FE0
1FE0
1FE0
1FC0
3FC0
3FC0
3F80
3F80
3F80
7F80
7F80
7F80
7F00
FF00
FF00
FF00
FE00
FE00
FE00
FE00
FC00
ENDCHAR
STARTCHAR 01C1
ENCODING 449
SWIDTH 300 0
DWIDTH 15 0
BBX 21 35 1 0
BITMAP
000018
01F9F8
01F9F0
01FBF0
01F3F0
03F3F0
03F3F0
03F3F0
03F7E0
07E7E0
07E7E0
07E7E0
07EFC0
07CFC0
0FCFC0
0FCFC0
0FCFC0
0FDF80
1F9F80
1F9F80
1F9F80
1F9F80
1FBF00
3FBF00
3F3F00
3F3F00
3F3E00
7F7E00
7E7E00
7E7E00
7E7E00
7E7C00
7CFC00
7CFC00
FC2800
ENDCHAR
STARTCHAR 01C2
ENCODING 450
SWIDTH 320 0
DWIDTH 16 0
BBX 19 34 2 0
BITMAP
003F80
003F80
007F80
007F00
007F00
00FF00
00FF00
00FF00
07FFE0
0FFFE0
0FFFE0
0FFFC0
1FFFC0
1FFFC0
1FFC00
03FC00
03FC00
03FC00
03F800
03F800
07F800
3FFF00
7FFF00
7FFF00
7FFF00
7FFE00
FFFE00
7FE000
0FE000
0FE000
1FE000
1FC000
1FC000
1FC000
ENDCHAR
STARTCHAR 01C3
ENCODING 451
SWIDTH 200 0
DWIDTH 10 0
BBX 15 35 2 0
BITMAP
01FE
03FE
03FE
03FC
03FC
07FC
07FC
07FC
07FC
07F8
0FF8
0FF8
0FF8
0FF0
0FF0
1FF0
1FE0
1FE0
1FE0
1FC0
1FC0
3FC0
1F00
0000
0000
0000
0E00
7F00
FF00
FF00
FF00
FF00
FF00
FE00
3000
ENDCHAR
STARTCHAR 01CA
ENCODING 458
SWIDTH 720 0
DWIDTH 36 0
BBX 41 34 1 0
BITMAP
000000003980
003E0F803F80
007F1FC07F80
00FF1FC07F80
00FF3F807F80
00FE3F80FF80
01FE3F80FF80
01FE3F00FF00
01FE7F01FF00
01FE7F01FF00
03FE7E01FF00
03FE7E03FF00
03FEFE03FF00
07FEFE03FE00
07FEFC03FE00
07FEFC03FE00
0FFEFC03FE00
0FFFF803FE00
0FFFF803FC00
0FFFF803FC00
1FDFF803FC00
1FDFF003FC00
1FDFF003F800
1FDFF3E3F800
3F9FF3F3F800
3F9FE3F7F000
3F9FE7F7F000
3F9FE7FFE000
7F1FE7FFE000
7F1FC3FFC000
7F1FC3FF8000
FF1FC3FF0000
FE1F81FE0000
E000007C0000
ENDCHAR
STARTCHAR 01CB
ENCODING 459
SWIDTH 720 0
DWIDTH 36 0
BBX 41 34 1 0
BITMAP
000000003980
003E0F803F80
007F1FC07F80
00FF1FC07F80
00FF3F807F80
00FE3F80FF80
01FE3F80FF80
01FE3F00FF00
01FE7F01FF00
01FE7F01FF00
03FE7E01FF00
03FE7E03FF00
03FEFE03FF00
07FEFE03FE00
07FEFC03FE00
07FEFC03FE00
0FFEFC03FE00
0FFFF803FE00
0FFFF803FC00
0FFFF803FC00
1FDFF803FC00
1FDFF003FC00
1FDFF003F800
1FDFF3E3F800
3F9FF3F3F800
3F9FE3F7F000
3F9FE7F7F000
3F9FE7FFE000
7F1FE7FFE000
7F1FC3FFC000
7F1FC3FF8000
FF1FC3FF0000
FE1F81FE0000
E000007C0000
ENDCHAR
STARTCHAR 01CC
ENCODING 460
SWIDTH 720 0
DWIDTH 36 0
BBX 41 34 1 0
BITMAP
000000003980
003E0F803F80
007F1FC07F80
00FF1FC07F80
00FF3F807F80
00FE3F80FF80
01FE3F80FF80
01FE3F00FF00
01FE7F01FF00
01FE7F01FF00
03FE7E01FF00
03FE7E03FF00
03FEFE03FF00
07FEFE03FE00
07FEFC03FE00
07FEFC03FE00
0FFEFC03FE00
0FFFF803FE00
0FFFF803FC00
0FFFF803FC00
1FDFF803FC00
1FDFF003FC00
1FDFF003F800
1FDFF3E3F800
3F9FF3F3F800
3F9FE3F7F000
3F9FE7F7F000
3F9FE7FFE000
7F1FE7FFE000
7F1FC3FFC000
7F1FC3FF8000
FF1FC3FF0000
FE1F81FE0000
E000007C0000
ENDCHAR
STARTCHAR 01CD
ENCODING 461
SWIDTH 620 0
DWIDTH 31 0
BBX 32 44 1 -1
BITMAP
00003C1F
00007E3F
00007FFE
00003FFC
00001FF8
00000FF0
000007C0
00000300
00000000
00000180
00000FC0
00000FC0
00001FC0
00003FC0
00003FC0
00007FC0
00007FC0
0000FFC0
0000FFC0
0001FFC0
0003FFC0
0003FFC0
0007FFC0
0007FFE0
000FFFE0
001FFFE0
001FFFE0
003F7FE0
007E3FE0
007C3FE0
00F83FE0
01F03FE0
01FFFFE0
03FFFFF0
07FFFFF0
07FFFFF0
0FFC7FF0
1FF07FF0
1FE07FF8
3FC07FF8
7FC07FF8
7FC07FF8
FFC07FFC
FE002000
ENDCHAR
STARTCHAR 01CE
ENCODING 462
SWIDTH 620 0
DWIDTH 31 0
BBX 32 44 1 -1
BITMAP
00003C1F
00007E3F
00007FFE
00003FFC
00001FF8
00000FF0
000007C0
00000300
00000000
00000180
00000FC0
00000FC0
00001FC0
00003FC0
00003FC0
00007FC0
00007FC0
0000FFC0
0000FFC0
0001FFC0
0003FFC0
0003FFC0
0007FFC0
0007FFE0
000FFFE0
001FFFE0
001FFFE0
003F7FE0
007E3FE0
007C3FE0
00F83FE0
01F03FE0
01FFFFE0
03FFFFF0
07FFFFF0
07FFFFF0
0FFC7FF0
1FF07FF0
1FE07FF8
3FC07FF8
7FC07FF8
7FC07FF8
FFC07FFC
FE002000
ENDCHAR
STARTCHAR 01CF
ENCODING 463
SWIDTH 320 0
DWIDTH 16 0
BBX 26 43 1 0
BITMAP
000F07C0
001F8FC0
001FFFC0
000FFF00
0007FE00
0003FC00
0001F000
0000C000
00000000
000FE000
001FFC00
003FF800
003FF800
003FF000
003FF000
007FF000
007FE000
00FFE000
00FFE000
00FFC000
00FFC000
01FFC000
01FFC000
01FF8000
03FF8000
03FF8000
03FF8000
07FF0000
07FF0000
07FF0000
07FF0000
0FFE0000
0FFE0000
0FFE0000
0FFE0000
1FFE0000
1FFE0000
1FFC0000
3FF80000
3FF80000
3FF80000
7FE00000
FC000000
ENDCHAR
STARTCHAR 01D0
ENCODING 464
SWIDTH 320 0
DWIDTH 16 0
BBX 26 43 1 0
BITMAP
000F07C0
001F8FC0
001FFFC0
000FFF00
0007FE00
0003FC00
0001F000
0000C000
00000000
000FE000
001FFC00
003FF800
003FF800
003FF000
003FF000
007FF000
007FE000
00FFE000
00FFE000
00FFC000
00FFC000
01FFC000
01FFC000
01FF8000
03FF8000
03FF8000
03FF8000
07FF0000
07FF0000
07FF0000
07FF0000
0FFE0000
0FFE0000
0FFE0000
0FFE0000
1FFE0000
1FFE0000
1FFC0000
3FF80000
3FF80000
3FF80000
7FE00000
FC000000
ENDCHAR
STARTCHAR 01D1
ENCODING 465
SWIDTH 520 0
DWIDTH 26 0
BBX 26 43 4 0
BITMAP
01F0F800
03F9F800
01FFF000
01FFE000
00FFC000
007F8000
003E0000
00000000
000E0000
001F8000
003FE000
007FF000
00FFF800
01FFFC00
01FFFE00
03FFFF00
07FFFF00
07FFFF00
0FFFFF80
1FFFFF80
1FFFFF80
3FF1FF80
3FE0FFC0
7FE0FFC0
7FC0FFC0
FFC0FFC0
FFC0FFC0
FFC1FF80
FFC1FF80
FFE3FF80
FFFFFF80
FFFFFF00
FFFFFF00
FFFFFE00
FFFFFE00
FFFFFC00
7FFFFC00
7FFFF800
7FFFF800
3FFFF000
1FFFE000
0FFF8000
03FE0000
ENDCHAR
STARTCHAR 01D2
ENCODING 466
SWIDTH 520 0
DWIDTH 26 0
BBX 26 43 4 0
BITMAP
01F0F800
03F9F800
01FFF000
01FFE000
00FFC000
007F8000
003E0000
00000000
000E0000
001F8000
003FE000
007FF000
00FFF800
01FFFC00
01FFFE00
03FFFF00
07FFFF00
07FFFF00
0FFFFF80
1FFFFF80
1FFFFF80
3FF1FF80
3FE0FFC0
7FE0FFC0
7FC0FFC0
FFC0FFC0
FFC0FFC0
FFC1FF80
FFC1FF80
FFE3FF80
FFFFFF80
FFFFFF00
FFFFFF00
FFFFFE00
FFFFFE00
FFFFFC00
7FFFFC00
7FFFF800
7FFFF800
3FFFF000
1FFFE000
0FFF8000
03FE0000
ENDCHAR
STARTCHAR 01D3
ENCODING 467
SWIDTH 540 0
DWIDTH 27 0
BBX 29 42 4 1
BITMAP
0003C0F0
0007E3F8
0003FFF0
0003FFE0
0001FFC0
0000FF00
00007C00
00003000
00000000
01F803F0
01FC07F8
03FC07F8
03F807F8
07F807F8
07F807F0
0FF007F0
0FF00FF0
0FF00FF0
1FE00FF0
1FE01FE0
3FE01FE0
3FE01FE0
3FC03FE0
7FC03FE0
7FC07FE0
7FC07FC0
7FE07FC0
FFF0FFC0
FFFFFF80
FFFFFF80
FFFFFF00
FFFFFF00
FFFFFE00
FFFFFC00
FFFFFC00
FFFFF800
7FFFF000
7FFFE000
7FFFC000
3FFF8000
1FFF0000
03FC0000
ENDCHAR
STARTCHAR 01D4
ENCODING 468
SWIDTH 540 0
DWIDTH 27 0
BBX 29 42 4 1
BITMAP
0003C0F0
0007E3F8
0003FFF0
0003FFE0
0001FFC0
0000FF00
00007C00
00003000
00000000
01F803F0
01FC07F8
03FC07F8
03F807F8
07F807F8
07F807F0
0FF007F0
0FF00FF0
0FF00FF0
1FE00FF0
1FE01FE0
3FE01FE0
3FE01FE0
3FC03FE0
7FC03FE0
7FC07FE0
7FC07FC0
7FE07FC0
FFF0FFC0
FFFFFF80
FFFFFF80
FFFFFF00
FFFFFF00
FFFFFE00
FFFFFC00
FFFFFC00
FFFFF800
7FFFF000
7FFFE000
7FFFC000
3FFF8000
1FFF0000
03FC0000
ENDCHAR
STARTCHAR 01D5
ENCODING 469
SWIDTH 540 0
DWIDTH 27 0
BBX 29 44 4 1
BITMAP
0003FFF8
0003FFF0
0007FFF0
0003FFF0
00000000
00038100
0007C7C0
000FC7C0
000FC7C0
00078780
00000000
01F803F0
01FC07F8
03FC07F8
03F807F8
07F807F8
07F807F0
0FF007F0
0FF00FF0
0FF00FF0
1FE00FF0
1FE01FE0
3FE01FE0
3FE01FE0
3FC03FE0
7FC03FE0
7FC07FE0
7FC07FC0
7FE07FC0
FFF0FFC0
FFFFFF80
FFFFFF80
FFFFFF00
FFFFFF00
FFFFFE00
FFFFFC00
FFFFFC00
FFFFF800
7FFFF000
7FFFE000
7FFFC000
3FFF8000
1FFF0000
03FC0000
ENDCHAR
STARTCHAR 01D6
ENCODING 470
SWIDTH 540 0
DWIDTH 27 0
BBX 29 44 4 1
BITMAP
0003FFF8
0003FFF0
0007FFF0
0003FFF0
00000000
00038100
0007C7C0
000FC7C0
000FC7C0
00078780
00000000
01F803F0
01FC07F8
03FC07F8
03F807F8
07F807F8
07F807F0
0FF007F0
0FF00FF0
0FF00FF0
1FE00FF0
1FE01FE0
3FE01FE0
3FE01FE0
3FC03FE0
7FC03FE0
7FC07FE0
7FC07FC0
7FE07FC0
FFF0FFC0
FFFFFF80
FFFFFF80
FFFFFF00
FFFFFF00
FFFFFE00
FFFFFC00
FFFFFC00
FFFFF800
7FFFF000
7FFFE000
7FFFC000
3FFF8000
1FFF0000
03FC0000
ENDCHAR
STARTCHAR 01D7
ENCODING 471
SWIDTH 540 0
DWIDTH 27 0
BBX 29 44 4 1
BITMAP
000003F8
000007F0
00000FC0
00001F00
00003E00
00038100
0007C7C0
000FC7C0
000FC7C0
00078780
00000000
01F803F0
01FC07F8
03FC07F8
03F807F8
07F807F8
07F807F0
0FF007F0
0FF00FF0
0FF00FF0
1FE00FF0
1FE01FE0
3FE01FE0
3FE01FE0
3FC03FE0
7FC03FE0
7FC07FE0
7FC07FC0
7FE07FC0
FFF0FFC0
FFFFFF80
FFFFFF80
FFFFFF00
FFFFFF00
FFFFFE00
FFFFFC00
FFFFFC00
FFFFF800
7FFFF000
7FFFE000
7FFFC000
3FFF8000
1FFF0000
03FC0000
ENDCHAR
STARTCHAR 01D8
ENCODING 472
SWIDTH 540 0
DWIDTH 27 0
BBX 29 44 4 1
BITMAP
000003F8
000007F0
00000FC0
00001F00
00003E00
00038100
0007C7C0
000FC7C0
000FC7C0
00078780
00000000
01F803F0
01FC07F8
03FC07F8
03F807F8
07F807F8
07F807F0
0FF007F0
0FF00FF0
0FF00FF0
1FE00FF0
1FE01FE0
3FE01FE0
3FE01FE0
3FC03FE0
7FC03FE0
7FC07FE0
7FC07FC0
7FE07FC0
FFF0FFC0
FFFFFF80
FFFFFF80
FFFFFF00
FFFFFF00
FFFFFE00
FFFFFC00
FFFFFC00
FFFFF800
7FFFF000
7FFFE000
7FFFC000
3FFF8000
1FFF0000
03FC0000
ENDCHAR
STARTCHAR 01D9
ENCODING 473
SWIDTH 540 0
DWIDTH 27 0
BBX 29 44 4 1
BITMAP
0003E1F8
0003F7F0
0001FFE0
0000FF80
00003E00
00038100
0007C7C0
000FC7C0
000FC7C0
00078780
00000000
01F803F0
01FC07F8
03FC07F8
03F807F8
07F807F8
07F807F0
0FF007F0
0FF00FF0
0FF00FF0
1FE00FF0
1FE01FE0
3FE01FE0
3FE01FE0
3FC03FE0
7FC03FE0
7FC07FE0
7FC07FC0
7FE07FC0
FFF0FFC0
FFFFFF80
FFFFFF80
FFFFFF00
FFFFFF00
FFFFFE00
FFFFFC00
FFFFFC00
FFFFF800
7FFFF000
7FFFE000
7FFFC000
3FFF8000
1FFF0000
03FC0000
ENDCHAR
STARTCHAR 01DA
ENCODING 474
SWIDTH 540 0
DWIDTH 27 0
BBX 29 44 4 1
BITMAP
0003E1F8
0003F7F0
0001FFE0
0000FF80
00003E00
00038100
0007C7C0
000FC7C0
000FC7C0
00078780
00000000
01F803F0
01FC07F8
03FC07F8
03F807F8
07F807F8
07F807F0
0FF007F0
0FF00FF0
0FF00FF0
1FE00FF0
1FE01FE0
3FE01FE0
3FE01FE0
3FC03FE0
7FC03FE0
7FC07FE0
7FC07FC0
7FE07FC0
FFF0FFC0
FFFFFF80
FFFFFF80
FFFFFF00
FFFFFF00
FFFFFE00
FFFFFC00
FFFFFC00
FFFFF800
7FFFF000
7FFFE000
7FFFC000
3FFF8000
1FFF0000
03FC0000
ENDCHAR
STARTCHAR 01DB
ENCODING 475
SWIDTH 540 0
DWIDTH 27 0
BBX 29 44 4 1
BITMAP
0003F800
0003F800
0000FC00
00007E00
00003E00
00038100
0007C7C0
000FC7C0
000FC7C0
00078780
00000000
01F803F0
01FC07F8
03FC07F8
03F807F8
07F807F8
07F807F0
0FF007F0
0FF00FF0
0FF00FF0
1FE00FF0
1FE01FE0
3FE01FE0
3FE01FE0
3FC03FE0
7FC03FE0
7FC07FE0
7FC07FC0
7FE07FC0
FFF0FFC0
FFFFFF80
FFFFFF80
FFFFFF00
FFFFFF00
FFFFFE00
FFFFFC00
FFFFFC00
FFFFF800
7FFFF000
7FFFE000
7FFFC000
3FFF8000
1FFF0000
03FC0000
ENDCHAR
STARTCHAR 01DC
ENCODING 476
SWIDTH 540 0
DWIDTH 27 0
BBX 29 44 4 1
BITMAP
0003F800
0003F800
0000FC00
00007E00
00003E00
00038100
0007C7C0
000FC7C0
000FC7C0
00078780
00000000
01F803F0
01FC07F8
03FC07F8
03F807F8
07F807F8
07F807F0
0FF007F0
0FF00FF0
0FF00FF0
1FE00FF0
1FE01FE0
3FE01FE0
3FE01FE0
3FC03FE0
7FC03FE0
7FC07FE0
7FC07FC0
7FE07FC0
FFF0FFC0
FFFFFF80
FFFFFF80
FFFFFF00
FFFFFF00
FFFFFE00
FFFFFC00
FFFFFC00
FFFFF800
7FFFF000
7FFFE000
7FFFC000
3FFF8000
1FFF0000
03FC0000
ENDCHAR
STARTCHAR 01DE
ENCODING 478
SWIDTH 620 0
DWIDTH 31 0
BBX 33 46 1 -1
BITMAP
00003FFF80
00003FFF80
00003FFF00
00003FC000
0000000000
00001C1C00
00003E3E00
00007E3E00
00007C7C00
0000381800
0000000000
0000018000
00000FC000
00000FC000
00001FC000
00003FC000
00003FC000
00007FC000
00007FC000
0000FFC000
0000FFC000
0001FFC000
0003FFC000
0003FFC000
0007FFC000
0007FFE000
000FFFE000
001FFFE000
001FFFE000
003F7FE000
007E3FE000
007C3FE000
00F83FE000
01F03FE000
01FFFFE000
03FFFFF000
07FFFFF000
07FFFFF000
0FFC7FF000
1FF07FF000
1FE07FF800
3FC07FF800
7FC07FF800
7FC07FF800
FFC07FFC00
FE00200000
ENDCHAR
STARTCHAR 01DF
ENCODING 479
SWIDTH 620 0
DWIDTH 31 0
BBX 33 46 1 -1
BITMAP
00003FFF80
00003FFF80
00003FFF00
00003FC000
0000000000
00001C1C00
00003E3E00
00007E3E00
00007C7C00
0000381800
0000000000
0000018000
00000FC000
00000FC000
00001FC000
00003FC000
00003FC000
00007FC000
00007FC000
0000FFC000
0000FFC000
0001FFC000
0003FFC000
0003FFC000
0007FFC000
0007FFE000
000FFFE000
001FFFE000
001FFFE000
003F7FE000
007E3FE000
007C3FE000
00F83FE000
01F03FE000
01FFFFE000
03FFFFF000
07FFFFF000
07FFFFF000
0FFC7FF000
1FF07FF000
1FE07FF800
3FC07FF800
7FC07FF800
7FC07FF800
FFC07FFC00
FE00200000
ENDCHAR
STARTCHAR 01E0
ENCODING 480
SWIDTH 620 0
DWIDTH 31 0
BBX 33 46 1 -1
BITMAP
00003FFF80
00003FFF80
00003FFF00
00003FC000
0000000000
000001C000
000003E000
000007E000
000007C000
0000038000
0000000000
0000018000
00000FC000
00000FC000
00001FC000
00003FC000
00003FC000
00007FC000
00007FC000
0000FFC000
0000FFC000
0001FFC000
0003FFC000
0003FFC000
0007FFC000
0007FFE000
000FFFE000
001FFFE000
001FFFE000
003F7FE000
007E3FE000
007C3FE000
00F83FE000
01F03FE000
01FFFFE000
03FFFFF000
07FFFFF000
07FFFFF000
0FFC7FF000
1FF07FF000
1FE07FF800
3FC07FF800
7FC07FF800
7FC07FF800
FFC07FFC00
FE00200000
ENDCHAR
STARTCHAR 01E1
ENCODING 481
SWIDTH 620 0
DWIDTH 31 0
BBX 33 46 1 -1
BITMAP
00003FFF80
00003FFF80
00003FFF00
00003FC000
0000000000
000001C000
000003E000
000007E000
000007C000
0000038000
0000000000
0000018000
00000FC000
00000FC000
00001FC000
00003FC000
00003FC000
00007FC000
00007FC000
0000FFC000
0000FFC000
0001FFC000
0003FFC000
0003FFC000
0007FFC000
0007FFE000
000FFFE000
001FFFE000
001FFFE000
003F7FE000
007E3FE000
007C3FE000
00F83FE000
01F03FE000
01FFFFE000
03FFFFF000
07FFFFF000
07FFFFF000
0FFC7FF000
1FF07FF000
1FE07FF800
3FC07FF800
7FC07FF800
7FC07FF800
FFC07FFC00
FE00200000
ENDCHAR
STARTCHAR 01E2
ENCODING 482
SWIDTH 720 0
DWIDTH 36 0
BBX 37 41 1 -1
BITMAP
000003FFF8
000003FFF8
000003FFF8
000003FFF0
0000010000
0000001E00
000003FFF8
00000FFFF8
00000FFFF8
00001FFFF0
00003FFFF0
00003FFFE0
00007FFFE0
00007FFFC0
0000FFFFE0
0001FFFFC0
0001FFF000
0003FFE000
0003FFE000
0007FFE180
000FFFFF80
000FFFFF00
001FFFFF00
003FFFFF00
003E7FFF80
007E3FE000
00FC3FE000
00F83FEF70
01F03FFFF0
01FFFFFFF0
03FFFFFFF0
07FFFFFFF0
07FFFFFFF0
0FF87FFFF0
1FE07FFFF0
1FE07FFFF0
3FC07FFFF0
7FC07FFF00
7FC07FF000
FFC03E0000
F800000000
ENDCHAR
STARTCHAR 01E3
ENCODING 483
SWIDTH 720 0
DWIDTH 36 0
BBX 37 41 1 -1
BITMAP
000003FFF8
000003FFF8
000003FFF8
000003FFF0
0000010000
0000001E00
000003FFF8
00000FFFF8
00000FFFF8
00001FFFF0
00003FFFF0
00003FFFE0
00007FFFE0
00007FFFC0
0000FFFFE0
0001FFFFC0
0001FFF000
0003FFE000
0003FFE000
0007FFE180
000FFFFF80
000FFFFF00
001FFFFF00
003FFFFF00
003E7FFF80
007E3FE000
00FC3FE000
00F83FEF70
01F03FFFF0
01FFFFFFF0
03FFFFFFF0
07FFFFFFF0
07FFFFFFF0
0FF87FFFF0
1FE07FFFF0
1FE07FFFF0
3FC07FFFF0
7FC07FFF00
7FC07FF000
FFC03E0000
F800000000
ENDCHAR
STARTCHAR 01E4
ENCODING 484
SWIDTH 540 0
DWIDTH 27 0
BBX 27 33 5 0
BITMAP
0003FE00
0007FF80
000FFFC0
001FFFE0
003FFFE0
007FFFE0
00FFFFC0
01FF9F80
01FE0000
03F80000
03F80000
7FFE0000
FFFC0000
FFFC0000
FFFC1FC0
FFFDFF80
FFFFFF80
1F83FF80
3F83FF80
3F83FF80
7F83FF00
7F83FF00
7FC3FF00
FFFFFF00
FFFFFE00
FFFFFE00
FFFFFE00
FFFFFC00
FFFFF000
7FFFC000
7FFF0000
3FFC0000
1FE00000
ENDCHAR
STARTCHAR 01E5
ENCODING 485
SWIDTH 540 0
DWIDTH 27 0
BBX 27 33 5 0
BITMAP
0003FE00
0007FF80
000FFFC0
001FFFE0
003FFFE0
007FFFE0
00FFFFC0
01FF9F80
01FE0000
03F80000
03F80000
7FFE0000
FFFC0000
FFFC0000
FFFC1FC0
FFFDFF80
FFFFFF80
1F83FF80
3F83FF80
3F83FF80
7F83FF00
7F83FF00
7FC3FF00
FFFFFF00
FFFFFE00
FFFFFE00
FFFFFE00
FFFFFC00
FFFFF000
7FFFC000
7FFF0000
3FFC0000
1FE00000
ENDCHAR
STARTCHAR 01E6
ENCODING 486
SWIDTH 500 0
DWIDTH 25 0
BBX 27 42 3 0
BITMAP
000783E0
000FC7E0
000FFFC0
0007FF80
0003FF00
0001FE00
0000F800
00006000
00000000
0003FE00
0007FF80
001FFFC0
001FFFC0
007FFFE0
007FFFE0
00FFFFC0
01FF9F80
03FC0000
03F80000
07F00000
07E00000
0FE00000
0FC00000
1FC01FC0
1F83FF80
1F83FF80
3F83FF80
3F83FF00
7F83FF00
7F83FF00
7F83FF00
FF87FF00
FFFFFE00
FFFFFE00
FFFFFE00
FFFFFE00
FFFFF800
FFFFF000
FFFFC000
7FFF0000
3FFC0000
1FE00000
ENDCHAR
STARTCHAR 01E7
ENCODING 487
SWIDTH 500 0
DWIDTH 25 0
BBX 27 42 3 0
BITMAP
000783E0
000FC7E0
000FFFC0
0007FF80
0003FF00
0001FE00
0000F800
00006000
00000000
0003FE00
0007FF80
001FFFC0
001FFFC0
007FFFE0
007FFFE0
00FFFFC0
01FF9F80
03FC0000
03F80000
07F00000
07E00000
0FE00000
0FC00000
1FC01FC0
1F83FF80
1F83FF80
3F83FF80
3F83FF00
7F83FF00
7F83FF00
7F83FF00
FF87FF00
FFFFFE00
FFFFFE00
FFFFFE00
FFFFFE00
FFFFF800
FFFFF000
FFFFC000
7FFF0000
3FFC0000
1FE00000
ENDCHAR
STARTCHAR 01E8
ENCODING 488
SWIDTH 540 0
DWIDTH 27 0
BBX 32 43 1 0
BITMAP
00003C0F
00007E3F
00007FFF
00003FFC
00001FF8
00000FF0
000007C0
00000300
00000010
01FFF038
01FFF078
01FFF0FC
01FFF1FF
01FFE3FE
01FFE7FE
03FFE7FC
03FFEFF8
03FFFFF0
03FFDFE0
07FFFFC0
07FFFF80
07FFFF00
07FFFE00
0FFFFE00
0FFFFC00
0FFFF800
1FFFF000
1FFFF000
1FFFF800
1FFFFC00
3FFFFC00
3FFFFE00
3FFFFF00
3FFFFF00
3FFEFF80
7FFCFF80
7FFC7FC0
7FFC7FC0
7FFC3FC0
7FFC3FC0
7FFC3FC0
FFF81C00
00E01800
ENDCHAR
STARTCHAR 01E9
ENCODING 489
SWIDTH 540 0
DWIDTH 27 0
BBX 32 43 1 0
BITMAP
00003C0F
00007E3F
00007FFF
00003FFC
00001FF8
00000FF0
000007C0
00000300
00000010
01FFF038
01FFF078
01FFF0FC
01FFF1FF
01FFE3FE
01FFE7FE
03FFE7FC
03FFEFF8
03FFFFF0
03FFDFE0
07FFFFC0
07FFFF80
07FFFF00
07FFFE00
0FFFFE00
0FFFFC00
0FFFF800
1FFFF000
1FFFF000
1FFFF800
1FFFFC00
3FFFFC00
3FFFFE00
3FFFFF00
3FFFFF00
3FFEFF80
7FFCFF80
7FFC7FC0
7FFC7FC0
7FFC3FC0
7FFC3FC0
7FFC3FC0
FFF81C00
00E01800
ENDCHAR
STARTCHAR 01EA
ENCODING 490
SWIDTH 520 0
DWIDTH 26 0
BBX 26 43 4 -8
BITMAP
000E0000
001F8000
003FE000
007FF000
00FFF800
01FFFC00
01FFFE00
03FFFF00
07FFFF00
07FFFF00
0FFFFF80
1FFFFF80
1FFFFF80
3FF1FF80
3FE0FFC0
7FE0FFC0
7FC0FFC0
FFC0FFC0
FFC0FFC0
FFC1FF80
FFC1FF80
FFE3FF80
FFFFFF80
FFFFFF00
FFFFFF00
FFFFFE00
FFFFFE00
FFFFFC00
7FFFFC00
7FFFF800
7FFFF800
3FFFF000
1FFFE000
0FFF8000
03FE0000
00F00000
01E00000
03E00000
03E04000
07FFC000
07FFC000
03FFC000
01FFC000
ENDCHAR
STARTCHAR 01EB
ENCODING 491
SWIDTH 520 0
DWIDTH 26 0
BBX 26 43 4 -8
BITMAP
000E0000
001F8000
003FE000
007FF000
00FFF800
01FFFC00
01FFFE00
03FFFF00
07FFFF00
07FFFF00
0FFFFF80
1FFFFF80
1FFFFF80
3FF1FF80
3FE0FFC0
7FE0FFC0
7FC0FFC0
FFC0FFC0
FFC0FFC0
FFC1FF80
FFC1FF80
FFE3FF80
FFFFFF80
FFFFFF00
FFFFFF00
FFFFFE00
FFFFFE00
FFFFFC00
7FFFFC00
7FFFF800
7FFFF800
3FFFF000
1FFFE000
0FFF8000
03FE0000
00F00000
01E00000
03E00000
03E04000
07FFC000
07FFC000
03FFC000
01FFC000
ENDCHAR
STARTCHAR 01EC
ENCODING 492
SWIDTH 520 0
DWIDTH 26 0
BBX 26 48 4 -8
BITMAP
01FFF800
01FFF800
03FFF800
03FFF800
00000000
000E0000
001F8000
003FE000
007FF000
00FFF800
01FFFC00
01FFFE00
03FFFF00
07FFFF00
07FFFF00
0FFFFF80
1FFFFF80
1FFFFF80
3FF1FF80
3FE0FFC0
7FE0FFC0
7FC0FFC0
FFC0FFC0
FFC0FFC0
FFC1FF80
FFC1FF80
FFE3FF80
FFFFFF80
FFFFFF00
FFFFFF00
FFFFFE00
FFFFFE00
FFFFFC00
7FFFFC00
7FFFF800
7FFFF800
3FFFF000
1FFFE000
0FFF8000
03FE0000
00F00000
01E00000
03E00000
03E04000
07FFC000
07FFC000
03FFC000
01FFC000
ENDCHAR
STARTCHAR 01ED
ENCODING 493
SWIDTH 520 0
DWIDTH 26 0
BBX 26 48 4 -8
BITMAP
01FFF800
01FFF800
03FFF800
03FFF800
00000000
000E0000
001F8000
003FE000
007FF000
00FFF800
01FFFC00
01FFFE00
03FFFF00
07FFFF00
07FFFF00
0FFFFF80
1FFFFF80
1FFFFF80
3FF1FF80
3FE0FFC0
7FE0FFC0
7FC0FFC0
FFC0FFC0
FFC0FFC0
FFC1FF80
FFC1FF80
FFE3FF80
FFFFFF80
FFFFFF00
FFFFFF00
FFFFFE00
FFFFFE00
FFFFFC00
7FFFFC00
7FFFF800
7FFFF800
3FFFF000
1FFFE000
0FFF8000
03FE0000
00F00000
01E00000
03E00000
03E04000
07FFC000
07FFC000
03FFC000
01FFC000
ENDCHAR
STARTCHAR 01EE
ENCODING 494
SWIDTH 480 0
DWIDTH 24 0
BBX 26 44 2 -1
BITMAP
000E0380
001F0FC0
001FBF80
001FFF00
000FFE00
0007FC00
0003F000
0001C000
00000000
007FFF80
01FFFFC0
01FFFFC0
01FFFFC0
01FFFF80
00FFFF80
00003F00
00007E00
0001FC00
0003F800
000FF000
001FF000
007FFC00
00FFFE00
03FFFF00
03FFFF00
07FFFF00
00FFFF00
00007F00
00003F00
00003F00
00003F00
00003F00
00003F00
78007F00
7F80FF00
FFFFFE00
FFFFFE00
FFFFFC00
FFFFF800
7FFFF000
3FFFE000
0FFFC000
07FF0000
00780000
ENDCHAR
STARTCHAR 01EF
ENCODING 495
SWIDTH 480 0
DWIDTH 24 0
BBX 26 44 2 -1
BITMAP
000E0380
001F0FC0
001FBF80
001FFF00
000FFE00
0007FC00
0003F000
0001C000
00000000
007FFF80
01FFFFC0
01FFFFC0
01FFFFC0
01FFFF80
00FFFF80
00003F00
00007E00
0001FC00
0003F800
000FF000
001FF000
007FFC00
00FFFE00
03FFFF00
03FFFF00
07FFFF00
00FFFF00
00007F00
00003F00
00003F00
00003F00
00003F00
00003F00
78007F00
7F80FF00
FFFFFE00
FFFFFE00
FFFFFC00
FFFFF800
7FFFF000
3FFFE000
0FFFC000
07FF0000
00780000
ENDCHAR
STARTCHAR 01F0
ENCODING 496
SWIDTH 460 0
DWIDTH 23 0
BBX 30 43 2 0
BITMAP
0000F03C
0001F8FC
0001FFFC
0000FFF8
00007FE0
00003FC0
00001F00
00000C00
00000000
0000F1C0
0000FFC0
0001FFC0
0001FFC0
0003FFC0
0003FFC0
0007FFC0
0007FF80
0007FF80
000FFF80
000FFF80
000FFF80
000FFF80
000FFF80
001FFF00
001FFF00
001FFF00
001FFF00
001FFF00
000FFE00
000FFE00
000FFE00
000FFC00
3F8FFC00
7F8FF800
7F9FF800
FFDFF000
FFFFF000
7FFFE000
7FFFC000
7FFF8000
3FFF0000
0FFC0000
03F80000
ENDCHAR
STARTCHAR 01F4
ENCODING 500
SWIDTH 500 0
DWIDTH 25 0
BBX 27 42 3 0
BITMAP
00000FE0
00000FE0
00001FC0
00003F00
00007E00
00007C00
0000F800
00001000
00000000
0003FE00
0007FF80
001FFFC0
001FFFC0
007FFFE0
007FFFE0
00FFFFC0
01FF9F80
03FC0000
03F80000
07F00000
07E00000
0FE00000
0FC00000
1FC01FC0
1F83FF80
1F83FF80
3F83FF80
3F83FF00
7F83FF00
7F83FF00
7F83FF00
FF87FF00
FFFFFE00
FFFFFE00
FFFFFE00
FFFFFE00
FFFFF800
FFFFF000
FFFFC000
7FFF0000
3FFC0000
1FE00000
ENDCHAR
STARTCHAR 01F5
ENCODING 501
SWIDTH 500 0
DWIDTH 25 0
BBX 27 42 3 0
BITMAP
00000FE0
00000FE0
00001FC0
00003F00
00007E00
00007C00
0000F800
00001000
00000000
0003FE00
0007FF80
001FFFC0
001FFFC0
007FFFE0
007FFFE0
00FFFFC0
01FF9F80
03FC0000
03F80000
07F00000
07E00000
0FE00000
0FC00000
1FC01FC0
1F83FF80
1F83FF80
3F83FF80
3F83FF00
7F83FF00
7F83FF00
7F83FF00
FF87FF00
FFFFFE00
FFFFFE00
FFFFFE00
FFFFFE00
FFFFF800
FFFFF000
FFFFC000
7FFF0000
3FFC0000
1FE00000
ENDCHAR
STARTCHAR 01F8
ENCODING 504
SWIDTH 560 0
DWIDTH 28 0
BBX 33 43 1 0
BITMAP
0000FE0000
0000FE0000
00007F0000
00003F0000
00003F8000
00001F8000
00000F8000
00000C0000
0000000000
0000000000
001FE03F00
003FF0FF80
007FF1FF80
007FE1FF80
007FE1FF00
00FFE1FF00
00FFE3FF00
01FFE3FE00
01FFE3FE00
01FFE3FE00
03FFE7FC00
03FFE7FC00
03FFE7FC00
07FFE7F800
07FFEFF800
07FFEFF800
0FFFEFF000
0FFFFFF000
0FFFFFF000
0FFFFFF000
1FFBFFE000
1FFBFFE000
1FF9FFE000
1FF1FFE000
3FF1FFC000
3FF1FFC000
3FF1FFC000
7FE1FF8000
7FE1FF8000
7FE1FF8000
FFE1FF8000
FFC1FF0000
F000000000
ENDCHAR
STARTCHAR 01F9
ENCODING 505
SWIDTH 560 0
DWIDTH 28 0
BBX 33 43 1 0
BITMAP
0000FE0000
0000FE0000
00007F0000
00003F0000
00003F8000
00001F8000
00000F8000
00000C0000
0000000000
0000000000
001FE03F00
003FF0FF80
007FF1FF80
007FE1FF80
007FE1FF00
00FFE1FF00
00FFE3FF00
01FFE3FE00
01FFE3FE00
01FFE3FE00
03FFE7FC00
03FFE7FC00
03FFE7FC00
07FFE7F800
07FFEFF800
07FFEFF800
0FFFEFF000
0FFFFFF000
0FFFFFF000
0FFFFFF000
1FFBFFE000
1FFBFFE000
1FF9FFE000
1FF1FFE000
3FF1FFC000
3FF1FFC000
3FF1FFC000
7FE1FF8000
7FE1FF8000
7FE1FF8000
FFE1FF8000
FFC1FF0000
F000000000
ENDCHAR
STARTCHAR 01FE
ENCODING 510
SWIDTH 520 0
DWIDTH 26 0
BBX 34 44 0 -1
BITMAP
00000FE000
00001FC000
00001F8000
00003F0000
00007E0000
0000FC0000
0000F80000
0000100000
0000E03FC0
0001F83FC0
0003FE7F80
0007FFFF00
000FFFFE00
001FFFFE00
001FFFFC00
003FFFF800
007FFFF000
007FFFF000
00FFFFF800
01FFFFF800
01FFFFF800
03FEFFF800
03FDFFFC00
07F9FFFC00
07F3FFFC00
0FE7F7FC00
0FEFE7FC00
0FEFE7F800
0FFFCFF800
0FFF9FF800
0FFF3FF800
0FFFFFF000
0FFFFFF000
0FFFFFE000
0FFFFFE000
0FFFFFC000
07FFFFC000
0FFFFF8000
1FFFFF8000
3FFFFF0000
7FFFFE0000
FEFFF80000
9C3FE00000
0800000000
ENDCHAR
STARTCHAR 01FF
ENCODING 511
SWIDTH 520 0
DWIDTH 26 0
BBX 34 44 0 -1
BITMAP
00000FE000
00001FC000
00001F8000
00003F0000
00007E0000
0000FC0000
0000F80000
0000100000
0000E03FC0
0001F83FC0
0003FE7F80
0007FFFF00
000FFFFE00
001FFFFE00
001FFFFC00
003FFFF800
007FFFF000
007FFFF000
00FFFFF800
01FFFFF800
01FFFFF800
03FEFFF800
03FDFFFC00
07F9FFFC00
07F3FFFC00
0FE7F7FC00
0FEFE7FC00
0FEFE7F800
0FFFCFF800
0FFF9FF800
0FFF3FF800
0FFFFFF000
0FFFFFF000
0FFFFFE000
0FFFFFE000
0FFFFFC000
07FFFFC000
0FFFFF8000
1FFFFF8000
3FFFFF0000
7FFFFE0000
FEFFF80000
9C3FE00000
0800000000
ENDCHAR
STARTCHAR 0218
ENCODING 536
SWIDTH 500 0
DWIDTH 25 0
BBX 29 43 2 -8
BITMAP
00003000
0003FFF8
001FFFF8
003FFFF0
007FFFF0
007FFFE0
00FFFFC0
00FFFFC0
01FFFF80
03FFFF80
03FFFF00
07FFFE00
07FFFE00
07FC1C00
07F80400
07FE0000
07FF8000
03FFE000
03FFF800
01FFFE00
007FFE00
000FFE00
0003FE00
0001FE00
0001FF00
3807FE00
7EFFFE00
FFFFFE00
FFFFFC00
FFFFFC00
FFFFF800
7FFFF000
7FFFC000
1FFF8000
0FFE0000
00000000
07F00000
07F00000
07F00000
0FE00000
0FC00000
1F800000
0F000000
ENDCHAR
STARTCHAR 0219
ENCODING 537
SWIDTH 500 0
DWIDTH 25 0
BBX 29 43 2 -8
BITMAP
00003000
0003FFF8
001FFFF8
003FFFF0
007FFFF0
007FFFE0
00FFFFC0
00FFFFC0
01FFFF80
03FFFF80
03FFFF00
07FFFE00
07FFFE00
07FC1C00
07F80400
07FE0000
07FF8000
03FFE000
03FFF800
01FFFE00
007FFE00
000FFE00
0003FE00
0001FE00
0001FF00
3807FE00
7EFFFE00
FFFFFE00
FFFFFC00
FFFFFC00
FFFFF800
7FFFF000
7FFFC000
1FFF8000
0FFE0000
00000000
07F00000
07F00000
07F00000
0FE00000
0FC00000
1F800000
0F000000
ENDCHAR
STARTCHAR 021A
ENCODING 538
SWIDTH 560 0
DWIDTH 28 0
BBX 28 42 6 -8
BITMAP
000DC380
3FFFFFE0
3FFFFFF0
3FFFFFF0
3FFFFFF0
7FFFFFF0
7FFFFFF0
7FFFFFF0
FFFFFFE0
FFFFFFC0
FFBFF000
F83FE000
003FC000
003F8000
007F8000
007F8000
007F0000
007F0000
00FF0000
00FF0000
00FE0000
00FE0000
01FE0000
01FE0000
01FC0000
01FC0000
03FC0000
03FC0000
03FC0000
03F80000
03F80000
07F80000
07F80000
07F00000
00000000
07E00000
0FE00000
0FE00000
0FC00000
1F800000
1F800000
1E000000
ENDCHAR
STARTCHAR 021B
ENCODING 539
SWIDTH 560 0
DWIDTH 28 0
BBX 28 42 6 -8
BITMAP
000DC380
3FFFFFE0
3FFFFFF0
3FFFFFF0
3FFFFFF0
7FFFFFF0
7FFFFFF0
7FFFFFF0
FFFFFFE0
FFFFFFC0
FFBFF000
F83FE000
003FC000
003F8000
007F8000
007F8000
007F0000
007F0000
00FF0000
00FF0000
00FE0000
00FE0000
01FE0000
01FE0000
01FC0000
01FC0000
03FC0000
03FC0000
03FC0000
03F80000
03F80000
07F80000
07F80000
07F00000
00000000
07E00000
0FE00000
0FE00000
0FC00000
1F800000
1F800000
1E000000
ENDCHAR
STARTCHAR 021E
ENCODING 542
SWIDTH 560 0
DWIDTH 28 0
BBX 33 42 1 1
BITMAP
00001E0F80
00003F1F80
00003FFF00
00001FFE00
00000FFC00
000007F800
000003E000
0000018000
0000000000
0001F00000
003FF83F80
007FF07F80
007FE0FF80
007FF0FF80
007FE0FF00
007FE1FF00
007FE1FF00
00FFC3FE00
00FFC3FE00
00FFC3FE00
01FFC3FE00
01FFC7FC00
01FFFFFC00
03FFFFFC00
03FFFFF800
03FFFFF800
07FFFFF800
07FFFFF000
07FFFFF800
07FFFFF800
0FFFFFF800
0FFEFFF000
0FFC3FF000
1FFC3FF000
1FFC3FE000
1FFC7FE000
1FF87FE000
3FF87FC000
3FF8FFC000
7FF87FC000
7FF0FF8000
FFF1F80000
ENDCHAR
STARTCHAR 021F
ENCODING 543
SWIDTH 560 0
DWIDTH 28 0
BBX 33 42 1 1
BITMAP
00001E0F80
00003F1F80
00003FFF00
00001FFE00
00000FFC00
000007F800
000003E000
0000018000
0000000000
0001F00000
003FF83F80
007FF07F80
007FE0FF80
007FF0FF80
007FE0FF00
007FE1FF00
007FE1FF00
00FFC3FE00
00FFC3FE00
00FFC3FE00
01FFC3FE00
01FFC7FC00
01FFFFFC00
03FFFFFC00
03FFFFF800
03FFFFF800
07FFFFF800
07FFFFF000
07FFFFF800
07FFFFF800
0FFFFFF800
0FFEFFF000
0FFC3FF000
1FFC3FF000
1FFC3FE000
1FFC7FE000
1FF87FE000
3FF87FC000
3FF8FFC000
7FF87FC000
7FF0FF8000
FFF1F80000
ENDCHAR
STARTCHAR 0224
ENCODING 548
SWIDTH 600 0
DWIDTH 30 0
BBX 26 41 6 -7
BITMAP
003FFFC0
03FFFFC0
0FFFFF80
1FFFFF00
3FFFFE00
7FFFFC00
7FFFF800
FFFFF800
FFAFF000
000FE000
001FC000
003FC000
003F8000
007F8000
007F0000
00FF0000
00FE0000
01FE0000
03FC0000
03FC0000
07F80000
07F80000
0FF80000
0FE00000
1FE00000
1FFFFF80
3FFFFF80
3FFFFF80
7FFFFF00
7FFFFF00
FFFFFF00
FFFFFF00
0003FE00
0007FE00
003FFC00
003FFC00
003FF800
007FF000
007FE000
007F8000
00600000
ENDCHAR
STARTCHAR 0225
ENCODING 549
SWIDTH 600 0
DWIDTH 30 0
BBX 26 41 6 -7
BITMAP
003FFFC0
03FFFFC0
0FFFFF80
1FFFFF00
3FFFFE00
7FFFFC00
7FFFF800
FFFFF800
FFAFF000
000FE000
001FC000
003FC000
003F8000
007F8000
007F0000
00FF0000
00FE0000
01FE0000
03FC0000
03FC0000
07F80000
07F80000
0FF80000
0FE00000
1FE00000
1FFFFF80
3FFFFF80
3FFFFF80
7FFFFF00
7FFFFF00
FFFFFF00
FFFFFF00
0003FE00
0007FE00
003FFC00
003FFC00
003FF800
007FF000
007FE000
007F8000
00600000
ENDCHAR
STARTCHAR 0226
ENCODING 550
SWIDTH 620 0
DWIDTH 31 0
BBX 30 41 1 -1
BITMAP
000003C0
000007E0
000007C0
000007C0
00000380
00000000
00000180
00000FC0
00000FC0
00001FC0
00003FC0
00003FC0
00007FC0
00007FC0
0000FFC0
0000FFC0
0001FFC0
0003FFC0
0003FFC0
0007FFC0
0007FFE0
000FFFE0
001FFFE0
001FFFE0
003F7FE0
007E3FE0
007C3FE0
00F83FE0
01F03FE0
01FFFFE0
03FFFFF0
07FFFFF0
07FFFFF0
0FFC7FF0
1FF07FF0
1FE07FF8
3FC07FF8
7FC07FF8
7FC07FF8
FFC07FFC
FE002000
ENDCHAR
STARTCHAR 0227
ENCODING 551
SWIDTH 620 0
DWIDTH 31 0
BBX 30 41 1 -1
BITMAP
000003C0
000007E0
000007C0
000007C0
00000380
00000000
00000180
00000FC0
00000FC0
00001FC0
00003FC0
00003FC0
00007FC0
00007FC0
0000FFC0
0000FFC0
0001FFC0
0003FFC0
0003FFC0
0007FFC0
0007FFE0
000FFFE0
001FFFE0
001FFFE0
003F7FE0
007E3FE0
007C3FE0
00F83FE0
01F03FE0
01FFFFE0
03FFFFF0
07FFFFF0
07FFFFF0
0FFC7FF0
1FF07FF0
1FE07FF8
3FC07FF8
7FC07FF8
7FC07FF8
FFC07FFC
FE002000
ENDCHAR
STARTCHAR 0228
ENCODING 552
SWIDTH 480 0
DWIDTH 24 0
BBX 20 43 6 -8
BITMAP
01FF00
0FFFF0
3FFFF0
3FFFE0
3FFFE0
3FFFC0
3FFFC0
3FFFC0
3FFF80
3FFF80
3FFF00
3FC000
3FC000
3FC000
3FC700
3FFF00
3FFE00
3FFE00
3FFE00
3FFA00
3FC000
7FC000
7FFFE0
7FFFE0
7FFFE0
7FFFE0
7FFFE0
7FFFE0
7FFFE0
7FFFE0
FFFFE0
FFFFC0
FFFC00
FFF000
7BF000
03F000
01F800
00FC00
007E00
387E00
7FFE00
7FFC00
3FF800
ENDCHAR
STARTCHAR 0229
ENCODING 553
SWIDTH 480 0
DWIDTH 24 0
BBX 20 43 6 -8
BITMAP
01FF00
0FFFF0
3FFFF0
3FFFE0
3FFFE0
3FFFC0
3FFFC0
3FFFC0
3FFF80
3FFF80
3FFF00
3FC000
3FC000
3FC000
3FC700
3FFF00
3FFE00
3FFE00
3FFE00
3FFA00
3FC000
7FC000
7FFFE0
7FFFE0
7FFFE0
7FFFE0
7FFFE0
7FFFE0
7FFFE0
7FFFE0
FFFFE0
FFFFC0
FFFC00
FFF000
7BF000
03F000
01F800
00FC00
007E00
387E00
7FFE00
7FFC00
3FF800
ENDCHAR
STARTCHAR 022A
ENCODING 554
SWIDTH 520 0
DWIDTH 26 0
BBX 26 45 4 0
BITMAP
00FFFE00
00FFFE00
00FFFC00
00FFFC00
00000000
00606000
01F0F000
01F1F800
01F1F000
00E1E000
000E0000
001F8000
003FE000
007FF000
00FFF800
01FFFC00
01FFFE00
03FFFF00
07FFFF00
07FFFF00
0FFFFF80
1FFFFF80
1FFFFF80
3FF1FF80
3FE0FFC0
7FE0FFC0
7FC0FFC0
FFC0FFC0
FFC0FFC0
FFC1FF80
FFC1FF80
FFE3FF80
FFFFFF80
FFFFFF00
FFFFFF00
FFFFFE00
FFFFFE00
FFFFFC00
7FFFFC00
7FFFF800
7FFFF800
3FFFF000
1FFFE000
0FFF8000
03FE0000
ENDCHAR
STARTCHAR 022B
ENCODING 555
SWIDTH 520 0
DWIDTH 26 0
BBX 26 45 4 0
BITMAP
00FFFE00
00FFFE00
00FFFC00
00FFFC00
00000000
00606000
01F0F000
01F1F800
01F1F000
00E1E000
000E0000
001F8000
003FE000
007FF000
00FFF800
01FFFC00
01FFFE00
03FFFF00
07FFFF00
07FFFF00
0FFFFF80
1FFFFF80
1FFFFF80
3FF1FF80
3FE0FFC0
7FE0FFC0
7FC0FFC0
FFC0FFC0
FFC0FFC0
FFC1FF80
FFC1FF80
FFE3FF80
FFFFFF80
FFFFFF00
FFFFFF00
FFFFFE00
FFFFFE00
FFFFFC00
7FFFFC00
7FFFF800
7FFFF800
3FFFF000
1FFFE000
0FFF8000
03FE0000
ENDCHAR
STARTCHAR 022C
ENCODING 556
SWIDTH 520 0
DWIDTH 26 0
BBX 26 45 4 0
BITMAP
00FFFE00
00FFFC00
01FFFC00
01FE0000
00000000
00FCF800
01FFF800
01FFF800
03EFE000
03C18000
000E0000
001F8000
003FE000
007FF000
00FFF800
01FFFC00
01FFFE00
03FFFF00
07FFFF00
07FFFF00
0FFFFF80
1FFFFF80
1FFFFF80
3FF1FF80
3FE0FFC0
7FE0FFC0
7FC0FFC0
FFC0FFC0
FFC0FFC0
FFC1FF80
FFC1FF80
FFE3FF80
FFFFFF80
FFFFFF00
FFFFFF00
FFFFFE00
FFFFFE00
FFFFFC00
7FFFFC00
7FFFF800
7FFFF800
3FFFF000
1FFFE000
0FFF8000
03FE0000
ENDCHAR
STARTCHAR 022D
ENCODING 557
SWIDTH 520 0
DWIDTH 26 0
BBX 26 45 4 0
BITMAP
00FFFE00
00FFFC00
01FFFC00
01FE0000
00000000
00FCF800
01FFF800
01FFF800
03EFE000
03C18000
000E0000
001F8000
003FE000
007FF000
00FFF800
01FFFC00
01FFFE00
03FFFF00
07FFFF00
07FFFF00
0FFFFF80
1FFFFF80
1FFFFF80
3FF1FF80
3FE0FFC0
7FE0FFC0
7FC0FFC0
FFC0FFC0
FFC0FFC0
FFC1FF80
FFC1FF80
FFE3FF80
FFFFFF80
FFFFFF00
FFFFFF00
FFFFFE00
FFFFFE00
FFFFFC00
7FFFFC00
7FFFF800
7FFFF800
3FFFF000
1FFFE000
0FFF8000
03FE0000
ENDCHAR
STARTCHAR 022E
ENCODING 558
SWIDTH 520 0
DWIDTH 26 0
BBX 26 41 4 0
BITMAP
000F0000
001F0000
001F0000
001F0000
001E0000
00000000
000E0000
001F8000
003FE000
007FF000
00FFF800
01FFFC00
01FFFE00
03FFFF00
07FFFF00
07FFFF00
0FFFFF80
1FFFFF80
1FFFFF80
3FF1FF80
3FE0FFC0
7FE0FFC0
7FC0FFC0
FFC0FFC0
FFC0FFC0
FFC1FF80
FFC1FF80
FFE3FF80
FFFFFF80
FFFFFF00
FFFFFF00
FFFFFE00
FFFFFE00
FFFFFC00
7FFFFC00
7FFFF800
7FFFF800
3FFFF000
1FFFE000
0FFF8000
03FE0000
ENDCHAR
STARTCHAR 022F
ENCODING 559
SWIDTH 520 0
DWIDTH 26 0
BBX 26 41 4 0
BITMAP
000F0000
001F0000
001F0000
001F0000
001E0000
00000000
000E0000
001F8000
003FE000
007FF000
00FFF800
01FFFC00
01FFFE00
03FFFF00
07FFFF00
07FFFF00
0FFFFF80
1FFFFF80
1FFFFF80
3FF1FF80
3FE0FFC0
7FE0FFC0
7FC0FFC0
FFC0FFC0
FFC0FFC0
FFC1FF80
FFC1FF80
FFE3FF80
FFFFFF80
FFFFFF00
FFFFFF00
FFFFFE00
FFFFFE00
FFFFFC00
7FFFFC00
7FFFF800
7FFFF800
3FFFF000
1FFFE000
0FFF8000
03FE0000
ENDCHAR
STARTCHAR 0230
ENCODING 560
SWIDTH 520 0
DWIDTH 26 0
BBX 26 45 4 0
BITMAP
00FFFE00
00FFFC00
01FFFC00
01FE0000
00020000
000F8000
001F8000
001F0000
000F0000
00000000
000E0000
001F8000
003FE000
007FF000
00FFF800
01FFFC00
01FFFE00
03FFFF00
07FFFF00
07FFFF00
0FFFFF80
1FFFFF80
1FFFFF80
3FF1FF80
3FE0FFC0
7FE0FFC0
7FC0FFC0
FFC0FFC0
FFC0FFC0
FFC1FF80
FFC1FF80
FFE3FF80
FFFFFF80
FFFFFF00
FFFFFF00
FFFFFE00
FFFFFE00
FFFFFC00
7FFFFC00
7FFFF800
7FFFF800
3FFFF000
1FFFE000
0FFF8000
03FE0000
ENDCHAR
STARTCHAR 0231
ENCODING 561
SWIDTH 520 0
DWIDTH 26 0
BBX 26 45 4 0
BITMAP
00FFFE00
00FFFC00
01FFFC00
01FE0000
00020000
000F8000
001F8000
001F0000
000F0000
00000000
000E0000
001F8000
003FE000
007FF000
00FFF800
01FFFC00
01FFFE00
03FFFF00
07FFFF00
07FFFF00
0FFFFF80
1FFFFF80
1FFFFF80
3FF1FF80
3FE0FFC0
7FE0FFC0
7FC0FFC0
FFC0FFC0
FFC0FFC0
FFC1FF80
FFC1FF80
FFE3FF80
FFFFFF80
FFFFFF00
FFFFFF00
FFFFFE00
FFFFFE00
FFFFFC00
7FFFFC00
7FFFF800
7FFFF800
3FFFF000
1FFFE000
0FFF8000
03FE0000
ENDCHAR
STARTCHAR 0232
ENCODING 562
SWIDTH 600 0
DWIDTH 30 0
BBX 30 40 7 0
BITMAP
003FFF00
003FFF00
007FFF00
007FFF00
00000000
00000000
000003FC
038007F8
3F8007F0
FFC00FF0
FFC01FE0
FFC01FE0
7FC03FC0
7FE07F80
7FE0FF80
3FE0FF00
3FE1FE00
3FF3FC00
1FF7FC00
1FF7F800
1FFFF000
1FFFF000
0FFFE000
0FFFC000
0FFFC000
07FF8000
07FF0000
07FF0000
03FE0000
03FC0000
03FC0000
03FC0000
03FC0000
03FC0000
03FC0000
07FC0000
07FC0000
07FC0000
07F80000
07E00000
ENDCHAR
STARTCHAR 0233
ENCODING 563
SWIDTH 600 0
DWIDTH 30 0
BBX 30 40 7 0
BITMAP
003FFF00
003FFF00
007FFF00
007FFF00
00000000
00000000
000003FC
038007F8
3F8007F0
FFC00FF0
FFC01FE0
FFC01FE0
7FC03FC0
7FE07F80
7FE0FF80
3FE0FF00
3FE1FE00
3FF3FC00
1FF7FC00
1FF7F800
1FFFF000
1FFFF000
0FFFE000
0FFFC000
0FFFC000
07FF8000
07FF0000
07FF0000
03FE0000
03FC0000
03FC0000
03FC0000
03FC0000
03FC0000
03FC0000
07FC0000
07FC0000
07FC0000
07F80000
07E00000
ENDCHAR
STARTCHAR 0241
ENCODING 577
SWIDTH 460 0
DWIDTH 23 0
BBX 21 35 7 0
BITMAP
03FF00
0FFFF0
1FFFF8
3FFFF8
7FFFF8
7FFFF8
FFFFF8
FF9FF8
FC0FF8
7007F8
000FF8
000FF0
000FF0
000FF0
001FE0
003FE0
007FE0
01FFC0
07FF80
0FFE00
1FFC00
3FF000
3FE000
3FC000
7F8000
7F8000
7F8000
7F0000
7F0000
FF0000
FF0000
FF0000
FE0000
FE0000
FE0000
ENDCHAR
STARTCHAR 0242
ENCODING 578
SWIDTH 460 0
DWIDTH 23 0
BBX 21 35 7 0
BITMAP
03FF00
0FFFF0
1FFFF8
3FFFF8
7FFFF8
7FFFF8
FFFFF8
FF9FF8
FC0FF8
7007F8
000FF8
000FF0
000FF0
000FF0
001FE0
003FE0
007FE0
01FFC0
07FF80
0FFE00
1FFC00
3FF000
3FE000
3FC000
7F8000
7F8000
7F8000
7F0000
7F0000
FF0000
FF0000
FF0000
FE0000
FE0000
FE0000
ENDCHAR
STARTCHAR 0243
ENCODING 579
SWIDTH 520 0
DWIDTH 26 0
BBX 25 34 3 0
BITMAP
00FFE000
07FFF800
07FFFC00
0FFFFE00
0FFFFE00
0FFFFE00
0FFFFF00
0FFBFF00
0FF0FF00
0FF07E00
0FF07E00
0FF07C00
0FF0FC00
0FF9F800
0FFFF000
0FFFE000
1FFFF000
1FFFFC00
1FFFFE00
1FFFFF00
1FF8FF00
1FFE7F00
7FFEFF80
FFFEFF00
FFFEFF00
FFFFFF00
FFF3FE00
FFFFFE00
3FFFFC00
3FFFF000
3FFFF000
3FFFC000
3FFC0000
07000000
ENDCHAR
STARTCHAR 0244
ENCODING 580
SWIDTH 580 0
DWIDTH 29 0
BBX 29 33 5 1
BITMAP
01F803F0
03FC07F8
03FC07F8
03F807F8
07F807F0
07F007F0
0FF00FF0
3FFFFFF8
3FFFFFF8
7FFFFFF8
7FFFFFF0
7FFFFFF0
FFFFFFF0
7FFE3FE0
7FC03FC0
7FC07FC0
FFC07FC0
FFE0FFC0
FFE0FF80
FFFDFF80
FFFFFF00
FFFFFF00
FFFFFE00
FFFFFE00
FFFFFC00
FFFFFC00
FFFFF800
7FFFF000
7FFFE000
7FFFC000
3FFF8000
1FFF0000
03FC0000
ENDCHAR
STARTCHAR 0253
ENCODING 595
SWIDTH 660 0
DWIDTH 33 0
BBX 29 34 6 1
BITMAP
007FFF00
03FFFFC0
07FFFFE0
0FFFFFE0
1FFFFFE0
3FFFFFF0
3FFFFFF0
7FFFDFF0
FFFF87F0
FE7F83F0
FC7F83F0
F87F87E0
F87F87E0
F87F8FC0
F87FFF80
FEFFFF00
FEFFFF80
FEFFFFE0
FEFFFFF0
7EFFFFF0
7CFFC7F8
00FF87F8
00FF87F8
00FF87F8
01FF8FF8
01FF9FF8
01FFFFF0
01FFFFF0
01FFFFE0
01FFFF80
01FFFF00
01FFFE00
01FFE000
00380000
ENDCHAR
STARTCHAR 0254
ENCODING 596
SWIDTH 480 0
DWIDTH 24 0
BBX 25 33 3 0
BITMAP
001F8000
00FFE000
03FFFC00
07FFFE00
0FFFFF00
0FFFFF00
0FFFFF80
0FFFFF80
0FFFFF80
0AFFFF80
0007FF80
0003FF80
0001FF80
0001FF80
0001FF80
0001FF80
0001FF00
0003FF00
2007FF00
7F9FFF00
7FFFFF00
7FFFFE00
7FFFFE00
7FFFFC00
FFFFFC00
FFFFF800
FFFFF000
FFFFF000
FFFFE000
7FFFC000
7FFFC000
3FFF8000
0FFC0000
ENDCHAR
STARTCHAR 0256
ENCODING 598
SWIDTH 480 0
DWIDTH 24 0
BBX 24 34 4 0
BITMAP
01FE00
07FFC0
07FFF0
07FFF8
07FFFC
0FFFFC
0FFFFE
0FFFFE
0FFFFF
0FF8FF
0FF87F
1FFE3F
1FFE3F
FFFE3F
FFFE7F
FFFE7F
FFFEFE
FFF1FE
FFE3FC
5FE7F8
1FFFF8
1FFFF0
1FFFE0
1FFFE0
1FFFC0
1FFF80
1FFF00
1FFE00
1FFC00
1FF800
1FE000
1F8000
1E0000
180000
ENDCHAR
STARTCHAR 0257
ENCODING 599
SWIDTH 620 0
DWIDTH 31 0
BBX 29 34 6 0
BITMAP
003FF800
03FFFE00
07FFFF80
0FFFFFC0
1FFFFFE0
3FFFFFE0
3FFFFFF0
7FFFFFF0
FFFFFFF8
FE7FE7F8
FC7FC1F8
F87F81F8
F8FF81F8
F8FF81F8
F8FF83F8
FEFF83F8
FEFF87F8
FEFF87F0
FEFF8FE0
7EFFBFE0
7CFFFFC0
00FFFF80
00FFFF00
00FFFF00
00FFFE00
00FFFC00
00FFF800
00FFF000
00FFE000
00FFC000
00FF0000
00FC0000
00F00000
00C00000
ENDCHAR
STARTCHAR 0259
ENCODING 601
SWIDTH 480 0
DWIDTH 24 0
BBX 24 34 3 0
BITMAP
003FF0
00FFF8
03FFFC
07FFFC
0FFFFE
0FFFFE
0FFFFE
07E7FF
0000FF
00007F
00003F
00003F
00007F
1FFFFF
3FFFFF
3FFFFF
3FFFFF
3FFFFF
3FFFFF
3FC1FE
7FC1FE
7FC1FE
7FC3FE
7FFFFE
7FFFFE
7FFFFC
FFFFFC
7FFFFC
7FFFF8
3FFFF0
1FFFE0
0FFFC0
07FF00
000800
ENDCHAR
STARTCHAR 025B
ENCODING 603
SWIDTH 480 0
DWIDTH 24 0
BBX 24 35 4 0
BITMAP
001FC0
007FF8
01FFFC
03FFFE
07FFFF
0FFFFF
0FFFFF
1FFC02
1FF800
3FF000
3FE000
3FE000
3FE000
3FE000
1FF000
1FFFE0
1FFFE0
0FFFE0
0FFFE0
1FFFC0
1FFC00
3FE000
3FC000
7FC000
7F8000
7F8000
FFC07C
FFF7F8
FFFFF8
7FFFF8
7FFFF0
3FFFF0
3FFFE0
1FFF80
03FC00
ENDCHAR
STARTCHAR 0260
ENCODING 608
SWIDTH 500 0
DWIDTH 25 0
BBX 30 42 3 0
BITMAP
0000007C
000007FC
00000FFC
00001FFC
00003FFC
00007FFC
00007FF0
0000FFC0
0000FF80
0003FF80
0007FF80
001FFFC0
001FFFC0
007FFFE0
007FFFE0
00FFFFC0
01FF9F80
03FC0000
03F80000
07F00000
07E00000
0FE00000
0FC00000
1FC01FC0
1F83FF80
1F83FF80
3F83FF80
3F83FF00
7F83FF00
7F83FF00
7F83FF00
FF87FF00
FFFFFE00
FFFFFE00
FFFFFE00
FFFFFE00
FFFFF800
FFFFF000
FFFFC000
7FFF0000
3FFC0000
1FE00000
ENDCHAR
STARTCHAR 0263
ENCODING 611
SWIDTH 600 0
DWIDTH 30 0
BBX 29 40 7 -6
BITMAP
07800000
7F800300
7F8007F0
7F800FF8
7F801FF8
7F801FF0
7F803FF0
7F803FE0
3F807FC0
3F807F80
3FC0FF80
3FC1FF00
3FC1FE00
3FC3FE00
1FC3FC00
1FE7FC00
1FEFF800
0FEFF000
0FFFF000
0FFFE000
07FFC000
07FFC000
03FF8000
03FF0000
07FE0000
0FFF0000
1FFF0000
3FFF0000
3FFF0000
7E3F0000
7C3F0000
7C3E0000
FC3E0000
FC3E0000
FC7C0000
FFFC0000
7FF80000
7FF00000
3FE00000
1F800000
ENDCHAR
STARTCHAR 0268
ENCODING 616
SWIDTH 360 0
DWIDTH 18 0
BBX 22 34 2 0
BITMAP
000FE0
003FFC
003FF8
003FF8
003FF0
007FF0
007FE0
007FE0
00FFE0
00FFC0
00FFC0
01FFC0
01FFC0
01FF80
0BFFF0
1FFFE0
3FFFE0
3FFFE0
3FFFE0
3FFFC0
07FF00
0FFE00
0FFE00
0FFE00
0FFE00
1FFE00
1FFE00
1FFC00
1FF800
3FF800
3FF800
7FF800
7FE000
F80000
ENDCHAR
STARTCHAR 0272
ENCODING 626
SWIDTH 560 0
DWIDTH 28 0
BBX 38 40 -4 -7
BITMAP
0000FF01F8
0001FF87FC
0003FF8FFC
0003FF0FFC
0003FF0FF8
0007FF0FF8
0007FF1FF8
000FFF1FF0
000FFF1FF0
000FFF1FF0
001FFF3FE0
001FFF3FE0
001FFF3FE0
003FFF3FC0
003FFF7FC0
003FFF7FC0
007FFF7F80
007FFFFF80
007FFFFF80
007FFFFF80
00FFDFFF00
00FFDFFF00
00FFCFFF00
00FF8FFF00
01FF8FFE00
01FF8FFE00
01FF0FFE00
03FF0FFC00
03FE0FFC00
03FE0FFC00
07FE0FFC00
07FC0FF800
0FFC000000
7FF8000000
7FF8000000
FFF0000000
FFE0000000
FF80000000
FF00000000
C000000000
ENDCHAR
STARTCHAR 0278
ENCODING 632
SWIDTH 660 0
DWIDTH 33 0
BBX 33 39 4 -2
BITMAP
0000FFC000
0000FFC000
0001FF8000
0001FF8000
001DFF8000
00FFFFFF00
03FFFFFF00
07FFFFFF80
07FFFFFF80
0FFFFFFF80
0FFFFFFF80
1FFFFFFF80
1FFFFFFF80
3FFFFFFF80
3FF7FDFF80
3FE7FDFF80
7FC7F9FF80
7FCFF9FF00
7F8FF9FF00
FF8FF1FF00
FF8FF1FF00
FF9FF3FE00
FF9FE3FE00
FF9FE3FC00
FFFFE7FC00
FFFFCFF800
FFFFFFF800
FFFFFFF000
FFFFFFE000
FFFFFFC000
FFFFFFC000
FFFFFF8000
FFFFFF0000
7FFFFE0000
01FEF80000
01FE000000
03FC000000
03FC000000
03FC000000
ENDCHAR
STARTCHAR 0289
ENCODING 649
SWIDTH 580 0
DWIDTH 29 0
BBX 29 33 5 1
BITMAP
01F803F0
03FC07F8
03FC07F8
03F807F8
07F807F0
07F007F0
0FF00FF0
3FFFFFF8
3FFFFFF8
7FFFFFF8
7FFFFFF0
7FFFFFF0
FFFFFFF0
7FFE3FE0
7FC03FC0
7FC07FC0
FFC07FC0
FFE0FFC0
FFE0FF80
FFFDFF80
FFFFFF00
FFFFFF00
FFFFFE00
FFFFFE00
FFFFFC00
FFFFFC00
FFFFF800
7FFFF000
7FFFE000
7FFFC000
3FFF8000
1FFF0000
03FC0000
ENDCHAR
STARTCHAR 028B
ENCODING 651
SWIDTH 560 0
DWIDTH 28 0
BBX 27 34 5 1
BITMAP
00007800
0F81FC00
1F83FE00
3F83FE00
3F83FF00
3FC1FF80
3F80FF80
3F80FFC0
3F807FC0
7F807FC0
7F803FC0
7F803FE0
7F803FE0
7F803FE0
FF803FC0
FF807FC0
FFC07FC0
FFC07FC0
FFC0FFC0
FFC1FF80
FFC3FF80
FFEFFF80
7FFFFF80
7FFFFF00
7FFFFF00
7FFFFE00
7FFFFE00
7FFFFC00
3FFFF800
1FFFF000
1FFFF000
0FFFE000
07FF8000
03FC0000
ENDCHAR
STARTCHAR 0292
ENCODING 658
SWIDTH 480 0
DWIDTH 24 0
BBX 26 35 2 -1
BITMAP
007FFF80
01FFFFC0
01FFFFC0
01FFFFC0
01FFFF80
00FFFF80
00003F00
00007E00
0001FC00
0003F800
000FF000
001FF000
007FFC00
00FFFE00
03FFFF00
03FFFF00
07FFFF00
00FFFF00
00007F00
00003F00
00003F00
00003F00
00003F00
00003F00
78007F00
7F80FF00
FFFFFE00
FFFFFE00
FFFFFC00
FFFFF800
7FFFF000
3FFFE000
0FFFC000
07FF0000
00780000
ENDCHAR
STARTCHAR 0294
ENCODING 660
SWIDTH 460 0
DWIDTH 23 0
BBX 21 35 7 0
BITMAP
03FF00
0FFFF0
1FFFF8
3FFFF8
7FFFF8
7FFFF8
FFFFF8
FF9FF8
FC0FF8
7007F8
000FF8
000FF0
000FF0
000FF0
001FE0
003FE0
007FE0
01FFC0
07FF80
0FFE00
1FFC00
3FF000
3FE000
3FC000
7F8000
7F8000
7F8000
7F0000
7F0000
FF0000
FF0000
FF0000
FE0000
FE0000
FE0000
ENDCHAR
STARTCHAR 0295
ENCODING 661
SWIDTH 460 0
DWIDTH 23 0
BBX 23 35 5 0
BITMAP
003FF0
03FFFC
0FFFFC
1FFFFE
1FFFFE
3FFFFE
3FFFFE
3FF3FE
7FC0FE
7FC038
7F8000
7F8000
7F8000
7F8000
FF8000
7F8000
7FC000
7FE000
7FF800
1FFC00
0FFE00
07FE00
07FE00
03FE00
03FC00
03FC00
03FC00
03FC00
03F800
03F800
07F800
07F800
07F800
07F000
07F000
ENDCHAR
STARTCHAR 0296
ENCODING 662
SWIDTH 460 0
DWIDTH 23 0
BBX 23 35 2 0
BITMAP
000FE0
001FE0
001FE0
001FE0
001FC0
003FC0
003FC0
003FC0
003FC0
003F80
007F80
007FC0
007FC0
007FE0
007FF0
003FF8
001FFE
000FFE
0003FE
0001FE
0001FE
0001FE
0001FE
0001FE
0801FE
3C03FE
7F07FC
7FDFFC
FFFFFC
7FFFF8
7FFFF8
7FFFF0
7FFFE0
3FFFC0
0FF000
ENDCHAR
STARTCHAR 02B9
ENCODING 697
SWIDTH 200 0
DWIDTH 10 0
BBX 12 18 5 18
BITMAP
03F0
03F0
03F0
07E0
07E0
0FC0
0FC0
1F80
1F80
1F00
3F00
3E00
7C00
7C00
7800
F800
F800
3000
ENDCHAR
STARTCHAR 02BA
ENCODING 698
SWIDTH 380 0
DWIDTH 19 0
BBX 21 18 5 18
BITMAP
03F0F8
03F1F8
03F1F8
07E3F8
07E3F0
0FC3F0
0FC7E0
1F87C0
1F8FC0
1F0F80
3F1F80
3E1F00
7C1F00
7C3E00
783E00
F83C00
F87C00
301800
ENDCHAR
STARTCHAR 02BB
ENCODING 699
SWIDTH 200 0
DWIDTH 10 0
BBX 12 18 5 19
BITMAP
01C0
03E0
03E0
07F0
0FE0
0FE0
1FE0
1FC0
3FC0
3FC0
7F80
7F80
7F80
7F80
7F00
FF00
FF00
0C00
ENDCHAR
STARTCHAR 02BC
ENCODING 700
SWIDTH 200 0
DWIDTH 10 0
BBX 11 18 6 19
BITMAP
0FE0
1FE0
1FE0
1FE0
3FE0
3FC0
3FC0
3FC0
7F80
7F80
7F00
FF00
FE00
FC00
FC00
F800
7000
2000
ENDCHAR
STARTCHAR 02BD
ENCODING 701
SWIDTH 200 0
DWIDTH 10 0
BBX 9 17 7 19
BITMAP
3F80
7F80
7F80
7F80
FF80
FF00
FF00
FF00
FF00
FF00
FF00
FF00
7F00
7F00
7E00
7C00
3800
ENDCHAR
STARTCHAR 02C6
ENCODING 710
SWIDTH 320 0
DWIDTH 16 0
BBX 15 8 9 35
BITMAP
01E0
07F0
1FF8
3FFC
7FFC
FE7E
F87E
0010
ENDCHAR
STARTCHAR 02C7
ENCODING 711
SWIDTH 320 0
DWIDTH 16 0
BBX 15 8 10 35
BITMAP
F03C
F8FE
FDFC
FFF8
7FF0
3FC0
1F80
0400
ENDCHAR
STARTCHAR 02C8
ENCODING 712
SWIDTH 120 0
DWIDTH 6 0
BBX 6 9 9 35
BITMAP
18
7C
78
78
F8
F0
F0
F0
E0
ENDCHAR
STARTCHAR 02C9
ENCODING 713
SWIDTH 320 0
DWIDTH 16 0
BBX 15 5 9 35
BITMAP
FFFE
FFFE
FFFE
FFFC
4000
ENDCHAR
STARTCHAR 02CA
ENCODING 714
SWIDTH 220 0
DWIDTH 11 0
BBX 11 8 9 35
BITMAP
0FE0
1FC0
1F80
3F00
7E00
FC00
F800
3000
ENDCHAR
STARTCHAR 02CB
ENCODING 715
SWIDTH 220 0
DWIDTH 11 0
BBX 9 8 10 35
BITMAP
FE00
FE00
7E00
7F00
3F00
1F00
1F80
0800
ENDCHAR
STARTCHAR 02CC
ENCODING 716
SWIDTH 120 0
DWIDTH 6 0
BBX 6 8 -1 -8
BITMAP
3C
3C
78
78
78
78
F8
F8
ENDCHAR
STARTCHAR 02CD
ENCODING 717
SWIDTH 320 0
DWIDTH 16 0
BBX 15 4 0 -6
BITMAP
7FFE
FFFE
FFFE
FFFC
ENDCHAR
STARTCHAR 02D0
ENCODING 720
SWIDTH 200 0
DWIDTH 10 0
BBX 14 26 1 -1
BITMAP
03F8
07FC
07FC
0FF8
07F8
07F0
07E0
03E0
03C0
0380
0000
0000
0000
0000
0000
0200
0600
0F00
1F00
3F00
3F80
7F80
7F80
FF80
FF80
0E00
ENDCHAR
STARTCHAR 02D1
ENCODING 721
SWIDTH 200 0
DWIDTH 10 0
BBX 10 10 5 15
BITMAP
3F80
7FC0
7FC0
FF80
7F80
7F00
7E00
3E00
3C00
3800
ENDCHAR
STARTCHAR 02D8
ENCODING 728
SWIDTH 320 0
DWIDTH 16 0
BBX 15 8 10 35
BITMAP
F03E
F07C
F8FC
FFF8
FFF0
7FE0
3FC0
0E00
ENDCHAR
STARTCHAR 02D9
ENCODING 729
SWIDTH 120 0
DWIDTH 6 0
BBX 5 5 9 35
BITMAP
78
F8
F8
F8
70
ENDCHAR
STARTCHAR 02DA
ENCODING 730
SWIDTH 320 0
DWIDTH 16 0
BBX 15 13 8 30
BITMAP
03F8
0FFC
1FFE
3F3E
7C3E
7C3E
783E
F83E
FC7C
7FFC
3FF0
3FE0
0F80
ENDCHAR
STARTCHAR 02DB
ENCODING 731
SWIDTH 280 0
DWIDTH 14 0
BBX 13 11 0 -7
BITMAP
0200
0700
1E00
3C00
3C00
7800
F800
FDF8
FFF8
FFF8
7FF0
ENDCHAR
STARTCHAR 02DC
ENCODING 732
SWIDTH 320 0
DWIDTH 16 0
BBX 16 8 8 35
BITMAP
061F
1F1F
3FFF
7FFF
7FFE
7FFC
79F8
F020
ENDCHAR
STARTCHAR 02DD
ENCODING 733
SWIDTH 400 0
DWIDTH 20 0
BBX 20 8 9 35
BITMAP
0FE7F0
1FCFE0
1F9FC0
3F1F80
7E3F00
FC7E00
F87C00
300800
ENDCHAR
STARTCHAR 0300
ENCODING 768
SWIDTH 0 0
DWIDTH 0 0
BBX 9 8 -12 35
BITMAP
FE00
7F00
7F00
3F00
1F80
1F80
0F80
0400
ENDCHAR
STARTCHAR 0301
ENCODING 769
SWIDTH 0 0
DWIDTH 0 0
BBX 11 8 -6 35
BITMAP
0FE0
1FC0
3F80
3F00
7E00
FC00
F800
3000
ENDCHAR
STARTCHAR 0302
ENCODING 770
SWIDTH 0 0
DWIDTH 0 0
BBX 15 8 -13 35
BITMAP
01C0
07E0
1FF0
3FF8
7FFC
FEFE
F87C
0030
ENDCHAR
STARTCHAR 0303
ENCODING 771
SWIDTH 0 0
DWIDTH 0 0
BBX 16 8 -14 35
BITMAP
060F
1F9F
3FFF
7FFF
7FFE
7FFC
79F8
F060
ENDCHAR
STARTCHAR 0304
ENCODING 772
SWIDTH 0 0
DWIDTH 0 0
BBX 15 4 -13 35
BITMAP
FFFE
FFFE
FFFC
FFFC
ENDCHAR
STARTCHAR 0305
ENCODING 773
SWIDTH 0 0
DWIDTH 0 0
BBX 19 7 -15 35
BITMAP
001800
7FFFE0
7FFFC0
7FFFC0
FFFFC0
FFFFC0
7FFFC0
ENDCHAR
STARTCHAR 0306
ENCODING 774
SWIDTH 0 0
DWIDTH 0 0
BBX 15 8 -12 35
BITMAP
F01E
F83C
FC7C
FFF8
FFF8
7FF0
3FC0
0700
ENDCHAR
STARTCHAR 0307
ENCODING 775
SWIDTH 0 0
DWIDTH 0 0
BBX 6 5 -9 35
BITMAP
3C
7C
FC
F8
78
ENDCHAR
STARTCHAR 0308
ENCODING 776
SWIDTH 0 0
DWIDTH 0 0
BBX 14 6 -13 35
BITMAP
1800
7C7C
FC7C
FC7C
787C
7070
ENDCHAR
STARTCHAR 030A
ENCODING 778
SWIDTH 0 0
DWIDTH 0 0
BBX 15 12 -13 34
BITMAP
00C0
07F8
1FFC
3FFE
7C3E
F83E
F83E
F83E
F87C
FFF8
7FF0
1FC0
ENDCHAR
STARTCHAR 030B
ENCODING 779
SWIDTH 0 0
DWIDTH 0 0
BBX 20 8 -12 35
BITMAP
07E7F0
0FE7F0
1FCFC0
3F9F80
7E3F00
7C3E00
F87C00
100800
ENDCHAR
STARTCHAR 030C
ENCODING 780
SWIDTH 0 0
DWIDTH 0 0
BBX 15 8 -12 35
BITMAP
F03C
F8FE
FFFC
FFF8
7FF0
3FC0
1F00
0C00
ENDCHAR
STARTCHAR 030D
ENCODING 781
SWIDTH 0 0
DWIDTH 0 0
BBX 6 9 -8 35
BITMAP
18
7C
78
78
F8
F0
F0
F0
E0
ENDCHAR
STARTCHAR 0311
ENCODING 785
SWIDTH 0 0
DWIDTH 0 0
BBX 15 8 -14 35
BITMAP
03F0
0FF8
1FFC
3FFE
3FFE
7C3E
781E
F01E
ENDCHAR
STARTCHAR 0323
ENCODING 803
SWIDTH 0 0
DWIDTH 0 0
BBX 6 6 -18 -8
BITMAP
10
78
7C
FC
F8
70
ENDCHAR
STARTCHAR 0326
ENCODING 806
SWIDTH 0 0
DWIDTH 0 0
BBX 8 7 -20 -8
BITMAP
3F
7F
7F
7E
FE
FC
F8
ENDCHAR
STARTCHAR 0327
ENCODING 807
SWIDTH 0 0
DWIDTH 0 0
BBX 14 12 -23 -8
BITMAP
03E0
03E0
03E0
07E0
07E0
03F0
01FC
00FC
70FC
FFFC
FFF8
3FF0
ENDCHAR
STARTCHAR 0328
ENCODING 808
SWIDTH 0 0
DWIDTH 0 0
BBX 13 12 -21 -8
BITMAP
0100
0300
0700
0F00
1E00
3C00
7C00
7C08
FFF8
FFF8
7FF8
3FF8
ENDCHAR
STARTCHAR 0329
ENCODING 809
SWIDTH 0 0
DWIDTH 0 0
BBX 6 8 -18 -8
BITMAP
3C
3C
7C
78
78
78
78
F8
ENDCHAR
STARTCHAR 0331
ENCODING 817
SWIDTH 0 0
DWIDTH 0 0
BBX 15 4 -22 -6
BITMAP
7FFE
FFFE
FFFE
FFFC
ENDCHAR
STARTCHAR 0342
ENCODING 834
SWIDTH 0 0
DWIDTH 0 0
BBX 16 8 -14 35
BITMAP
060F
1F9F
3FFF
7FFF
7FFE
7FFC
79F8
F060
ENDCHAR
STARTCHAR 0344
ENCODING 836
SWIDTH 0 0
DWIDTH 0 0
BBX 14 10 -13 35
BITMAP
0078
00F8
01F0
01E0
03C0
39BC
7C7C
FC7C
F878
7030
ENDCHAR
STARTCHAR 0345
ENCODING 837
SWIDTH 0 0
DWIDTH 0 0
BBX 9 8 -17 -8
BITMAP
7800
7800
F000
F000
F800
FF80
FF80
7F00
ENDCHAR
STARTCHAR 0374
ENCODING 884
SWIDTH 200 0
DWIDTH 10 0
BBX 10 8 7 28
BITMAP
0FC0
0FC0
1F80
3F00
7E00
7C00
F800
F000
ENDCHAR
STARTCHAR 0375
ENCODING 885
SWIDTH 200 0
DWIDTH 10 0
BBX 10 8 -1 -8
BITMAP
03C0
03C0
07C0
0F80
1F00
3F00
7E00
FC00
ENDCHAR
STARTCHAR 037A
ENCODING 890
SWIDTH 200 0
DWIDTH 10 0
BBX 9 8 0 -8
BITMAP
7800
7800
F000
F000
F800
FF80
FF00
7F00
ENDCHAR
STARTCHAR 037B
ENCODING 891
SWIDTH 480 0
DWIDTH 24 0
BBX 25 33 3 0
BITMAP
001F8000
00FFE000
03FFFC00
07FFFE00
0FFFFF00
0FFFFF00
0FFFFF80
0FFFFF80
0FFFFF80
0AFFFF80
0007FF80
0003FF80
0001FF80
0001FF80
0001FF80
0001FF80
0001FF00
0003FF00
2007FF00
7F9FFF00
7FFFFF00
7FFFFE00
7FFFFE00
7FFFFC00
FFFFFC00
FFFFF800
FFFFF000
FFFFF000
FFFFE000
7FFFC000
7FFFC000
3FFF8000
0FFC0000
ENDCHAR
STARTCHAR 037E
ENCODING 894
SWIDTH 200 0
DWIDTH 10 0
BBX 14 33 0 -8
BITMAP
0020
00FC
01FC
03FC
07FC
07FC
07FC
07F8
03F0
00C0
0000
0000
0000
0000
0000
0000
07C0
0FE0
1FE0
1FE0
1FE0
3FE0
3FC0
3FC0
3F80
7F80
7F00
7F00
FE00
FE00
FC00
7800
7000
ENDCHAR
STARTCHAR 037F
ENCODING 895
SWIDTH 460 0
DWIDTH 23 0
BBX 26 34 2 0
BITMAP
0000F1C0
0000FFC0
0001FFC0
0001FFC0
0003FFC0
0003FFC0
0007FFC0
0007FF80
0007FF80
000FFF80
000FFF80
000FFF80
000FFF80
000FFF80
001FFF00
001FFF00
001FFF00
001FFF00
001FFF00
000FFE00
000FFE00
000FFE00
000FFC00
3F8FFC00
7F8FF800
7F9FF800
FFDFF000
FFFFF000
7FFFE000
7FFFC000
7FFF8000
3FFF0000
0FFC0000
03F80000
ENDCHAR
STARTCHAR 0384
ENCODING 900
SWIDTH 160 0
DWIDTH 8 0
BBX 8 8 7 28
BITMAP
0F
1F
1E
3E
7C
78
F0
60
ENDCHAR
STARTCHAR 0385
ENCODING 901
SWIDTH 300 0
DWIDTH 15 0
BBX 14 10 9 35
BITMAP
00F8
00F0
01E0
03C0
0380
3378
F87C
F8FC
F8F8
7070
ENDCHAR
STARTCHAR 0386
ENCODING 902
SWIDTH 620 0
DWIDTH 31 0
BBX 30 37 1 -1
BITMAP
0001E000
0003E000
0007C180
00078FC0
000F0FC0
001F1FC0
001E3FC0
000C3FC0
00007FC0
00007FC0
0000FFC0
0000FFC0
0001FFC0
0003FFC0
0003FFC0
0007FFC0
0007FFE0
000FFFE0
001FFFE0
001FFFE0
003F7FE0
007E3FE0
007C3FE0
00F83FE0
01F03FE0
01FFFFE0
03FFFFF0
07FFFFF0
07FFFFF0
0FFC7FF0
1FF07FF0
1FE07FF8
3FC07FF8
7FC07FF8
7FC07FF8
FFC07FFC
FE002000
ENDCHAR
STARTCHAR 0387
ENCODING 903
SWIDTH 200 0
DWIDTH 10 0
BBX 9 10 5 15
BITMAP
0400
1F80
3F80
7F80
FF80
FF80
FF80
FF00
7E00
1800
ENDCHAR
STARTCHAR 0388
ENCODING 904
SWIDTH 580 0
DWIDTH 29 0
BBX 25 36 6 0
BITMAP
0F800000
1F8FF800
1F7FFF80
3FFFFF00
7FFFFF00
7BFFFF00
F1FFFE00
71FFFE00
01FFFC00
01FFFC00
01FFFC00
01FFF800
01FE0000
03FE0000
03FE0000
03FE3800
03FFF000
03FFF000
03FFF000
03FFF000
03FFF000
03FC0000
03FC0200
03FFFE00
03FFFE00
03FFFF00
03FFFF00
03FFFF00
07FFFF00
07FFFF00
07FFFF00
07FFFF00
07FFFC00
07FFC000
07FC0000
07800000
ENDCHAR
STARTCHAR 0389
ENCODING 905
SWIDTH 600 0
DWIDTH 30 0
BBX 32 35 4 1
BITMAP
03E00000
07E00000
07C3F000
0FBFF07F
1F7FE0FF
1EFFC0FF
3C7FE1FF
1C7FE1FF
00FFC1FE
00FFC3FE
00FFC3FE
01FF87FC
01FF87FC
01FF87FC
03FF8FFC
03FFFFF8
03FFFFF8
07FFFFF8
07FFFFF0
07FFFFF0
07FFFFF0
0FFFFFF0
0FFFFFF0
0FFFFFF0
1FFDFFF0
1FFC7FE0
1FF87FE0
1FF87FE0
3FF87FC0
3FF8FFC0
3FF0FFC0
7FF0FF80
7FF0FF80
FFF0FF00
FFE1F000
ENDCHAR
STARTCHAR 038A
ENCODING 906
SWIDTH 380 0
DWIDTH 19 0
BBX 22 36 3 0
BITMAP
01F000
03F000
03E7E0
07DFFC
0F9FFC
0F1FF8
1E3FF8
0E3FF0
003FF0
007FF0
007FE0
00FFE0
00FFE0
00FFC0
00FFC0
01FFC0
01FFC0
01FF80
03FF80
03FF80
03FF80
03FF00
07FF00
07FF00
07FF00
0FFF00
0FFE00
0FFE00
0FFE00
1FFE00
1FFC00
1FF800
3FF800
3FF800
7FE000
FC0000
ENDCHAR
STARTCHAR 038C
ENCODING 908
SWIDTH 540 0
DWIDTH 27 0
BBX 25 36 5 0
BITMAP
07C00000
0FCE0000
0FBF8000
1F7FE000
3E7FF000
3CFFF800
79FFFC00
3BFFFE00
03FFFE00
07FFFF00
0FFFFF00
0FFFFF80
1FFFFF80
1FFFFF80
3FF1FF80
7FE0FF80
7FC0FF80
7FC0FF80
FFC0FF80
FF80FF80
FF81FF80
FFC1FF80
FFE3FF80
FFFFFF00
FFFFFF00
FFFFFE00
FFFFFE00
FFFFFE00
FFFFFC00
FFFFFC00
7FFFF800
7FFFF800
3FFFF000
1FFFC000
0FFF8000
03FE0000
ENDCHAR
STARTCHAR 038E
ENCODING 910
SWIDTH 680 0
DWIDTH 34 0
BBX 35 36 6 0
BITMAP
0F80000000
1F80000000
1F00001FE0
3E1C003FC0
7DFC003F80
7FFC007F80
F7FE00FF00
77FE00FF00
03FE01FE00
03FF03FC00
03FF07F800
01FF07F800
01FF0FF000
01FF9FE000
01FFBFE000
00FFBFC000
00FFFF8000
00FFFF8000
007FFF0000
007FFE0000
007FFE0000
003FFC0000
003FF80000
003FF80000
003FF00000
001FE00000
001FE00000
001FE00000
001FE00000
001FE00000
001FE00000
003FE00000
003FE00000
003FC00000
003FC00000
003F000000
ENDCHAR
STARTCHAR 038F
ENCODING 911
SWIDTH 640 0
DWIDTH 32 0
BBX 32 36 3 0
BITMAP
01F00000
03F1FF80
03EFFFE0
07DFFFF8
0FBFFFFC
0F7FFFFC
1EFFFFFE
0EFFFFFE
01FFFFFF
03FFFFFF
03FFFFFF
07FF03FF
07FE01FF
07FC00FF
0FF800FF
0FF000FF
0FF000FF
0FF000FF
0FE000FF
0FE000FF
0FE000FE
0FE000FE
0FE001FC
0FE001FC
0FF003F8
07F007F0
07F00FF0
07F81FE0
7FF83FF8
7FF83FFC
7FF83FFC
FFF87FF8
FFF87FF8
FFF87FF8
FFF07FF8
FFF07FF8
ENDCHAR
STARTCHAR 0390
ENCODING 912
SWIDTH 320 0
DWIDTH 16 0
BBX 25 45 1 0
BITMAP
00001F00
00001E00
00003C00
00007800
00007000
00066F00
001F0F80
001F1F80
001F1F00
001E0E00
00000000
000FE000
001FFC00
003FF800
003FF800
003FF000
003FF000
007FF000
007FE000
00FFE000
00FFE000
00FFC000
00FFC000
01FFC000
01FFC000
01FF8000
03FF8000
03FF8000
03FF8000
07FF0000
07FF0000
07FF0000
07FF0000
0FFE0000
0FFE0000
0FFE0000
0FFE0000
1FFE0000
1FFE0000
1FFC0000
3FF80000
3FF80000
3FF80000
7FE00000
FC000000
ENDCHAR
STARTCHAR 0391
ENCODING 913
SWIDTH 620 0
DWIDTH 31 0
BBX 30 35 1 -1
BITMAP
00000180
00000FC0
00000FC0
00001FC0
00003FC0
00003FC0
00007FC0
00007FC0
0000FFC0
0000FFC0
0001FFC0
0003FFC0
0003FFC0
0007FFC0
0007FFE0
000FFFE0
001FFFE0
001FFFE0
003F7FE0
007E3FE0
007C3FE0
00F83FE0
01F03FE0
01FFFFE0
03FFFFF0
07FFFFF0
07FFFFF0
0FFC7FF0
1FF07FF0
1FE07FF8
3FC07FF8
7FC07FF8
7FC07FF8
FFC07FFC
FE002000
ENDCHAR
STARTCHAR 0392
ENCODING 914
SWIDTH 520 0
DWIDTH 26 0
BBX 23 34 5 0
BITMAP
03FF80
1FFFE0
1FFFF0
3FFFF8
3FFFF8
3FFFF8
3FFFFC
3FEFFC
3FC3FC
3FC1F8
3FC1F8
3FC1F0
3FC3F0
3FE7E0
3FFFC0
3FFF80
3FFFC0
7FFFF0
7FFFF8
7FFFFC
7FE3FC
7FC1FC
7FC3FE
7FC3FC
7FC7FC
7FCFFC
FFDFF8
FFFFF8
FFFFF0
FFFFC0
FFFFC0
FFFF00
FFF000
1C0000
ENDCHAR
STARTCHAR 0393
ENCODING 915
SWIDTH 500 0
DWIDTH 25 0
BBX 29 35 2 0
BITMAP
0000FFF0
007FFFF8
03FFFFF8
07FFFFF8
07FFFFF8
07FFFFF0
07FFFFF0
07FFFC70
0FFF0000
0FFC0000
0FF80000
0FF80000
0FF80000
0FF00000
1FF00000
1FF00000
1FF00000
1FE00000
3FE00000
3FE00000
3FE00000
3FC00000
3FC00000
7FC00000
7FC00000
7FC00000
7F800000
7F800000
FF800000
FF800000
FF800000
FF800000
FF800000
FFC00000
FC000000
ENDCHAR
STARTCHAR 0394
ENCODING 916
SWIDTH 580 0
DWIDTH 29 0
BBX 29 33 1 0
BITMAP
00001FE0
00003FE0
00007FE0
0000FFE0
0000FFE0
0001FFE0
0003FFE0
0007FFE0
0007FFE0
000FFFE0
001FFFE0
001FFFE0
003FFFE0
007FFFE0
007FDFE0
00FF9FF0
01FF9FF0
01FF1FF0
03FF1FF0
03FE1FF0
07FE1FF0
0FFC1FF0
0FFC3FF0
1FF83FF0
1FF03FF0
3FF03FF8
3FFFFFF8
7FFFFFF8
7FFFFFF0
7FFFFFF0
FFFFFFF0
FFFFFFF0
7FFFFFF0
ENDCHAR
STARTCHAR 0395
ENCODING 917
SWIDTH 480 0
DWIDTH 24 0
BBX 20 35 6 0
BITMAP
01FF00
0FFFF0
3FFFF0
3FFFE0
3FFFE0
3FFFC0
3FFFC0
3FFFC0
3FFF80
3FFF80
3FFF00
3FC000
3FC000
3FC000
3FC700
3FFF00
3FFE00
3FFE00
3FFE00
3FFA00
3FC000
7FC000
7FFFE0
7FFFE0
7FFFE0
7FFFE0
7FFFE0
7FFFE0
7FFFE0
7FFFE0
FFFFE0
FFFFC0
FFFC00
FFC000
780000
ENDCHAR
STARTCHAR 0396
ENCODING 918
SWIDTH 600 0
DWIDTH 30 0
BBX 26 34 6 0
BITMAP
003FFFC0
03FFFFC0
0FFFFF80
1FFFFF00
3FFFFE00
7FFFFC00
7FFFF800
FFFFF800
FFAFF000
000FE000
001FE000
003FC000
003F8000
007F8000
007F0000
00FF0000
00FE0000
01FE0000
03FC0000
03FC0000
07F80000
07F80000
0FF80000
0FE00000
1FE06180
1FFFFF80
3FFFFF80
7FFFFF80
7FFFFF00
7FFFFE00
FFFFFC00
07FFF800
01FFE000
000E0000
ENDCHAR
STARTCHAR 0397
ENCODING 919
SWIDTH 560 0
DWIDTH 28 0
BBX 33 33 1 1
BITMAP
0001F00000
003FF83F80
007FF07F80
007FE0FF80
007FF0FF80
007FE0FF00
007FE1FF00
007FE1FF00
00FFC3FE00
00FFC3FE00
00FFC3FE00
01FFC3FE00
01FFC7FC00
01FFFFFC00
03FFFFFC00
03FFFFF800
03FFFFF800
07FFFFF800
07FFFFF000
07FFFFF800
07FFFFF800
0FFFFFF800
0FFEFFF000
0FFC3FF000
1FFC3FF000
1FFC3FE000
1FFC7FE000
1FF87FE000
3FF87FC000
3FF8FFC000
7FF87FC000
7FF0FF8000
FFF1F80000
ENDCHAR
STARTCHAR 0398
ENCODING 920
SWIDTH 520 0
DWIDTH 26 0
BBX 26 35 4 0
BITMAP
0007C000
003FF800
007FFE00
01FFFF00
03FFFF80
07FFFF80
07FFFF80
0FFFFFC0
0FFFFFC0
1FFFFFC0
1FFFFFC0
3FFFFFC0
3FFFFFC0
3FF0FFC0
7FE07FC0
7FC0FFC0
7FFFFFC0
7FFFFFC0
FFFFFFC0
FFFFFF80
FFF0FF80
FF80FF80
FFC1FF00
7FFFFF00
7FFFFE00
7FFFFE00
7FFFFC00
7FFFFC00
3FFFF800
3FFFF800
3FFFF000
1FFFE000
0FFFE000
03FFC000
01FF0000
ENDCHAR
STARTCHAR 0399
ENCODING 921
SWIDTH 320 0
DWIDTH 16 0
BBX 22 34 1 0
BITMAP
000FE0
001FFC
003FF8
003FF8
003FF0
003FF0
007FF0
007FE0
00FFE0
00FFE0
00FFC0
00FFC0
01FFC0
01FFC0
01FF80
03FF80
03FF80
03FF80
07FF00
07FF00
07FF00
07FF00
0FFE00
0FFE00
0FFE00
0FFE00
1FFE00
1FFE00
1FFC00
3FF800
3FF800
3FF800
7FE000
FC0000
ENDCHAR
STARTCHAR 039A
ENCODING 922
SWIDTH 540 0
DWIDTH 27 0
BBX 32 35 1 0
BITMAP
00000010
01FFF038
01FFF078
01FFF0FC
01FFF1FF
01FFE3FE
01FFE7FE
03FFE7FC
03FFEFF8
03FFFFF0
03FFDFE0
07FFFFC0
07FFFF80
07FFFF00
07FFFE00
0FFFFE00
0FFFFC00
0FFFF800
1FFFF000
1FFFF000
1FFFF800
1FFFFC00
3FFFFC00
3FFFFE00
3FFFFF00
3FFFFF00
3FFEFF80
7FFCFF80
7FFC7FC0
7FFC7FC0
7FFC3FC0
7FFC3FC0
7FFC3FC0
FFF81C00
00E01800
ENDCHAR
STARTCHAR 039B
ENCODING 923
SWIDTH 580 0
DWIDTH 29 0
BBX 29 32 1 1
BITMAP
0007E000
000FE000
000FF000
000FF000
001FF800
001FF800
003FFC00
003FFC00
003FFC00
007FFE00
007FFE00
00FFFF00
00FFFF00
00FFFF00
01FFFF80
01FFFF80
03FEFFC0
03FEFFC0
07FCFFC0
07FCFFE0
0FFCFFE0
0FF8FFE0
1FF8FFE0
1FF8FFF0
1FF0FFF0
3FF0FFF0
3FF0FFF0
7FE0FFF0
7FE0FFF0
7FE0FFF8
FFE003F8
7F800030
ENDCHAR
STARTCHAR 039C
ENCODING 924
SWIDTH 640 0
DWIDTH 32 0
BBX 33 34 1 0
BITMAP
001C000180
001E000380
001E000780
001E000F80
003F001F80
003F001F80
003F803F80
007F807F80
007FC0FF80
00FFC0FF80
00FFC1FF80
00FFE3FF80
01FFE7FF80
01FFFFFF80
01FFFFFF80
03FFFFFF00
03FFFFFF00
03FFFFFF00
07FFFFFF00
07FF7FFF00
07FE7BFF00
0FFE37FF00
0FFC07FF00
1FF807FF00
1FF807FF00
1FF00FFF00
3FF00FFF00
3FE00FFE00
3FE01FFE00
7FC01FFE00
7FC01FFE00
FF801FFE00
FF801FF800
FF00000000
ENDCHAR
STARTCHAR 039D
ENCODING 925
SWIDTH 560 0
DWIDTH 28 0
BBX 33 33 1 0
BITMAP
001FE03F00
003FF0FF80
007FF1FF80
007FE1FF80
007FE1FF00
00FFE1FF00
00FFE3FF00
01FFE3FE00
01FFE3FE00
01FFE3FE00
03FFE7FC00
03FFE7FC00
03FFE7FC00
07FFE7F800
07FFEFF800
07FFEFF800
0FFFEFF000
0FFFFFF000
0FFFFFF000
0FFFFFF000
1FFBFFE000
1FFBFFE000
1FF9FFE000
1FF1FFE000
3FF1FFC000
3FF1FFC000
3FF1FFC000
7FE1FF8000
7FE1FF8000
7FE1FF8000
FFE1FF8000
FFC1FF0000
F000000000
ENDCHAR
STARTCHAR 039E
ENCODING 926
SWIDTH 480 0
DWIDTH 24 0
BBX 29 34 1 0
BITMAP
01FFE000
01FFFFF8
01FFFFF8
03FFFFF8
03FFFFF8
03FFFFF0
03FFFFF0
03FFFFF0
00001FE0
00000000
00000000
00000000
00002000
01FFFF00
01FFFF00
01FFFF00
03FFFE00
03FFFE00
03FFFE00
07FFC000
00000000
00000000
00000000
00000000
00000000
3FFE0000
7FFFFF00
7FFFFF00
7FFFFE00
7FFFFE00
7FFFFE00
FFFFFE00
FFFFFC00
00008000
ENDCHAR
STARTCHAR 039F
ENCODING 927
SWIDTH 520 0
DWIDTH 26 0
BBX 26 35 4 0
BITMAP
000E0000
001F8000
003FE000
007FF000
00FFF800
01FFFC00
01FFFE00
03FFFF00
07FFFF00
07FFFF00
0FFFFF80
1FFFFF80
1FFFFF80
3FF1FF80
3FE0FFC0
7FE0FFC0
7FC0FFC0
FFC0FFC0
FFC0FFC0
FFC1FF80
FFC1FF80
FFE3FF80
FFFFFF80
FFFFFF00
FFFFFF00
FFFFFE00
FFFFFE00
FFFFFC00
7FFFFC00
7FFFF800
7FFFF800
3FFFF000
1FFFE000
0FFF8000
03FE0000
ENDCHAR
STARTCHAR 03A0
ENCODING 928
SWIDTH 540 0
DWIDTH 27 0
BBX 30 34 3 0
BITMAP
07FFFFFC
07FFFFFC
0FFFFFFC
0FFFFFFC
0FFFFFFC
0FFFFFFC
0FFFFFF8
0FFFFFF8
1FFFFFF8
1FF00FF8
1FF00FF0
1FF01FF0
1FE01FF0
1FE01FF0
3FE01FE0
3FE01FE0
3FE03FE0
3FE03FE0
3FE03FE0
3FE03FC0
7FE07FC0
7FC07FC0
7FC07FC0
7FC07F80
7FC07F80
7FC0FF80
7F80FF80
FF80FF80
FF80FF00
FF80FF00
FF80FF00
FF00FF00
FF00FF00
80000000
ENDCHAR
STARTCHAR 03A1
ENCODING 929
SWIDTH 480 0
DWIDTH 24 0
BBX 28 34 1 0
BITMAP
000FF800
007FFF00
00FFFFC0
00FFFFC0
00FFFFE0
00FFFFE0
01FFFFE0
01FF3FE0
01FE07E0
01FE07F0
03FE07E0
03FE07E0
03FE0FE0
07FE1FE0
07FF1FE0
07FFFFE0
07FFFFC0
0FFFFF80
0FFFFF00
0FFFFE00
1FFFF000
1FFE0000
1FFE0000
3FFC0000
3FFC0000
3FFC0000
7FFC0000
7FFC0000
7FFC0000
7FF80000
7FF80000
FFF80000
FFF80000
FFF80000
ENDCHAR
ENDFONT
